<?xml version="1.0" encoding="utf-8"?>
<!-- Generator: Adobe Illustrator 27.5.0, SVG Export Plug-In . SVG Version: 6.00 Build 0)  -->
<svg version="1.1" xmlns="http://www.w3.org/2000/svg" xmlns:xlink="http://www.w3.org/1999/xlink" x="0px" y="0px"
	 viewBox="0 0 650 500" style="enable-background:new 0 0 650 500;" xml:space="preserve">
<g id="BACKGROUND">
	<rect x="0.019" style="fill:#F2E9DA;" width="650" height="500"/>
</g>
<g id="OBJECTS">
	<path style="fill:#F2D9AF;" d="M588.55,244.13c-5.874,60.925-41.868,123.083-103.191,141.199
		c-52.157,15.974-107.968,6.131-160.799,18.421c-78.943,19.039-181.719,70.934-248.02-2.02
		c-48.395-61.337-19.835-165.39,16.707-227.97C212.101-17.97,609.502-56.598,588.55,244.13z"/>
	<g>
		<g>
			<path style="fill:#F2E9DA;" d="M178.876,461.099c4.874-16.855,6.589-31.867,5.991-45.204
				c-3.255-73.213-75.939-95.993-75.939-95.993s-11.837,32.711-2.143,68.416C114.049,415.067,133.4,443.496,178.876,461.099z"/>
			<path style="fill:#FFA727;" d="M116.262,333.063l62.24,125.638c0.278,0.562-0.642,0.893-0.919,0.333l-62.24-125.638
				C115.064,332.835,115.985,332.504,116.262,333.063z"/>
			<path style="fill:#FFA727;" d="M141.789,386.436l8.087-23.507c0.878-2.575,1.756-5.149,2.635-7.724
				c0.203-0.596,1.092-0.188,0.891,0.403l-9.32,27.323c-0.878,2.575-0.523,1.333-1.402,3.908
				C142.476,387.435,141.587,387.026,141.789,386.436z"/>
			<path style="fill:#FFA727;" d="M160.044,423.287l8.087-23.507c0.878-2.575,1.756-5.149,2.635-7.724
				c0.203-0.596,1.092-0.188,0.891,0.403l-9.32,27.323c-0.878,2.575-0.523,1.333-1.402,3.908
				C160.732,424.286,159.843,423.877,160.044,423.287z"/>
			<path style="fill:#FFA727;" d="M128.645,413.766l23.6,7.809c2.58,0.861,5.161,1.723,7.741,2.584
				c0.598,0.199,0.811-0.755,0.219-0.953l-27.383-9.14c-2.58-0.861-1.378-0.391-3.958-1.253
				C128.267,412.614,128.053,413.569,128.645,413.766z"/>
			<path style="fill:#FFA727;" d="M109.939,376.007l23.6,7.809c2.58,0.861,5.161,1.723,7.741,2.584
				c0.598,0.199,0.811-0.755,0.219-0.953l-27.384-9.141c-2.58-0.861-1.378-0.391-3.958-1.253
				C109.561,374.855,109.348,375.81,109.939,376.007z"/>
		</g>
		<g>
			<path style="fill:#FFA727;" d="M179.532,461.194c-6.529-16.286-14.415-29.174-23.093-39.319
				C108.823,366.165,37.51,392.934,37.51,392.934s10.798,33.068,40.409,55.249C100.105,464.799,132.853,475.301,179.532,461.194z"/>
			<path style="fill:#F2E9DA;" d="M51.39,398.796l126.371,60.738c0.565,0.272,0.043,1.099-0.519,0.828L50.871,399.625
				C50.305,399.353,50.828,398.526,51.39,398.796z"/>
			<path style="fill:#F2E9DA;" d="M104.354,425.161l-8.09-23.505c-0.892-2.57-1.784-5.14-2.676-7.71
				c-0.207-0.595,0.745-0.82,0.95-0.23l9.466,27.273c0.892,2.57,0.408,1.373,1.3,3.943
				C105.51,425.525,104.558,425.75,104.354,425.161z"/>
			<path style="fill:#F2E9DA;" d="M141.42,442.976l-8.09-23.505c-0.892-2.57-1.784-5.14-2.676-7.71
				c-0.207-0.595,0.745-0.82,0.95-0.23l9.466,27.273c0.892,2.57,0.408,1.373,1.3,3.943
				C142.576,443.34,141.624,443.565,141.42,442.976z"/>
			<path style="fill:#F2E9DA;" d="M110.811,454.792l23.408-8.366c2.564-0.909,5.128-1.818,7.692-2.727
				c0.594-0.21,0.175-1.094-0.413-0.886l-27.21,9.645c-2.564,0.909-1.327,0.539-3.891,1.448
				C109.803,454.117,110.223,455.001,110.811,454.792z"/>
			<path style="fill:#F2E9DA;" d="M72.831,436.538l23.408-8.366c2.564-0.909,5.128-1.818,7.692-2.727
				c0.594-0.21,0.175-1.094-0.413-0.886l-27.21,9.645c-2.564,0.909-1.327,0.539-3.891,1.448
				C71.824,435.863,72.243,436.747,72.831,436.538z"/>
		</g>
	</g>
	<g>
		<g>
			<path style="fill:#FFBD29;" d="M339.992,468.719H169.757c-9.823,0-17.874-7.796-18.189-17.615l-11.156-347.947
				c-0.329-10.274,7.91-18.781,18.189-18.781h170.234c9.823,0,17.874,7.796,18.189,17.615l11.156,347.947
				C358.51,460.211,350.271,468.719,339.992,468.719z"/>
			<g>
				<path style="fill:#25292B;" d="M182.08,469.219c-10.154,0-18.363-7.95-18.688-18.1l-11.156-347.946
					c-0.164-5.105,1.703-9.938,5.256-13.607c3.554-3.669,8.324-5.69,13.432-5.69c0.276,0,0.5,0.224,0.5,0.5s-0.224,0.5-0.5,0.5
					c-4.835,0-9.35,1.913-12.713,5.386c-3.363,3.473-5.13,8.047-4.976,12.879l11.156,347.947
					c0.308,9.605,8.077,17.131,17.688,17.131c0.276,0,0.5,0.224,0.5,0.5S182.356,469.219,182.08,469.219z"/>
			</g>
			<polygon style="fill:#F2E9DA;" points="357.71,433.655 176.84,433.655 166.464,111.3 347.333,111.3 			"/>
			<g>
				<path style="fill:#25292B;" d="M306.328,459.093h-75.962c-4.974,0-9.021-4.047-9.021-9.021c0-4.974,4.047-9.021,9.021-9.021
					h75.962c4.975,0,9.021,4.047,9.021,9.021C315.35,455.046,311.303,459.093,306.328,459.093z M230.366,442.051
					c-4.423,0-8.021,3.598-8.021,8.021s3.598,8.021,8.021,8.021h75.962c4.423,0,8.021-3.599,8.021-8.021s-3.599-8.021-8.021-8.021
					H230.366z"/>
			</g>
			<g>
				<path style="fill:#25292B;" d="M312.615,104.636H208.683c-1.513,0-2.744-1.23-2.744-2.743s1.231-2.744,2.744-2.744h103.932
					c1.513,0,2.744,1.231,2.744,2.744S314.128,104.636,312.615,104.636z M208.683,100.149c-0.961,0-1.744,0.782-1.744,1.744
					s0.782,1.743,1.744,1.743h103.932c0.961,0,1.744-0.782,1.744-1.743s-0.782-1.744-1.744-1.744H208.683z"/>
			</g>
			<g>
				<path style="fill:#25292B;" d="M150.604,261.585c-0.269,0-0.491-0.214-0.499-0.484l-3.998-124.706
					c-0.009-0.276,0.208-0.507,0.483-0.516c0.261-0.029,0.507,0.207,0.516,0.483l3.998,124.707c0.009,0.275-0.208,0.507-0.483,0.516
					C150.616,261.585,150.61,261.585,150.604,261.585z"/>
			</g>
		</g>
		<g>
			<g>
				<path style="fill:#FFA727;" d="M369.922,271.066H199.484c-6.6,0-12-5.4-12-12v-37.913c0-6.6,5.4-12,12-12h170.438
					c6.6,0,12,5.4,12,12v37.913C381.922,265.666,376.522,271.066,369.922,271.066z"/>
				<g>
					<g>
						<g>
							<g>
								<path style="fill:#F2E9DA;" d="M250.724,240.208c0,0.925-0.751,1.676-1.676,1.676h-4.216
									c-0.369,5.664-2.56,9.786-5.127,12.715c2.775,2.265,5.389,3.13,5.436,3.143c0.878,0.275,1.374,1.22,1.092,2.098
									c-0.221,0.717-0.885,1.173-1.595,1.173c-0.168,0-0.335-0.027-0.503-0.074c-0.235-0.074-3.499-1.126-6.863-3.968
									c-3.418,2.875-6.716,3.941-6.79,3.968c-0.168,0.047-0.335,0.074-0.503,0.074c-0.71,0-1.374-0.456-1.595-1.173
									c-0.281-0.885,0.214-1.823,1.092-2.098c0.228-0.074,2.748-0.912,5.436-3.083c-1.662-1.897-3.164-4.303-4.122-7.332
									c-0.282-0.885,0.208-1.823,1.086-2.105c0.168-0.054,0.342-0.08,0.509-0.08c0.71,0,1.367,0.456,1.595,1.173
									c0.777,2.446,1.997,4.417,3.351,5.992c2.051-2.42,3.8-5.798,4.142-10.422h-14.477c-0.925,0-1.676-0.751-1.676-1.676
									c0-0.925,0.751-1.676,1.676-1.676h8.452v-3.666c0-0.925,0.751-1.676,1.676-1.676c0.925,0,1.676,0.751,1.676,1.676v3.666
									h10.248C249.973,238.533,250.724,239.283,250.724,240.208z"/>
							</g>
						</g>
					</g>
					<g>
						<g>
							<path style="fill:#F2E9DA;" d="M214.751,245.567l-2.983-7.674l-5.215-13.425c-0.248-0.643-0.871-1.066-1.555-1.072
								c-0.007,0-0.007,0-0.007,0c-0.69,0-1.307,0.422-1.562,1.066l-5.255,13.438c-0.027,0.047-0.04,0.101-0.06,0.154l-2.942,7.513
								c-0.335,0.858,0.087,1.83,0.952,2.172c0.858,0.335,1.83-0.087,2.172-0.952l2.567-6.562h8.217l2.547,6.555
								c0.261,0.664,0.891,1.072,1.562,1.072c0.201,0,0.409-0.034,0.61-0.114C214.664,247.404,215.086,246.432,214.751,245.567z
								 M202.17,236.874l2.815-7.192l2.795,7.192H202.17z"/>
						</g>
					</g>
					<g>
						<path style="fill:#F2E9DA;" d="M224.617,259.74c0.001,0.111-0.01,0.221-0.032,0.327c-0.006,0.031-0.012,0.062-0.019,0.093
							c-0.012,0.037-0.022,0.074-0.034,0.115c-0.012,0.034-0.022,0.068-0.037,0.099c-0.062,0.158-0.149,0.307-0.257,0.443
							c-0.019,0.025-0.04,0.05-0.065,0.074c-0.105,0.118-0.232,0.223-0.375,0.31c-0.037,0.022-0.074,0.043-0.111,0.062l-7.544,3.874
							c-0.248,0.127-0.514,0.186-0.774,0.186c-0.619,0-1.217-0.338-1.518-0.923c-0.43-0.839-0.099-1.864,0.737-2.295l2.738-1.406
							c-6.129-1.679-11.27-6.07-13.831-12.122c-0.365-0.864,0.04-1.864,0.907-2.23c0.864-0.369,1.864,0.037,2.233,0.904
							c2.348,5.553,7.29,9.44,13.073,10.499l-1.493-2.459c-0.489-0.805-0.232-1.852,0.573-2.341
							c0.802-0.486,1.852-0.232,2.338,0.573l3.205,5.28l0.037,0.059c0.022,0.034,0.04,0.068,0.059,0.105
							c0.037,0.071,0.068,0.142,0.093,0.217c0.012,0.037,0.025,0.074,0.034,0.111c0.006,0.016,0.012,0.034,0.015,0.05
							c0.006,0.022,0.009,0.04,0.012,0.062C224.605,259.517,224.616,259.629,224.617,259.74z"/>
					</g>
					<g>
						<path style="fill:#F2E9DA;" d="M241.241,233.083c-0.229,0.108-0.471,0.158-0.709,0.158c-0.644,0-1.26-0.369-1.549-0.994
							c-2.871-6.265-9.18-10.313-16.071-10.313c-2.286,0-4.509,0.43-6.584,1.267l4.19,1.059c0.911,0.232,1.465,1.158,1.233,2.069
							c-0.195,0.771-0.886,1.288-1.648,1.288c-0.139,0-0.279-0.019-0.421-0.053l-8.337-2.106l-0.05-0.012
							c-0.006,0-0.009-0.003-0.016-0.006c-0.037-0.006-0.071-0.019-0.108-0.031c-0.18-0.059-0.341-0.146-0.486-0.257
							c-0.028-0.022-0.056-0.046-0.084-0.068c-0.028-0.025-0.053-0.046-0.077-0.071c-0.077-0.074-0.146-0.155-0.204-0.242
							c-0.019-0.028-0.04-0.059-0.056-0.087c-0.099-0.158-0.17-0.328-0.211-0.511c-0.009-0.031-0.016-0.065-0.019-0.096
							c-0.009-0.043-0.015-0.087-0.019-0.13c-0.003-0.053-0.006-0.105-0.006-0.158c0-0.05,0.003-0.099,0.006-0.149
							c0.003-0.019,0.003-0.034,0.006-0.053c0.006-0.05,0.015-0.099,0.025-0.149c0.006-0.022,0.009-0.04,0.016-0.062l1.83-8.334
							c0.204-0.92,1.112-1.499,2.032-1.298c0.917,0.201,1.499,1.109,1.298,2.029l-1.019,4.63c2.716-1.236,5.668-1.877,8.709-1.877
							c8.22,0,15.742,4.828,19.168,12.298C242.473,231.68,242.095,232.692,241.241,233.083z"/>
					</g>
				</g>
				<g>
					<path style="fill:#F2E9DA;" d="M327.188,231.015h-66.167c-1.303,0-2.37-1.067-2.37-2.37l0,0c0-1.304,1.067-2.37,2.37-2.37
						h66.167c1.303,0,2.37,1.067,2.37,2.37l0,0C329.558,229.949,328.491,231.015,327.188,231.015z"/>
					<path style="fill:#F2E9DA;" d="M368.363,242.249H261.021c-1.303,0-2.37-1.066-2.37-2.37v0c0-1.304,1.067-2.37,2.37-2.37
						h107.342c1.304,0,2.37,1.067,2.37,2.37v0C370.733,241.183,369.667,242.249,368.363,242.249z"/>
					<path style="fill:#F2E9DA;" d="M368.363,253.944H261.021c-1.303,0-2.37-1.067-2.37-2.37l0,0c0-1.304,1.067-2.37,2.37-2.37
						h107.342c1.304,0,2.37,1.067,2.37,2.37l0,0C370.733,252.877,369.667,253.944,368.363,253.944z"/>
				</g>
			</g>
			<g>
				<path style="fill:#25292B;" d="M363.761,271.565H193.323c-6.893,0-12.5-5.607-12.5-12.5v-37.912c0-6.893,5.607-12.5,12.5-12.5
					h170.438c6.893,0,12.5,5.607,12.5,12.5v37.912C376.261,265.958,370.653,271.565,363.761,271.565z M193.323,209.653
					c-6.341,0-11.5,5.159-11.5,11.5v37.912c0,6.341,5.159,11.5,11.5,11.5h170.438c6.341,0,11.5-5.159,11.5-11.5v-37.912
					c0-6.341-5.159-11.5-11.5-11.5H193.323z"/>
			</g>
		</g>
		<g>
			<g>
				<path style="fill:#FFBD29;" d="M388.724,345.078H218.286c-6.6,0-12-5.4-12-12v-37.913c0-6.6,5.4-12,12-12h170.438
					c6.6,0,12,5.4,12,12v37.913C400.724,339.678,395.324,345.078,388.724,345.078z"/>
				<g>
					<path style="fill:#F2E9DA;" d="M345.989,305.027h-66.167c-1.303,0-2.37-1.066-2.37-2.37l0,0c0-1.303,1.067-2.37,2.37-2.37
						h66.167c1.304,0,2.37,1.067,2.37,2.37l0,0C348.359,303.96,347.293,305.027,345.989,305.027z"/>
					<path style="fill:#F2E9DA;" d="M387.164,316.261H279.822c-1.303,0-2.37-1.066-2.37-2.37l0,0c0-1.303,1.067-2.37,2.37-2.37
						h107.342c1.304,0,2.37,1.067,2.37,2.37l0,0C389.535,315.195,388.468,316.261,387.164,316.261z"/>
					<path style="fill:#F2E9DA;" d="M387.164,327.956H279.822c-1.303,0-2.37-1.066-2.37-2.37v0c0-1.303,1.067-2.37,2.37-2.37
						h107.342c1.304,0,2.37,1.067,2.37,2.37v0C389.535,326.889,388.468,327.956,387.164,327.956z"/>
				</g>
				<g>
					<g>
						<g>
							<path style="fill:#F2E9DA;" d="M233.582,325.387c0.062,0.53-0.092,1.054-0.425,1.473c-0.382,0.481-0.955,0.758-1.571,0.758
								c-0.45,0-0.893-0.154-1.251-0.437l-14.769-11.799c-0.474-0.382-0.752-0.955-0.752-1.565c0-0.616,0.277-1.189,0.752-1.571
								l14.578-11.639c0.419-0.339,0.943-0.487,1.479-0.431c0.53,0.062,1.01,0.327,1.343,0.746c0.333,0.419,0.487,0.943,0.425,1.473
								c-0.055,0.536-0.32,1.01-0.739,1.349l-12.612,10.074l12.803,10.228C233.262,324.377,233.526,324.851,233.582,325.387z"/>
							<path style="fill:#F2E9DA;" d="M270.968,313.816c0,0.61-0.271,1.183-0.752,1.565l-14.769,11.799
								c-0.351,0.283-0.795,0.437-1.251,0.437c-0.616,0-1.183-0.277-1.571-0.758c-0.333-0.419-0.487-0.943-0.425-1.473
								c0.062-0.536,0.326-1.01,0.745-1.343l12.797-10.228l-12.612-10.074c-0.419-0.339-0.678-0.813-0.739-1.349
								c-0.062-0.53,0.092-1.054,0.425-1.473c0.69-0.869,1.959-1.01,2.822-0.314l14.578,11.639
								C270.697,312.627,270.968,313.2,270.968,313.816z"/>
							<path style="fill:#F2E9DA;" d="M249.644,298.099c0.253,0.474,0.302,1.017,0.142,1.528l-9.137,29.71
								c-0.228,0.739-0.875,1.294-1.645,1.399c-0.092,0.012-0.185,0.018-0.271,0.018c-0.203,0-0.4-0.031-0.591-0.092
								c-1.06-0.327-1.657-1.448-1.331-2.508l9.137-29.703c0.16-0.518,0.505-0.936,0.98-1.189c0.474-0.246,1.023-0.302,1.534-0.142
								C248.973,297.28,249.392,297.625,249.644,298.099z"/>
						</g>
					</g>
				</g>
			</g>
			<g>
				<path style="fill:#25292B;" d="M382.563,345.577H212.125c-6.893,0-12.5-5.607-12.5-12.5v-37.912c0-6.893,5.607-12.5,12.5-12.5
					h170.438c6.893,0,12.5,5.607,12.5,12.5v37.912C395.063,339.97,389.455,345.577,382.563,345.577z M212.125,283.665
					c-6.341,0-11.5,5.159-11.5,11.5v37.912c0,6.341,5.159,11.5,11.5,11.5h170.438c6.341,0,11.5-5.159,11.5-11.5v-37.912
					c0-6.341-5.159-11.5-11.5-11.5H212.125z"/>
			</g>
		</g>
		<g>
			<g>
				<path style="fill:#FFA727;" d="M414.777,415.281H244.339c-6.6,0-12-5.4-12-12v-37.913c0-6.6,5.4-12,12-12h170.438
					c6.6,0,12,5.4,12,12v37.913C426.777,409.881,421.377,415.281,414.777,415.281z"/>
				<g>
					<path style="fill:#F2E9DA;" d="M372.042,375.231h-66.167c-1.303,0-2.37-1.067-2.37-2.37v0c0-1.303,1.066-2.37,2.37-2.37h66.167
						c1.304,0,2.37,1.066,2.37,2.37v0C374.412,374.164,373.346,375.231,372.042,375.231z"/>
					<path style="fill:#F2E9DA;" d="M413.217,386.465H305.875c-1.303,0-2.37-1.067-2.37-2.37l0,0c0-1.304,1.066-2.37,2.37-2.37
						h107.342c1.303,0,2.37,1.066,2.37,2.37l0,0C415.587,385.399,414.521,386.465,413.217,386.465z"/>
					<path style="fill:#F2E9DA;" d="M413.217,398.16H305.875c-1.303,0-2.37-1.067-2.37-2.37l0,0c0-1.304,1.066-2.37,2.37-2.37
						h107.342c1.303,0,2.37,1.066,2.37,2.37l0,0C415.587,397.093,414.521,398.16,413.217,398.16z"/>
				</g>
				<g>
					<g>
						<g>
							<g>
								<g>
									<path style="fill:#F2E9DA;" d="M260.705,408.079c-0.106,0-0.212-0.009-0.318-0.029c-2.78-0.503-5.428-1.473-7.872-2.882
										c-2.497-1.435-4.663-3.244-6.437-5.377c-0.626-0.753-0.529-1.87,0.219-2.503l1.556-1.317
										c-0.725-1.021-1.351-2.102-1.874-3.234l-1.899,0.687c-0.445,0.161-0.936,0.139-1.365-0.062
										c-0.429-0.201-0.76-0.564-0.921-1.009c-0.948-2.622-1.441-5.395-1.463-8.243c0.022-2.876,0.515-5.649,1.463-8.271
										c0.161-0.445,0.492-0.808,0.921-1.009c0.429-0.201,0.92-0.223,1.365-0.062l1.899,0.687
										c0.522-1.132,1.148-2.213,1.874-3.237l-1.555-1.313c-0.749-0.633-0.847-1.751-0.22-2.505
										c1.769-2.128,3.935-3.939,6.437-5.382c2.45-1.408,5.097-2.375,7.872-2.877c0.467-0.085,0.947,0.02,1.337,0.291
										c0.389,0.27,0.655,0.685,0.738,1.151l0.357,2c1.24-0.113,2.489-0.113,3.732,0l0.357-2c0.083-0.466,0.348-0.88,0.737-1.151
										c0.388-0.271,0.869-0.376,1.335-0.292c5.533,0.991,10.748,4,14.308,8.256c0.63,0.753,0.533,1.874-0.217,2.508l-1.557,1.315
										c0.724,1.024,1.35,2.106,1.871,3.236l1.905-0.688c0.446-0.161,0.937-0.138,1.366,0.063c0.429,0.201,0.76,0.565,0.92,1.011
										c0.95,2.641,1.44,5.415,1.457,8.243c0,0.007,0,0.014,0,0.021c-0.017,2.828-0.507,5.602-1.457,8.243
										c-0.16,0.446-0.492,0.81-0.92,1.011c-0.429,0.202-0.921,0.224-1.366,0.063l-1.905-0.688
										c-0.522,1.131-1.147,2.211-1.871,3.233l1.558,1.319c0.749,0.634,0.845,1.754,0.216,2.507
										c-3.607,4.312-8.688,7.244-14.306,8.256c-0.468,0.084-0.947-0.021-1.336-0.292s-0.654-0.685-0.738-1.151l-0.357-2
										c-1.242,0.113-2.492,0.113-3.734,0l-0.354,1.998c-0.083,0.467-0.348,0.882-0.738,1.153
										C261.423,407.968,261.067,408.079,260.705,408.079z M250.017,398.816c1.25,1.249,2.684,2.341,4.28,3.258
										c1.57,0.906,3.238,1.599,4.977,2.069l0.327-1.843c0.083-0.467,0.348-0.881,0.737-1.152
										c0.389-0.271,0.869-0.376,1.336-0.293c1.982,0.355,4.039,0.355,6.02,0c0.466-0.083,0.946,0.022,1.335,0.292
										c0.388,0.271,0.654,0.685,0.737,1.151l0.329,1.844c3.483-0.951,6.729-2.82,9.255-5.33l-1.444-1.223
										c-0.752-0.637-0.846-1.762-0.209-2.515c1.317-1.557,2.328-3.306,3.007-5.201c0.16-0.446,0.491-0.811,0.92-1.013
										c0.429-0.202,0.921-0.225,1.367-0.064l1.761,0.636c0.462-1.733,0.701-3.522,0.712-5.337
										c-0.011-1.816-0.251-3.604-0.712-5.337l-1.761,0.636c-0.446,0.161-0.937,0.138-1.367-0.064
										c-0.429-0.202-0.76-0.566-0.92-1.013c-0.678-1.892-1.69-3.644-3.009-5.209c-0.635-0.753-0.54-1.878,0.213-2.514
										l1.441-1.218c-2.528-2.513-5.773-4.383-9.253-5.33l-0.33,1.846c-0.083,0.466-0.348,0.88-0.737,1.151
										c-0.388,0.271-0.869,0.376-1.335,0.292c-1.985-0.356-4.043-0.355-6.014,0c-0.466,0.084-0.947-0.021-1.336-0.292
										c-0.389-0.271-0.654-0.685-0.738-1.151l-0.33-1.846c-1.739,0.47-3.407,1.162-4.979,2.065
										c-1.596,0.921-3.03,2.014-4.279,3.262l1.446,1.221c0.362,0.306,0.587,0.743,0.627,1.215c0.04,0.472-0.11,0.94-0.416,1.302
										c-1.32,1.56-2.333,3.311-3.012,5.206c-0.16,0.447-0.491,0.811-0.92,1.013c-0.43,0.202-0.921,0.225-1.367,0.063
										l-1.757-0.636c-0.461,1.727-0.701,3.52-0.715,5.351c0.014,1.81,0.254,3.598,0.715,5.323l1.757-0.636
										c0.446-0.161,0.938-0.138,1.368,0.063c0.429,0.202,0.76,0.566,0.92,1.013c0.68,1.898,1.693,3.647,3.01,5.199
										c0.307,0.361,0.457,0.829,0.418,1.302c-0.039,0.472-0.264,0.91-0.626,1.216L250.017,398.816z"/>
								</g>
							</g>
						</g>
					</g>
					<g>
						<path style="fill:#F2E9DA;" d="M264.683,394.388c-5.676,0-10.293-4.617-10.293-10.293s4.617-10.293,10.293-10.293
							s10.293,4.617,10.293,10.293S270.358,394.388,264.683,394.388z M264.683,377.371c-3.707,0-6.723,3.016-6.723,6.723
							s3.016,6.723,6.723,6.723s6.723-3.016,6.723-6.723S268.39,377.371,264.683,377.371z"/>
					</g>
				</g>
			</g>
			<g>
				<path style="fill:#25292B;" d="M408.615,415.781H238.178c-6.893,0-12.5-5.607-12.5-12.5v-37.912c0-6.893,5.607-12.5,12.5-12.5
					h170.438c6.893,0,12.5,5.607,12.5,12.5v37.912C421.115,410.174,415.508,415.781,408.615,415.781z M238.178,353.869
					c-6.341,0-11.5,5.159-11.5,11.5v37.912c0,6.341,5.159,11.5,11.5,11.5h170.438c6.341,0,11.5-5.159,11.5-11.5v-37.912
					c0-6.341-5.159-11.5-11.5-11.5H238.178z"/>
			</g>
		</g>
	</g>
	<g>
		<circle style="fill:#FFA727;" cx="252.632" cy="110.727" r="76.187"/>
		<g>
			<path style="fill:#25292B;" d="M252.632,190.989c-44.256,0-80.262-36.005-80.262-80.262s36.005-80.262,80.262-80.262
				s80.262,36.005,80.262,80.262S296.888,190.989,252.632,190.989z M252.632,31.465c-43.705,0-79.262,35.557-79.262,79.262
				s35.557,79.262,79.262,79.262s79.262-35.557,79.262-79.262S296.337,31.465,252.632,31.465z"/>
		</g>
		<g>
			<defs>
				<path id="SVGID_1_" d="M351.303,80.879v37.697h-22.886c-3.926,38.394-36.36,68.341-75.782,68.341
					c-42.083,0-76.192-34.109-76.192-76.192c0-42.076,34.109-76.185,76.192-76.185c31.485,0,58.505,19.097,70.109,46.339H351.303z"
					/>
			</defs>
			<clipPath id="SVGID_00000046303788941200847550000017311321116560596409_">
				<use xlink:href="#SVGID_1_"  style="overflow:visible;"/>
			</clipPath>
			<g style="clip-path:url(#SVGID_00000046303788941200847550000017311321116560596409_);">
				<path style="fill:#25292B;" d="M327.91,204.117c-3.913,0-7.313-2.903-7.833-6.887c-6.826-52.328-29.371-59.035-29.598-59.096
					c0.127,0.034,0.194,0.045,0.194,0.045l3.337-15.462c0.971,0.21,9.756,2.354,19.125,12.964
					c11.573,13.107,19.186,33.126,22.626,59.503c0.565,4.332-2.488,8.301-6.82,8.866
					C328.596,204.095,328.251,204.117,327.91,204.117z"/>
			</g>
			
				<rect x="237.177" y="172.622" style="clip-path:url(#SVGID_00000046303788941200847550000017311321116560596409_);fill:#25292B;" width="36.768" height="26.983"/>
			<path style="clip-path:url(#SVGID_00000046303788941200847550000017311321116560596409_);fill:#F2E9DA;" d="M300.801,81.979
				c0,2.538-0.187,5.04-0.561,7.47c-1.46,9.627-9.699,16.76-19.434,16.76h-56.362c-9.491,0-17.774-6.759-19.319-16.127
				c-0.439-2.639-0.661-5.342-0.661-8.103c0-26.926,21.57-41.594,48.173-41.594c3.286,0,6.493,0.223,9.591,0.669
				C284.228,44.196,300.801,58.374,300.801,81.979z"/>
			<path style="clip-path:url(#SVGID_00000046303788941200847550000017311321116560596409_);fill:#25292B;" d="M300.801,81.979
				c0,2.538-0.187,5.04-0.561,7.47c-1.46,9.627-9.699,16.76-19.434,16.76h-37.172c-9.491,0-17.774-6.759-19.319-16.127
				c-0.439-2.639-0.661-5.342-0.661-8.103c0-23.597,16.566-37.783,38.574-40.925C284.228,44.196,300.801,58.374,300.801,81.979z"/>
			<g style="clip-path:url(#SVGID_00000046303788941200847550000017311321116560596409_);">
				<path style="fill:#25292B;" d="M210.374,97.851c-5.346,0-9.694-4.349-9.694-9.694V77.363c0-5.346,4.349-9.694,9.694-9.694
					s9.694,4.349,9.694,9.694v10.793C220.068,93.502,215.72,97.851,210.374,97.851z M210.374,68.669c-4.794,0-8.694,3.9-8.694,8.694
					v10.793c0,4.794,3.9,8.694,8.694,8.694s8.694-3.9,8.694-8.694V77.363C219.068,72.569,215.168,68.669,210.374,68.669z"/>
			</g>
			
				<ellipse style="clip-path:url(#SVGID_00000046303788941200847550000017311321116560596409_);fill:#FFBD29;" cx="256.498" cy="77.564" rx="8.062" ry="8.528"/>
			
				<ellipse style="clip-path:url(#SVGID_00000046303788941200847550000017311321116560596409_);fill:#FFBD29;" cx="288.745" cy="77.564" rx="8.062" ry="8.528"/>
			<g style="clip-path:url(#SVGID_00000046303788941200847550000017311321116560596409_);">
				<path style="fill:#25292B;" d="M265.759,114.558h-21.586c-0.276,0-0.5-0.224-0.5-0.5v-6.663c0-0.276,0.224-0.5,0.5-0.5h21.586
					c0.276,0,0.5,0.224,0.5,0.5v6.663C266.259,114.334,266.035,114.558,265.759,114.558z M244.672,113.558h20.586v-5.663h-20.586
					V113.558z"/>
			</g>
			<path style="clip-path:url(#SVGID_00000046303788941200847550000017311321116560596409_);fill:#F2E9DA;" d="M206.213,140.443
				c0-2.538,0.187-5.04,0.561-7.47c1.46-9.627,9.699-16.76,19.434-16.76h56.362c9.491,0,17.774,6.759,19.319,16.127
				c0.439,2.639,0.661,5.342,0.661,8.103c0,26.926-21.57,41.594-48.173,41.594c-3.286,0-6.493-0.223-9.591-0.669
				C222.786,178.226,206.213,164.048,206.213,140.443z"/>
			<path style="clip-path:url(#SVGID_00000046303788941200847550000017311321116560596409_);fill:#FFBD29;" d="M297.738,135.156
				c0,3.839-1.567,7.334-4.105,9.865c-2.531,2.531-6.018,4.105-9.865,4.105h-38.416c-7.686,0-13.97-6.291-13.97-13.97
				c0-3.839,1.575-7.334,4.105-9.865c2.531-2.531,6.025-4.105,9.865-4.105h38.416C291.454,121.186,297.738,127.47,297.738,135.156z"
				/>
			<g style="clip-path:url(#SVGID_00000046303788941200847550000017311321116560596409_);">
				<path style="fill:#25292B;" d="M235.335,176.994c-0.105,0-0.211-0.033-0.302-0.102c-4.604-3.493-6.953-8.587-8.112-12.247
					c-1.521-4.796-1.944-9.823-2.175-14.542c-0.515-10.505-0.121-21.126,1.17-31.569c0.034-0.273,0.284-0.468,0.558-0.435
					c0.274,0.034,0.469,0.283,0.435,0.558c-1.284,10.386-1.675,20.949-1.163,31.397c0.228,4.651,0.643,9.602,2.129,14.289
					c1.116,3.521,3.369,8.417,7.764,11.751c0.22,0.167,0.263,0.48,0.096,0.701C235.635,176.925,235.486,176.994,235.335,176.994z"/>
			</g>
			<g style="clip-path:url(#SVGID_00000046303788941200847550000017311321116560596409_);">
				<path style="fill:#25292B;" d="M212.48,152.951c-5.329,0-9.664-4.335-9.664-9.663v-13.78c0-5.328,4.335-9.663,9.664-9.663
					c5.328,0,9.663,4.335,9.663,9.663v13.78C222.144,148.616,217.809,152.951,212.48,152.951z M212.48,120.844
					c-4.777,0-8.664,3.886-8.664,8.663v13.78c0,4.777,3.886,8.663,8.664,8.663c4.777,0,8.663-3.886,8.663-8.663v-13.78
					C221.144,124.73,217.257,120.844,212.48,120.844z"/>
			</g>
			<path style="clip-path:url(#SVGID_00000046303788941200847550000017311321116560596409_);fill:#F2E9DA;" d="M274.329,84.393
				h-6.603c0,0-0.704,6.263,6.263,6.263c6.967,0,6.166-6.263,6.166-6.263H274.329z"/>
			<g style="clip-path:url(#SVGID_00000046303788941200847550000017311321116560596409_);">
				<path style="fill:#25292B;" d="M182.031,206.647c3.913,0,7.313-2.903,7.833-6.887c4.93-37.798,18.063-51.793,25.061-56.674
					c2.654-1.851,3.919-5.12,3.197-8.274v0c-1.241-5.417-7.556-7.957-12.141-4.817c-2.792,1.913-5.949,4.562-9.175,8.216
					c-11.539,13.068-19.141,33.008-22.596,59.269c-0.52,3.949,1.858,7.822,5.698,8.879
					C180.623,206.556,181.335,206.646,182.031,206.647z"/>
			</g>
			<g style="clip-path:url(#SVGID_00000046303788941200847550000017311321116560596409_);">
				<path style="fill:#25292B;" d="M210.71,84.704c-0.276,0-0.5-0.224-0.5-0.5V55.943c0-0.276,0.224-0.5,0.5-0.5s0.5,0.224,0.5,0.5
					v28.261C211.21,84.48,210.987,84.704,210.71,84.704z"/>
			</g>
			
				<ellipse style="clip-path:url(#SVGID_00000046303788941200847550000017311321116560596409_);fill:#FFBD29;" cx="210.716" cy="83.733" rx="4.276" ry="6.294"/>
			
				<circle style="clip-path:url(#SVGID_00000046303788941200847550000017311321116560596409_);fill:#25292B;" cx="210.41" cy="56.208" r="4.796"/>
			<g style="clip-path:url(#SVGID_00000046303788941200847550000017311321116560596409_);">
				<path style="fill:#F2E9DA;" d="M263.884,148.028L263.884,148.028c-0.924,0-1.679-0.756-1.679-1.679v-21.711
					c0-0.924,0.756-1.679,1.679-1.679h0c0.924,0,1.679,0.756,1.679,1.679v21.711C265.563,147.272,264.807,148.028,263.884,148.028z"
					/>
				<g>
					<path style="fill:#F2E9DA;" d="M258.738,142.013L258.738,142.013c-0.924,0-1.679-0.756-1.679-1.679v-9.682
						c0-0.924,0.756-1.679,1.679-1.679l0,0c0.924,0,1.679,0.756,1.679,1.679v9.682C260.418,141.257,259.662,142.013,258.738,142.013
						z"/>
				</g>
				<path style="fill:#F2E9DA;" d="M249.121,143.245L249.121,143.245c-0.924,0-1.679-0.756-1.679-1.679V129.42
					c0-0.924,0.756-1.679,1.679-1.679l0,0c0.924,0,1.679,0.756,1.679,1.679v12.145C250.8,142.489,250.044,143.245,249.121,143.245z"
					/>
				<g>
					<path style="fill:#F2E9DA;" d="M253.766,139.741L253.766,139.741c-0.924,0-1.679-0.756-1.679-1.679v-5.138
						c0-0.924,0.756-1.679,1.679-1.679h0c0.924,0,1.679,0.756,1.679,1.679v5.138C255.446,138.985,254.69,139.741,253.766,139.741z"
						/>
				</g>
				<g>
					<path style="fill:#F2E9DA;" d="M244.333,139.741L244.333,139.741c-0.924,0-1.679-0.756-1.679-1.679v-5.138
						c0-0.924,0.756-1.679,1.679-1.679l0,0c0.924,0,1.679,0.756,1.679,1.679v5.138C246.013,138.985,245.257,139.741,244.333,139.741
						z"/>
				</g>
				<g>
					<path style="fill:#F2E9DA;" d="M269.008,128.972L269.008,128.972c0.924,0,1.679,0.756,1.679,1.679v9.682
						c0,0.924-0.756,1.679-1.679,1.679l0,0c-0.924,0-1.679-0.756-1.679-1.679v-9.682
						C267.329,129.728,268.085,128.972,269.008,128.972z"/>
				</g>
				<path style="fill:#F2E9DA;" d="M278.626,127.741L278.626,127.741c0.924,0,1.679,0.756,1.679,1.679v12.145
					c0,0.924-0.756,1.679-1.679,1.679l0,0c-0.924,0-1.679-0.756-1.679-1.679V129.42
					C276.947,128.496,277.702,127.741,278.626,127.741z"/>
				<g>
					<path style="fill:#F2E9DA;" d="M273.98,131.244L273.98,131.244c0.924,0,1.679,0.756,1.679,1.679v5.138
						c0,0.924-0.756,1.679-1.679,1.679h0c-0.924,0-1.679-0.756-1.679-1.679v-5.138C272.301,132,273.057,131.244,273.98,131.244z"/>
				</g>
				<g>
					<path style="fill:#F2E9DA;" d="M283.414,131.244L283.414,131.244c0.924,0,1.679,0.756,1.679,1.679v5.138
						c0,0.924-0.756,1.679-1.679,1.679l0,0c-0.924,0-1.679-0.756-1.679-1.679v-5.138C281.734,132,282.49,131.244,283.414,131.244z"
						/>
				</g>
			</g>
		</g>
	</g>
	<g>
		<g>
			<g>
				<path style="fill:#FFBD29;" d="M567.316,387.843l-23.719,23.025l-1.256,11.239c0,0-19.035,17.53-6.747,30.188l48.544-47.124
					L567.316,387.843z"/>
				<polygon style="fill:#F2E9DA;" points="556.537,381.204 540.73,403.685 546.297,408.248 565.085,390.009 				"/>
				<g>
					<path style="fill:#25292B;" d="M534.714,450.546c-0.131,0-0.261-0.051-0.358-0.151c-0.192-0.198-0.188-0.515,0.01-0.707
						l46.824-45.454c0.199-0.193,0.516-0.187,0.707,0.01c0.192,0.198,0.188,0.515-0.01,0.707l-46.824,45.454
						C534.965,450.499,534.84,450.546,534.714,450.546z"/>
				</g>
				<g>
					<path style="fill:#25292B;" d="M542.341,422.607c-0.146,0-0.29-0.063-0.389-0.186c-0.174-0.215-0.141-0.529,0.074-0.703
						c0.387-0.313,9.55-7.66,16.462-6.762c0.273,0.036,0.466,0.287,0.431,0.562c-0.036,0.273-0.291,0.463-0.562,0.431
						c-6.481-0.853-15.61,6.473-15.702,6.547C542.563,422.571,542.451,422.607,542.341,422.607z"/>
				</g>
				<g>
					<path style="fill:#25292B;" d="M543.827,415.785c-0.771,0-1.547-0.028-2.318-0.109c-1.928-0.203-3.584-0.724-4.922-1.547
						c-0.863-0.531-1.449-1.116-1.792-1.787c-0.463-0.901-0.428-1.959,0.09-2.692c0.565-0.801,1.664-1.193,3.005-1.076
						c1.709,0.146,3.49,0.912,5.151,2.216c1.086,0.853,2.035,1.849,2.933,2.862c0.001-1.908,0.215-3.567,0.648-5.041
						c0.474-1.611,1.476-3.87,3.557-5.487c0.589-0.458,1.11-0.731,1.642-0.861c0.729-0.181,1.459-0.064,1.998,0.32
						c0.896,0.634,1.196,1.893,0.822,3.451c-0.457,1.904-1.451,3.747-2.956,5.476c-0.936,1.074-2.069,2.107-3.513,3.196
						c2.01-0.016,3.988-0.383,5.828-1.184c1.2-0.524,2.118-1.129,2.806-1.85c0.808-0.848,1.284-1.864,1.34-2.863
						c0.061-1.077-0.411-2.132-1.201-2.688c-0.227-0.159-0.28-0.471-0.122-0.696c0.159-0.227,0.473-0.28,0.696-0.122
						c1.067,0.75,1.705,2.148,1.625,3.562c-0.068,1.236-0.643,2.479-1.614,3.498c-0.782,0.818-1.805,1.497-3.129,2.075
						c-2.387,1.041-5.014,1.453-7.599,1.192c-0.07,0.044-0.154,0.071-0.243,0.075C545.66,415.745,544.746,415.785,543.827,415.785z
						 M537.44,409.554c-0.544,0-1.34,0.107-1.739,0.673c-0.301,0.426-0.307,1.093-0.017,1.659c0.258,0.504,0.725,0.959,1.427,1.392
						c1.209,0.744,2.725,1.217,4.503,1.404c1.313,0.139,2.663,0.116,3.989,0.063c-0.981-1.126-2.008-2.249-3.18-3.169
						c-1.508-1.184-3.105-1.877-4.62-2.007C537.708,409.562,537.583,409.554,537.44,409.554z M552.485,403.18
						c-0.14,0-0.283,0.018-0.427,0.053c-0.39,0.096-0.792,0.312-1.267,0.68c-1.46,1.135-2.6,2.902-3.211,4.979
						c-0.464,1.578-0.657,3.323-0.599,5.448c1.673-1.209,2.937-2.326,3.948-3.487c1.397-1.606,2.318-3.307,2.737-5.053
						c0.102-0.422,0.369-1.838-0.428-2.402C553.039,403.255,552.772,403.18,552.485,403.18z"/>
				</g>
			</g>
			<g>
				<path style="fill:#FFBD29;" d="M468.139,444.403h-33.057l-8.73,7.189c0,0-25.868-0.681-25.868,16.961h67.655V444.403z"/>
				<polygon style="fill:#F2E9DA;" points="465.028,432.131 438.028,437.252 438.844,444.403 465.028,444.403 				"/>
				<g>
					<path style="fill:#25292B;" d="M466.677,466.826h-65.258c-0.276,0-0.5-0.224-0.5-0.5s0.224-0.5,0.5-0.5h65.258
						c0.276,0,0.5,0.224,0.5,0.5S466.953,466.826,466.677,466.826z"/>
				</g>
				<g>
					<path style="fill:#25292B;" d="M442.526,458.52c-0.147,0-0.293-0.065-0.392-0.189c-4.057-5.121-15.711-6.229-15.828-6.24
						c-0.275-0.025-0.478-0.268-0.453-0.543s0.27-0.476,0.543-0.453c0.496,0.045,12.199,1.157,16.521,6.615
						c0.172,0.217,0.136,0.531-0.081,0.702C442.745,458.484,442.636,458.52,442.526,458.52z"/>
				</g>
				<g>
					<path style="fill:#25292B;" d="M443.767,455.185c-1.055,0-2.177-0.229-3.42-0.696c-2.47-0.927-4.666-2.49-6.353-4.521
						c-0.031-0.038-0.057-0.079-0.075-0.123l-0.082,0.093l0.082-0.093c-0.001-0.001-0.001-0.003-0.002-0.004l-0.084,0.093
						c-1.234-1.098-2.512-2.232-3.598-3.534c-1.242-1.489-2.068-3.017-2.455-4.539c-0.249-0.979-0.262-1.807-0.042-2.528
						c0.298-0.972,1.06-1.706,1.941-1.871c0.962-0.186,2.021,0.301,2.905,1.319c1.125,1.298,1.87,3.089,2.152,5.18
						c0.186,1.364,0.173,2.74,0.111,4.095c1.333-1.377,2.617-2.396,3.976-3.164c1.462-0.826,3.757-1.75,6.374-1.46
						c0.74,0.082,1.306,0.249,1.778,0.525c0.647,0.379,1.09,0.97,1.211,1.62c0.201,1.08-0.46,2.191-1.814,3.05
						c-1.656,1.05-3.653,1.68-5.935,1.87c-1.423,0.118-2.954,0.071-4.746-0.153c1.42,1.407,3.129,2.506,5.006,3.211
						c1.224,0.459,2.298,0.66,3.302,0.627c1.17-0.045,2.22-0.443,2.955-1.121c0.794-0.731,1.189-1.817,1.01-2.767
						c-0.052-0.271,0.127-0.532,0.398-0.584c0.265-0.049,0.532,0.126,0.584,0.398c0.243,1.28-0.272,2.728-1.314,3.688
						c-0.91,0.839-2.188,1.331-3.595,1.386C443.948,455.183,443.857,455.185,443.767,455.185z M435.093,449.252
						c2.039,0.298,3.725,0.376,5.262,0.247c2.12-0.178,3.965-0.756,5.483-1.718c0.365-0.232,1.545-1.063,1.367-2.022
						c-0.067-0.359-0.342-0.711-0.733-0.94c-0.348-0.204-0.787-0.329-1.383-0.395c-1.838-0.209-3.887,0.271-5.772,1.337
						C437.885,446.568,436.531,447.687,435.093,449.252z M430.092,438.422c-0.075,0-0.151,0.006-0.229,0.021
						c-0.512,0.097-0.981,0.57-1.168,1.181c-0.166,0.542-0.148,1.193,0.054,1.99c0.351,1.376,1.108,2.771,2.254,4.145
						c0.846,1.013,1.829,1.937,2.817,2.823c0.081-1.492,0.127-3.015-0.073-4.487c-0.257-1.898-0.92-3.509-1.918-4.658
						C431.551,439.114,430.86,438.422,430.092,438.422z"/>
				</g>
			</g>
			<g>
				<path style="fill:#25292B;" d="M559.631,381.808l-19.353,24.853c-5.071-4.245-49.968-42.365-64.126-73.818
					c-5.274-11.713-8.897-28.539-11.38-45.322c-2.446-16.561-3.777-33.086-4.479-44.614c2.742,0.216,5.644,0.333,8.687,0.308
					c8.681-0.043,18.527-1.164,29.254-4.122c1.232-0.339,2.477-0.702,3.734-1.091c0.622-0.191,1.251-0.394,1.879-0.598
					c2.181-0.715,4.393-1.503,6.642-2.378c1.004,3.056,1.848,6.278,2.36,9.525c2.341,14.923,1.503,71.095,1.503,71.095
					C522.065,332.769,543.303,368.136,559.631,381.808z"/>
			</g>
			<path style="fill:#25292B;" d="M468.139,431.541l-34.82,6.603c-14.122-74.477-12.353-138.055-8.65-177.149v-0.018
				c0.986-9.895,2.619-18.638,4.448-26.062c0.043,0.025,0.277,0.154,0.696,0.364c1.386,0.684,4.812,2.249,9.944,3.814
				c5.2,1.583,12.15,3.161,20.536,3.814c0.702,11.528,3.307,36.045,5.754,52.606C464.333,328.519,457.048,373.034,468.139,431.541z"
				/>
			<g>
				<path style="fill:#F6EFE0;" d="M466.045,296.013c-0.246,0-0.461-0.183-0.494-0.434l-5.709-42.556l-22.319-5.231
					c-0.269-0.063-0.436-0.332-0.372-0.601c0.063-0.268,0.33-0.436,0.601-0.373l22.991,5.388l0.045,0.342l5.754,42.897
					c0.037,0.273-0.155,0.525-0.429,0.562C466.09,296.012,466.067,296.013,466.045,296.013z"/>
			</g>
			<g>
				<path style="fill:#F6EFE0;" d="M547.769,393.315c-0.145,0-0.289-0.063-0.388-0.184c-1.863-2.285-45.678-56.151-49.769-72.854
					c-4.074-16.636-7.717-74.006-7.753-74.583c-0.018-0.275,0.192-0.513,0.468-0.53c0.295-0.007,0.514,0.193,0.53,0.468
					c0.036,0.577,3.673,57.858,7.726,74.408c4.038,16.485,49.118,71.902,49.573,72.46c0.174,0.215,0.143,0.529-0.071,0.704
					C547.992,393.278,547.88,393.315,547.769,393.315z"/>
			</g>
		</g>
		<g>
			<path style="fill:#F2E9DA;" d="M474.035,222.085c0.24,8.768,0.628,15.625,1.054,20.917c-2.095,0.136-4.134,0.203-6.112,0.21
				c-3.044,0.025-5.946-0.092-8.687-0.308c-8.231-0.641-15.083-2.175-20.252-3.728c3.746-32.938,16.21-105.358,16.506-107.07
				c0-0.006,0-0.006,0-0.012l0.006-0.012l24.83-0.006C481.379,132.075,473.259,193.694,474.035,222.085z"/>
			<path style="fill:#FFBD29;" d="M501.089,215.191c0,0,5.761,8.835,9.396,19.833c0,0,3.549,8.195,7.603,21.657
				c0,0-8.164,14.805-15.07,15.797c-6.913,0.986-25.859-13.623-25.859-13.623s-1.121-4.005-2.07-15.853
				c-0.425-5.293-0.813-12.15-1.054-20.917c-0.776-28.391,7.344-90.01,7.344-90.01h7.554c11.294,0,21.207,7.529,24.238,18.416
				l10.431,39.062c3.592,12.896-5.946,25.28-18.669,25.834C503.683,215.437,502.395,215.376,501.089,215.191z"/>
			<g>
				<path style="fill:#25292B;" d="M502.592,255.854c-0.122,0-0.244-0.044-0.34-0.133c-8.645-8.013-15.028-18.208-18.461-29.484
					c-0.08-0.264,0.068-0.543,0.333-0.624c0.268-0.081,0.544,0.069,0.624,0.333c3.381,11.107,9.669,21.149,18.184,29.041
					c0.202,0.188,0.215,0.505,0.027,0.707C502.86,255.8,502.726,255.854,502.592,255.854z"/>
			</g>
		</g>
		<path style="fill:#FFBD29;" d="M456.549,132.082l-0.006,0.012c0,0.006,0,0.006,0,0.012c-0.296,1.713-12.76,74.132-16.506,107.07
			c-0.715,6.254-1.109,11.084-1.054,13.74c0,0-7.874,15.286-15.44,13.358c-4.19-1.066,1.091-19.359,6.636-35.477
			c0-0.012,0.006-0.018,0.006-0.025c1.072-3.962,2.187-7.48,3.241-10.53c3.019-8.669,5.619-13.555,5.866-14.005
			c0.006-0.019,0.012-0.031,0.012-0.031l-1.836-13.807h-25.563l17.455-44.367c3.783-9.624,13.074-15.951,23.413-15.951H456.549z"/>
		<g>
			<path style="fill:#25292B;" d="M533.863,108.718c-1.269,6.611-6.74,11.78-12.994,13.807c-7.135,2.317-15.126,1.054-21.737-2.274
				c-2.779-1.399-5.354-3.179-7.64-5.274c-2.002-1.546-3.851-3.302-5.49-5.249c-2.298-2.736-4.183-5.816-5.588-9.1
				c-1.534-3.598-2.631-7.56-2.545-11.497c0.08-3.456,1.22-6.999,3.721-9.482c2.397-2.378,5.989-3.512,9.273-2.477
				c3.148,0.992,4.818,3.869,6.488,6.494c0.893,1.405,1.855,2.773,3.167,3.826c1.343,1.078,2.939,1.818,4.59,2.304
				c6.845,2.027,14.405,0.031,21.022,3.056C532.076,95.57,535.076,102.415,533.863,108.718z"/>
			<path style="fill:#25292B;" d="M488.959,96.53c0,12.234-9.918,22.152-22.152,22.152c-12.234,0-25.737-17.585-25.737-29.819
				s13.502-14.485,25.737-14.485C479.041,74.378,488.959,84.295,488.959,96.53z"/>
			<path style="fill:#F2E9DA;" d="M488.72,107.359c-1.3,4.091-4.042,6.531-7.862,5.792l0.524,18.927l-4.073,3.419
				c-6.506,5.465-16.352,3.845-20.763-3.413l1.232-6.697l-3.007-2.409c-5.021-4.029-7.942-10.104-7.942-16.543v-10.32
				c9.846,2.421,16.506-0.259,20.418-3.025c2.964-2.089,4.35-4.227,4.35-4.227l1.725,3.013l4.091,7.147v0.049l0.018-0.019
				c1.337-1.312,3.05-2.132,4.843-2.292c0.93-0.086,1.879,0.012,2.81,0.308C489.139,98.357,490.113,102.978,488.72,107.359z"/>
			<g>
				<path style="fill:#25292B;" d="M462.125,127.518c-1.57,0-3.141-0.525-4.453-1.576l-0.208-0.169
					c-0.215-0.174-0.247-0.489-0.072-0.704c0.175-0.214,0.49-0.245,0.703-0.072l0.205,0.167c2.253,1.804,5.398,1.804,7.647-0.002
					l3.993-3.2c0.215-0.171,0.529-0.138,0.703,0.078c0.172,0.215,0.138,0.53-0.078,0.703l-3.992,3.199
					C465.265,126.992,463.695,127.518,462.125,127.518z"/>
			</g>
			<g>
				<path style="fill:#25292B;" d="M482.235,111.594c-0.249,0-0.465-0.187-0.495-0.44c-0.033-0.274,0.162-0.523,0.437-0.556
					c1.479-0.178,2.807-1.416,3.087-2.878c0.143-0.745,0.025-1.506-0.321-2.088c-0.365-0.614-0.997-1.032-1.647-1.09
					c-0.67-0.066-1.342,0.277-1.642,0.824c-0.114,0.208-0.36,0.306-0.584,0.238c-0.227-0.069-0.374-0.288-0.353-0.523
					c0.143-1.579,0.388-3.235,1.208-4.647c0.409-0.704,0.904-1.235,1.472-1.579c0.719-0.435,1.544-0.554,2.263-0.326
					c0.838,0.266,1.458,1.024,1.508,1.844c0.017,0.275-0.193,0.513-0.469,0.529c-0.272,0.015-0.513-0.193-0.529-0.469
					c-0.025-0.41-0.366-0.811-0.813-0.952c-0.436-0.139-0.977-0.054-1.442,0.229c-0.422,0.256-0.801,0.668-1.124,1.226
					c-0.505,0.869-0.766,1.877-0.922,2.905c0.456-0.234,0.985-0.345,1.517-0.295c0.964,0.087,1.89,0.69,2.417,1.575
					c0.471,0.789,0.633,1.805,0.444,2.788c-0.365,1.902-2.026,3.451-3.95,3.683C482.275,111.593,482.256,111.594,482.235,111.594z"
					/>
			</g>
			<ellipse style="fill:#25292B;" cx="450.875" cy="103.634" rx="2.092" ry="2.315"/>
			<ellipse style="fill:#25292B;" cx="463.595" cy="103.634" rx="2.092" ry="2.315"/>
			<path style="fill:#25292B;" d="M452.61,98.225c-1.59-0.505-3.379-0.223-4.673,0.86c-0.257,0.215-0.368,0.612-0.142,0.897
				c0.204,0.257,0.622,0.372,0.897,0.142c0.127-0.106,0.259-0.207,0.398-0.297c0.068-0.044,0.137-0.086,0.207-0.127
				c0.008-0.004,0.016-0.009,0.024-0.013c0.037-0.019,0.074-0.037,0.111-0.055c0.149-0.071,0.303-0.134,0.46-0.188
				c0.078-0.027,0.158-0.051,0.237-0.074c0.014-0.004,0.028-0.008,0.038-0.011c0.044-0.01,0.088-0.02,0.133-0.029
				c0.163-0.032,0.327-0.055,0.492-0.068c0.083-0.007,0.165-0.011,0.248-0.013c0.041-0.001,0.083-0.001,0.124-0.001
				c0.002,0,0.001,0,0.002,0c0.005,0,0.002,0,0.012,0.001c0.165,0.01,0.33,0.026,0.493,0.053c0.082,0.014,0.163,0.03,0.243,0.049
				c0.04,0.009,0.08,0.02,0.121,0.03c0.011,0.003,0.016,0.004,0.021,0.005c0.008,0.003,0.012,0.004,0.023,0.007
				c0.319,0.101,0.711,0.029,0.85-0.319C453.046,98.784,452.952,98.334,452.61,98.225z"/>
			<path style="fill:#25292B;" d="M461.55,99.075c0.139,0.348,0.532,0.421,0.85,0.319c0.01-0.003,0.015-0.005,0.023-0.007
				c0.005-0.001,0.01-0.002,0.021-0.005c0.04-0.01,0.08-0.021,0.121-0.03c0.081-0.019,0.162-0.035,0.243-0.049
				c0.164-0.028,0.328-0.043,0.493-0.053c0.01-0.001,0.007-0.001,0.012-0.001c0.002,0,0,0,0.002,0c0.041,0,0.083,0,0.124,0.001
				c0.083,0.002,0.166,0.006,0.248,0.013c0.165,0.013,0.33,0.036,0.492,0.068c0.044,0.009,0.089,0.018,0.133,0.029
				c0.01,0.003,0.024,0.006,0.038,0.011c0.08,0.023,0.159,0.047,0.237,0.074c0.157,0.054,0.31,0.116,0.46,0.188
				c0.037,0.018,0.074,0.036,0.111,0.055c0.008,0.004,0.016,0.009,0.024,0.013c0.07,0.041,0.139,0.083,0.207,0.127
				c0.139,0.091,0.271,0.191,0.398,0.297c0.275,0.23,0.693,0.115,0.897-0.142c0.226-0.284,0.115-0.681-0.142-0.897
				c-1.294-1.084-3.083-1.366-4.673-0.86C461.527,98.334,461.433,98.784,461.55,99.075z"/>
			<g>
				<path style="fill:#25292B;" d="M452.977,113.599c-0.13,0-0.256-0.05-0.35-0.143c-0.12-0.118-0.173-0.288-0.142-0.453
					l2.054-10.531c0.053-0.272,0.316-0.448,0.587-0.395c0.271,0.053,0.448,0.315,0.396,0.586l-1.909,9.787l5.061-1.09
					c0.273-0.057,0.536,0.113,0.595,0.383c0.058,0.27-0.114,0.536-0.384,0.594l-5.802,1.25
					C453.047,113.595,453.012,113.599,452.977,113.599z"/>
			</g>
			<g>
				<path style="fill:#25292B;" d="M459.933,116.582c-0.206,0-0.398-0.128-0.471-0.333c-0.093-0.26,0.043-0.546,0.304-0.639
					c2.043-0.726,3.55-2.745,3.666-4.91c0.014-0.275,0.262-0.487,0.525-0.473c0.276,0.015,0.487,0.25,0.473,0.526
					c-0.137,2.557-1.917,4.941-4.33,5.799C460.045,116.572,459.988,116.582,459.933,116.582z"/>
			</g>
			<g>
				<path style="fill:#25292B;" d="M468.074,139.243c-8.473,0-11.943-6.869-11.978-6.938c-0.121-0.248-0.02-0.546,0.229-0.668
					c0.249-0.121,0.547-0.02,0.669,0.227c0.129,0.261,3.245,6.38,11.08,6.38c7.902,0,12.857-6.404,12.906-6.469
					c0.168-0.221,0.482-0.262,0.7-0.096c0.22,0.167,0.264,0.48,0.097,0.7C481.565,132.658,476.484,139.243,468.074,139.243z"/>
			</g>
		</g>
		<g>
			<g>
				<path style="fill:#FFA727;" d="M454.107,214.798l1.352,17.791l-13.926-9.62c-9.414,4.094-20.271,5.021-30.883,1.86
					c-23.902-7.121-37.507-32.27-30.386-56.172c7.121-23.902,32.27-37.507,56.172-30.386c23.902,7.121,37.507,32.27,30.386,56.172
					C464.41,202.541,459.923,209.464,454.107,214.798z"/>
			</g>
			<g>
				<g>
					<path style="fill:#25292B;" d="M455.459,233.088c-0.1,0-0.199-0.03-0.284-0.088l-13.698-9.463
						c-2.17,0.928-4.425,1.692-6.705,2.272c-0.271,0.07-0.54-0.094-0.607-0.361c-0.068-0.268,0.094-0.54,0.361-0.608
						c2.317-0.59,4.608-1.375,6.809-2.331c0.157-0.069,0.341-0.052,0.483,0.047l13.063,9.025l-1.272-16.746
						c-0.011-0.153,0.048-0.303,0.161-0.407c5.921-5.431,10.269-12.392,12.574-20.13c6.257-21.004-3.96-43.855-23.765-53.155
						c-0.25-0.117-0.357-0.415-0.239-0.665c0.117-0.25,0.413-0.358,0.665-0.24c20.248,9.508,30.694,32.872,24.298,54.346
						c-2.334,7.833-6.716,14.888-12.679,20.417l1.334,17.549c0.014,0.192-0.083,0.376-0.25,0.472
						C455.631,233.066,455.545,233.088,455.459,233.088z"/>
				</g>
			</g>
			<g>
				<g>
					<path style="fill:#25292B;" d="M377.332,167.623c-0.05,0-0.1-0.007-0.149-0.023c-0.264-0.083-0.41-0.363-0.328-0.627
						c3.691-11.758,11.935-22.028,22.617-28.175c0.236-0.137,0.544-0.056,0.683,0.184c0.138,0.239,0.055,0.545-0.185,0.683
						c-10.467,6.023-18.544,16.086-22.161,27.608C377.742,167.486,377.545,167.623,377.332,167.623z"/>
				</g>
				<g>
					<path style="fill:#25292B;" d="M374.388,166.753c-0.033,0-0.067-0.003-0.102-0.01c-0.271-0.055-0.444-0.319-0.39-0.59
						c0.751-3.669,2.24-7.261,4.306-10.387c0.151-0.231,0.462-0.294,0.692-0.141c0.23,0.152,0.294,0.462,0.142,0.693
						c-1.996,3.02-3.435,6.49-4.159,10.035C374.828,166.59,374.62,166.753,374.388,166.753z"/>
				</g>
			</g>
			<g>
				<g>
					<path style="fill:#25292B;" d="M391.211,186.144c-3.454,0-6.265-2.811-6.265-6.265c0-3.455,2.811-6.265,6.265-6.265
						c3.455,0,6.266,2.811,6.266,6.265C397.477,183.333,394.666,186.144,391.211,186.144z M391.211,174.614
						c-2.903,0-5.265,2.362-5.265,5.265c0,2.903,2.361,5.265,5.265,5.265s5.266-2.362,5.266-5.265
						C396.477,176.976,394.114,174.614,391.211,174.614z"/>
				</g>
				<g>
					<path style="fill:#25292B;" d="M412.733,186.144c-3.454,0-6.265-2.811-6.265-6.265c0-3.455,2.811-6.265,6.265-6.265
						c3.455,0,6.266,2.811,6.266,6.265C418.999,183.333,416.188,186.144,412.733,186.144z M412.733,174.614
						c-2.903,0-5.265,2.362-5.265,5.265c0,2.903,2.361,5.265,5.265,5.265s5.266-2.362,5.266-5.265
						C417.999,176.976,415.637,174.614,412.733,174.614z"/>
				</g>
				<g>
					<path style="fill:#25292B;" d="M433.22,186.144c-3.454,0-6.265-2.811-6.265-6.265c0-3.455,2.811-6.265,6.265-6.265
						s6.265,2.811,6.265,6.265C439.484,183.333,436.674,186.144,433.22,186.144z M433.22,174.614c-2.903,0-5.265,2.362-5.265,5.265
						c0,2.903,2.361,5.265,5.265,5.265s5.265-2.362,5.265-5.265C438.484,176.976,436.123,174.614,433.22,174.614z"/>
				</g>
			</g>
		</g>
		<g>
			<g>
				<path style="fill:#F2E9DA;" d="M378.05,170.372c0.716,0.091,1.332,0.466,1.742,0.999c0.41,0.534,0.622,1.22,0.53,1.937
					l-0.782,6.133c-0.183,1.432-1.503,2.454-2.936,2.272c-0.712-0.091-1.328-0.465-1.738-0.999c-0.413-0.534-0.622-1.22-0.53-1.937
					l0.782-6.133C375.301,171.211,376.622,170.19,378.05,170.372z"/>
			</g>
			<g>
				<path style="fill:#F2E9DA;" d="M386.055,192.529c0.188,0.583,0.123,1.191-0.138,1.698c-0.262,0.507-0.713,0.918-1.296,1.106
					l-4.991,1.614c-1.166,0.377-2.427-0.268-2.804-1.434c-0.187-0.58-0.122-1.188,0.139-1.695c0.261-0.51,0.713-0.918,1.295-1.106
					l4.991-1.614C384.417,190.721,385.679,191.366,386.055,192.529z"/>
			</g>
			<g>
				<path style="fill:#F2E9DA;" d="M385.32,187.639c0.221,0.683,0.144,1.4-0.164,1.998c-0.307,0.601-0.84,1.082-1.527,1.304
					l-5.882,1.902c-1.374,0.444-2.861-0.316-3.304-1.687c-0.222-0.687-0.144-1.4,0.163-2.001c0.309-0.598,0.841-1.078,1.528-1.3
					l5.882-1.902C383.39,185.508,384.876,186.265,385.32,187.639z"/>
			</g>
			<g>
				<path style="fill:#F2E9DA;" d="M383.706,182.647c0.222,0.687,0.144,1.4-0.163,2.001c-0.307,0.601-0.84,1.082-1.527,1.304
					l-5.882,1.902c-1.374,0.444-2.861-0.316-3.305-1.69c-0.222-0.687-0.144-1.4,0.164-1.998c0.309-0.598,0.84-1.082,1.527-1.304
					l5.882-1.902C381.776,180.516,383.263,181.277,383.706,182.647z"/>
			</g>
			<g>
				<path style="fill:#F2E9DA;" d="M382.028,177.68c0.222,0.687,0.101,1.414-0.278,2.034c-0.379,0.621-1.007,1.136-1.8,1.392
					l-5.042,1.63c-1.587,0.513-3.248-0.191-3.691-1.561c-0.222-0.687-0.101-1.414,0.277-2.038c0.378-0.624,1.007-1.136,1.8-1.392
					l5.042-1.63C379.923,175.602,381.584,176.306,382.028,177.68z"/>
			</g>
			<g>
				<path style="fill:#25292B;" d="M374.519,177.85c-0.216,0-0.414-0.14-0.479-0.357c-0.078-0.265,0.072-0.543,0.337-0.622
					l5.362-1.597c0.268-0.08,0.542,0.072,0.622,0.336c0.078,0.265-0.072,0.543-0.337,0.622l-5.362,1.597
					C374.613,177.843,374.565,177.85,374.519,177.85z"/>
			</g>
			<g>
				<path style="fill:#25292B;" d="M374.52,183.362c-0.211,0-0.407-0.135-0.476-0.346c-0.085-0.263,0.059-0.544,0.322-0.629
					l5.883-1.902c0.262-0.085,0.544,0.06,0.629,0.322c0.085,0.263-0.059,0.544-0.322,0.629l-5.883,1.902
					C374.622,183.354,374.57,183.362,374.52,183.362z"/>
			</g>
			<g>
				<path style="fill:#25292B;" d="M376.134,188.354c-0.211,0-0.407-0.135-0.476-0.346c-0.085-0.263,0.059-0.544,0.321-0.629
					l5.882-1.902c0.268-0.084,0.545,0.06,0.63,0.322c0.085,0.263-0.059,0.544-0.321,0.629l-5.882,1.902
					C376.236,188.346,376.185,188.354,376.134,188.354z"/>
			</g>
			<g>
				<path style="fill:#25292B;" d="M377.329,193.437c-0.211,0-0.406-0.134-0.476-0.345c-0.085-0.262,0.058-0.544,0.32-0.63
					l6.794-2.215c0.268-0.085,0.545,0.058,0.631,0.321c0.085,0.262-0.058,0.544-0.32,0.63l-6.794,2.215
					C377.433,193.429,377.38,193.437,377.329,193.437z"/>
			</g>
		</g>
		<g>
			<polygon style="fill:#FFBD29;" points="493.431,186.338 460.265,181.199 454.639,208.555 490.474,213.675 			"/>
			<g>
				<g>
					<path style="fill:#F2E9DA;" d="M459.476,185.025l-4.017,19.55c-0.628,0.08-1.269,0.105-1.922,0.062l-24.263-1.553
						c-1.466-0.092-2.588-1.368-2.495-2.834c0.043-0.733,0.388-1.38,0.906-1.83c0.173-0.154,0.364-0.29,0.579-0.388l-2.201-0.184
						c-1.466-0.092-2.588-1.368-2.495-2.834c0.049-0.727,0.394-1.374,0.906-1.83c0.511-0.45,0.833-0.691,1.566-0.647
						c-1.46-0.092-2.588-1.362-2.489-2.828c0.043-0.733,0.388-1.38,0.9-1.836c0.511-0.45,1.195-0.709,1.935-0.659
						c-1.466-0.092-2.588-1.368-2.495-2.834c0.043-0.733,0.388-1.38,0.906-1.83c0.505-0.456,1.195-0.715,1.928-0.665l19.026,1.214
						l-5.225-4.165c-1.479-1.177-1.719-3.346-0.542-4.818c0.727-0.912,1.824-1.355,2.908-1.282c0.678,0.043,1.343,0.283,1.91,0.733
						l5.995,4.781l0.043,0.037L459.476,185.025z"/>
				</g>
			</g>
			<g>
				<path style="fill:#25292B;" d="M501.09,215.691c-0.023,0-0.048-0.001-0.071-0.005l-46.449-6.636
					c-0.137-0.02-0.26-0.095-0.339-0.208s-0.108-0.253-0.08-0.388l5.625-27.356c0.054-0.262,0.315-0.431,0.565-0.393l32.411,5.021
					l-7.001-26.494c-0.07-0.267,0.089-0.541,0.355-0.611c0.271-0.069,0.541,0.089,0.611,0.355l7.196,27.233
					c0.043,0.163,0.001,0.337-0.112,0.462c-0.111,0.125-0.282,0.185-0.447,0.16l-32.696-5.066l-5.422,26.369l45.923,6.561
					c0.273,0.039,0.464,0.292,0.425,0.566C501.548,215.511,501.334,215.691,501.09,215.691z"/>
			</g>
			<g>
				<path style="fill:#25292B;" d="M438.622,188.455c-0.01,0-0.021,0-0.032-0.001l-12.498-0.797
					c-0.275-0.018-0.484-0.255-0.467-0.531c0.018-0.274,0.203-0.478,0.531-0.467l12.498,0.797c0.275,0.018,0.484,0.255,0.467,0.531
					C439.104,188.251,438.884,188.455,438.622,188.455z"/>
			</g>
			<g>
				<path style="fill:#25292B;" d="M438.276,193.871c-0.01,0-0.021,0-0.032-0.001l-12.498-0.797
					c-0.275-0.018-0.484-0.255-0.467-0.531c0.018-0.274,0.21-0.478,0.531-0.467l12.498,0.797c0.275,0.018,0.484,0.255,0.467,0.531
					C438.759,193.667,438.538,193.871,438.276,193.871z"/>
			</g>
			<g>
				<path style="fill:#25292B;" d="M438.529,199.146c-0.01,0-0.021,0-0.032-0.001l-10.302-0.657
					c-0.275-0.018-0.484-0.255-0.467-0.531c0.018-0.274,0.204-0.477,0.531-0.467l10.302,0.657c0.275,0.018,0.484,0.255,0.467,0.531
					C439.012,198.943,438.791,199.146,438.529,199.146z"/>
			</g>
		</g>
	</g>
	<g>
		<g>
			<g>
				<path style="fill:#25292B;" d="M537.502,324.139L537.502,324.139c-0.179,0-0.344-0.096-0.433-0.25l-4.717-8.165
					c-0.09-0.154-0.09-0.346,0-0.5l4.717-8.164c0.089-0.154,0.254-0.25,0.433-0.25l0,0c0.179,0,0.344,0.095,0.433,0.249l4.728,8.164
					c0.09,0.155,0.09,0.347,0,0.502l-4.728,8.165C537.846,324.044,537.681,324.139,537.502,324.139z M533.362,315.474l4.141,7.166
					l4.148-7.166l-4.148-7.165L533.362,315.474z"/>
			</g>
			<g>
				<path style="fill:#25292B;" d="M524.386,314.356c-1.57,0-2.849-1.278-2.849-2.849s1.278-2.848,2.849-2.848
					s2.848,1.277,2.848,2.848S525.956,314.356,524.386,314.356z M524.386,309.66c-1.02,0-1.849,0.829-1.849,1.848
					c0,1.02,0.829,1.849,1.849,1.849c1.019,0,1.848-0.829,1.848-1.849C526.233,310.489,525.404,309.66,524.386,309.66z"/>
			</g>
			<g>
				<path style="fill:#25292B;" d="M532.785,303.88c-1.372,0-2.488-1.116-2.488-2.488c0-1.371,1.116-2.487,2.488-2.487
					s2.488,1.116,2.488,2.487C535.273,302.764,534.157,303.88,532.785,303.88z M532.785,299.904c-0.82,0-1.488,0.667-1.488,1.487
					s0.668,1.488,1.488,1.488s1.488-0.668,1.488-1.488S533.605,299.904,532.785,299.904z"/>
			</g>
			<g>
				<path style="fill:#25292B;" d="M522.037,305.025c-1.016,0-1.842-0.826-1.842-1.842s0.826-1.843,1.842-1.843
					s1.842,0.827,1.842,1.843S523.053,305.025,522.037,305.025z M522.037,302.341c-0.464,0-0.842,0.378-0.842,0.843
					c0,0.464,0.378,0.842,0.842,0.842s0.842-0.378,0.842-0.842C522.879,302.719,522.501,302.341,522.037,302.341z"/>
			</g>
			<g>
				<path style="fill:#25292B;" d="M435.662,74.877L435.662,74.877c-0.179,0-0.344-0.095-0.433-0.25l-3.608-6.247
					c-0.09-0.155-0.09-0.345,0-0.5l3.608-6.247c0.089-0.155,0.254-0.25,0.433-0.25l0,0c0.179,0,0.344,0.095,0.433,0.25l3.617,6.247
					c0.09,0.155,0.09,0.346,0,0.501l-3.617,6.247C436.006,74.782,435.841,74.877,435.662,74.877z M432.631,68.13l3.032,5.249
					l3.038-5.249l-3.038-5.249L432.631,68.13z"/>
			</g>
			<g>
				<path style="fill:#25292B;" d="M427.124,65.499c-1.57,0-2.849-1.278-2.849-2.848c0-1.571,1.278-2.849,2.849-2.849
					s2.848,1.278,2.848,2.849C429.972,64.221,428.694,65.499,427.124,65.499z M427.124,60.802c-1.02,0-1.849,0.829-1.849,1.849
					c0,1.019,0.829,1.848,1.849,1.848c1.019,0,1.848-0.829,1.848-1.848C428.972,61.631,428.143,60.802,427.124,60.802z"/>
			</g>
			<g>
				<path style="fill:#25292B;" d="M435.523,58.454c-1.372,0-2.488-1.116-2.488-2.488c0-1.372,1.116-2.488,2.488-2.488
					s2.488,1.116,2.488,2.488C438.012,57.338,436.896,58.454,435.523,58.454z M435.523,54.478c-0.82,0-1.488,0.667-1.488,1.488
					c0,0.821,0.668,1.488,1.488,1.488s1.488-0.667,1.488-1.488C437.012,55.146,436.344,54.478,435.523,54.478z"/>
			</g>
			<g>
				<path style="fill:#25292B;" d="M427.124,55.82c-1.016,0-1.842-0.826-1.842-1.842s0.826-1.842,1.842-1.842
					s1.842,0.827,1.842,1.842S428.14,55.82,427.124,55.82z M427.124,53.136c-0.464,0-0.842,0.378-0.842,0.842
					s0.378,0.842,0.842,0.842s0.842-0.377,0.842-0.842S427.588,53.136,427.124,53.136z"/>
			</g>
			<g>
				<path style="fill:#25292B;" d="M111.241,301.734L111.241,301.734c-0.179,0-0.344-0.096-0.433-0.25l-4.717-8.165
					c-0.089-0.154-0.089-0.346,0-0.5l4.717-8.164c0.089-0.154,0.254-0.25,0.433-0.25l0,0c0.178,0,0.343,0.095,0.433,0.249
					l4.727,8.164c0.09,0.155,0.09,0.347,0,0.502l-4.727,8.165C111.584,301.64,111.419,301.734,111.241,301.734z M107.102,293.069
					l4.14,7.166l4.149-7.166l-4.149-7.165L107.102,293.069z"/>
			</g>
			<g>
				<path style="fill:#25292B;" d="M130.833,296.512c-1.571,0-2.849-1.277-2.849-2.848s1.278-2.849,2.849-2.849
					c1.57,0,2.848,1.278,2.848,2.849S132.403,296.512,130.833,296.512z M130.833,291.815c-1.02,0-1.849,0.829-1.849,1.849
					c0,1.019,0.829,1.848,1.849,1.848c1.019,0,1.848-0.829,1.848-1.848C132.681,292.645,131.852,291.815,130.833,291.815z"/>
			</g>
			<g>
				<path style="fill:#25292B;" d="M106.781,281.476c-1.372,0-2.488-1.116-2.488-2.487c0-1.372,1.116-2.488,2.488-2.488
					c1.372,0,2.488,1.116,2.488,2.488C109.27,280.359,108.153,281.476,106.781,281.476z M106.781,277.5
					c-0.82,0-1.488,0.668-1.488,1.488s0.667,1.487,1.488,1.487c0.821,0,1.488-0.667,1.488-1.487S107.602,277.5,106.781,277.5z"/>
			</g>
			<g>
				<path style="fill:#25292B;" d="M120.967,290.856c-1.016,0-1.842-0.826-1.842-1.842s0.826-1.842,1.842-1.842
					s1.842,0.826,1.842,1.842S121.983,290.856,120.967,290.856z M120.967,288.173c-0.464,0-0.842,0.378-0.842,0.842
					s0.377,0.842,0.842,0.842s0.842-0.378,0.842-0.842S121.432,288.173,120.967,288.173z"/>
			</g>
			<g>
				<path style="fill:#25292B;" d="M121.534,281.476L121.534,281.476c-0.179,0-0.344-0.096-0.433-0.25l-2.962-5.127
					c-0.089-0.154-0.089-0.346,0-0.5l2.962-5.128c0.089-0.154,0.254-0.25,0.433-0.25l0,0c0.178,0,0.343,0.095,0.433,0.249
					l2.969,5.128c0.09,0.155,0.09,0.347,0,0.502l-2.969,5.127C121.877,281.381,121.712,281.476,121.534,281.476z M119.149,275.849
					l2.385,4.128l2.391-4.128l-2.391-4.129L119.149,275.849z"/>
			</g>
			<g>
				<path style="fill:#25292B;" d="M95.891,300.674c-1.016,0-1.842-0.826-1.842-1.842s0.826-1.842,1.842-1.842
					s1.842,0.826,1.842,1.842S96.907,300.674,95.891,300.674z M95.891,297.99c-0.464,0-0.842,0.378-0.842,0.842
					s0.377,0.842,0.842,0.842s0.842-0.378,0.842-0.842S96.355,297.99,95.891,297.99z"/>
			</g>
		</g>
		<g>
			<path style="fill:#25292B;" d="M420.063,132.582c-0.276,0-0.5-0.224-0.5-0.5V79.237c0-6.205-5.048-11.252-11.253-11.252
				c-6.296,0-11.344,5.048-11.344,11.252v40.868c0,6.879-5.597,12.477-12.477,12.477s-12.477-5.597-12.477-12.477V38.816
				c0-6.205-5.048-11.253-11.252-11.253c-6.205,0-11.253,5.048-11.253,11.253V60.3c0,6.756-5.497,12.252-12.253,12.252h-11.917
				c-0.276,0-0.5-0.224-0.5-0.5s0.224-0.5,0.5-0.5h11.917c6.205,0,11.253-5.048,11.253-11.252V38.816
				c0-6.756,5.497-12.253,12.253-12.253s12.252,5.497,12.252,12.253v81.289c0,6.328,5.148,11.477,11.477,11.477
				s11.477-5.148,11.477-11.477V79.237c0-6.756,5.497-12.252,12.253-12.252c6.847,0,12.344,5.497,12.344,12.252v52.844
				C420.563,132.358,420.34,132.582,420.063,132.582z"/>
		</g>
		<g>
			<path style="fill:#25292B;" d="M608.873,469.219H85.523c-0.276,0-0.5-0.224-0.5-0.5s0.224-0.5,0.5-0.5h523.35
				c0.276,0,0.5,0.224,0.5,0.5S609.149,469.219,608.873,469.219z"/>
		</g>
	</g>
</g>
</svg>
