<?xml version="1.0" encoding="utf-8"?>
<!-- Generator: Adobe Illustrator 27.5.0, SVG Export Plug-In . SVG Version: 6.00 Build 0)  -->
<svg version="1.1" xmlns="http://www.w3.org/2000/svg" xmlns:xlink="http://www.w3.org/1999/xlink" x="0px" y="0px"
	 viewBox="0 0 500 500" style="enable-background:new 0 0 500 500;" xml:space="preserve">
<g id="BACKGROUND">
	<rect style="fill:#FFFFFF;" width="500" height="500"/>
</g>
<g id="OBJECTS">
	<g>
		<path style="fill:#F1EBFF;" d="M307.606,351.604c-35.632-41.501-93.838-62.067-147.464-52.104
			c-15.074,2.8-29.918,7.927-42.485,16.751c-12.567,8.824-22.739,21.576-26.764,36.445c-5.45,20.133,1.526,43.125,17.225,56.774
			c11.184,9.724,25.721,14.548,40.082,18.095c28.344,7,57.681,9.923,86.84,8.652c17.197-0.75,34.645-3.039,50.28-10.276
			c14.435-6.682,27.964-18.914,35.228-33.311C328.011,377.839,317.155,362.726,307.606,351.604z"/>
		<path style="fill:#F1EBFF;" d="M372.202,328.645c6.56-10.474,14.478-20.353,24.739-27.194c10.261-6.841,23.133-10.38,35.122-7.563
			c11.989,2.817,22.559,12.773,24.204,25.04c1.217,9.078-2.286,18.087-6.219,26.349c-9.239,19.409-21.824,38.025-40.047,49.312
			c-14.497,8.979-45.233,18.23-53.526-3.329C348.855,371.451,362.02,344.904,372.202,328.645z"/>
		<path style="fill:#F1EBFF;" d="M195.371,39.646c23.067-1.11,46.358-0.477,69.308,0.726c29.901,1.567,59.994,4.036,88.794,12.265
			c32.351,9.243,64.656,26.598,84.328,54.85c19.387,27.842,31.286,70.81,18.118,103.5c-8.959,22.241-28.671,38.053-48.26,51.765
			c-19.588,13.712-40.443,26.937-53.791,46.83c-2.531,3.772-4.806,7.8-8.13,10.889c-3.324,3.088-8.033,5.134-12.398,3.93
			c-3.346-0.923-5.925-3.551-8.23-6.158c-8.178-9.249-15.19-19.672-24.728-27.494c-17.935-14.707-42.18-18.287-65.128-21.324
			c-25.859-3.422-51.717-6.849-77.577-10.266c-20.413-2.698-44.531-5.888-63.428-14.213c-30.269-13.335-51.26-44.468-55.06-77.47
			c-4.561-39.607,14.301-88.498,51.674-105.312C123.701,47.39,159.261,41.383,195.371,39.646z"/>
	</g>
	<g>
		<path style="fill:none;stroke:#7A5CE0;stroke-linecap:round;stroke-linejoin:round;stroke-miterlimit:10;" d="M298.334,442.746
			h-18.409c-2.832,0-5.129-2.308-5.129-5.156V313.485c0-2.847-2.296-5.156-5.129-5.156h-72.996"/>
		<path style="fill:none;stroke:#7A5CE0;stroke-linecap:round;stroke-linejoin:round;stroke-miterlimit:10;" d="M303.843,426.133
			h-18.409c-2.832,0-5.129-2.308-5.129-5.156V302.913c0-2.847-2.296-5.156-5.129-5.156h-72.996"/>
		<path style="fill:none;stroke:#7A5CE0;stroke-linecap:round;stroke-linejoin:round;stroke-miterlimit:10;" d="M297.833,405.492
			h-24.24c-2.365,0-4.283-1.928-4.283-4.305V317.26c0-2.847-2.296-5.156-5.129-5.156h-89.544"/>
	</g>
	<g>
		<path style="fill:none;stroke:#000000;stroke-width:2;stroke-linecap:round;stroke-linejoin:round;stroke-miterlimit:10;" d="
			M215.354,450.514l17.896-128.998c0.034-0.424,0.646-0.446,0.71-0.025l19.51,129.023"/>
		
			<polyline style="fill:none;stroke:#000000;stroke-width:2;stroke-linecap:round;stroke-linejoin:round;stroke-miterlimit:10;" points="
			119.285,449.537 139.554,365.376 170.398,449.537 		"/>
		<g>
			<g>
				<g>
					<path style="fill:#7A5CE0;" d="M74.328,329.789c-0.199-0.55-0.413-1.092-0.594-1.653
						C73.915,328.697,74.114,329.247,74.328,329.789z"/>
					<path style="fill:#7A5CE0;" d="M80.685,284.533c2.351,5.551,4.969,10.979,7.548,16.424c2.732,5.769,5.515,11.44,8.966,16.82
						c7.109,11.085,16.102,20.895,26.078,29.43c10.749,9.197,23.107,16.311,35.759,22.501c0.104,0.051,0.21,0.098,0.314,0.149
						c-2.626,0.101-5.254,0.116-7.874,0.031c-5.242-0.171-10.448-0.823-15.61-1.761c4.59,1.204,9.24,2.106,14.107,2.265
						c7.979,0.26,16.028-0.325,23.865-1.869c7.775-1.532,15.607-4.014,22.24-8.478c3.004-2.022,5.753-4.497,7.858-7.466
						c1.131-1.596,2.049-3.315,2.759-5.118c-0.048-0.195-0.078-0.393-0.131-0.587c-3.832-14.056-16.046-15.887-26.984-22.129
						c-11.538-6.585-21.411-16.13-28.303-27.534c-6.393-10.577-10.148-22.43-15.258-33.628
						c-4.768-10.448-10.958-15.836-21.877-19.674c-8.1-2.847-17.047-4.799-25.179-2.047c-7.25,2.454-12.609,8.295-16.045,15.285
						C73.494,266.603,77.083,276.027,80.685,284.533z"/>
				</g>
				<path style="fill:#DACAFC;" d="M195.706,308.584c0.058-5.501-0.1-10.504,1.317-15.98c1.876-7.251,7.439-11.211,14.377-13.446
					c1.524-0.491,3.201-0.843,4.702-0.284c1.735,0.645,2.842,2.365,3.517,4.096c2.182,5.6,1.046,11.885-0.119,17.784
					c-2.608,13.208-5.217,26.416-7.825,39.624c-0.15,0.761-0.368,1.618-1.048,1.984c-0.522,0.281-1.157,0.179-1.737,0.063
					c-5.86-1.174-11.58-3.052-17-5.58C194.166,337.907,195.693,309.816,195.706,308.584z"/>
				<path style="fill:#DACAFC;" d="M209.931,386.586c4.338-1.228,6.509-1.617,10.702-3.282c0.007,19.186,2.688,51.537,2.6,57.059
					c-5.386,0.612-9.6,2.61-15.048,2.67c-4.272-6.651-6.014-25.475-8.428-32.751c-0.558-1.682-2.992-10.082-5.711-19.643
					C199.378,389.438,204.672,388.075,209.931,386.586z"/>
				<path d="M199.967,348.095c6.208,1.438,12.58,2.098,18.875,3.031c3.316,0.492,10.096,2.388,13.224,0.058
					c3.956-2.945-2.524-4.666-5.456-6.314c-5.049-2.837-10.17-5.541-15.26-8.301c-4.701-2.55-10.738-7.985-15.534-2.727
					c-3.084,3.382-3.437,8.778-3.788,13.115C194.719,347.052,197.324,347.483,199.967,348.095z"/>
				<path style="fill:#1C1C1B;" d="M99.541,325.596c2.871-9.112,15.865-11.201,23.887-10.554
					c16.691,1.345,33.433,1.756,50.033,3.121c13.522,1.112,28.24,4.052,37.538,14.89c7.599,8.857,8.825,21.046,10.976,32.146
					c3.984,20.553,5.098,39.823,4.634,60.647c-0.011,0.49-0.033,1.014-0.322,1.408c-0.378,0.515-1.079,0.639-1.709,0.724
					c-7.937,1.068-15.875,2.136-23.812,3.204c-0.471,0.063-0.983,0.118-1.39-0.128c-0.445-0.27-0.626-0.818-0.771-1.32
					c-1.239-4.287-17.611-69.876-16.456-70.061c-13.707,2.186-24.546,1.552-38.38,0.435c-9.776-0.789-19.723-2.487-28.253-7.354
					C107.272,348.048,96.22,336.138,99.541,325.596z"/>
				<path style="fill:#FF6363;" d="M95.561,322.031c0.985,1.485,0.909,2.836,1.401,3.644c2.511-0.034,5.028,0.005,7.539,0.044
					c6.58,0.101,13.22,0.195,19.694-1.172c5.63-1.189,11.229-2.913,16.653-4.828c8.374-2.957,16.227-5.042,15.611-15.352
					c-0.774-13.288-2.372-30.03,1.359-42.99c1.506-5.231,2.323-9.13,4.578-14.082c0.62-1.361,1.242-2.763,1.33-4.257
					c0.063-1.067-0.15-2.131-0.405-3.17c-4.166-17.006-18.31-17.212-33.316-18.546c-2.324-0.207-4.679-0.412-6.978-0.017
					c-2.836,0.488-6.146,1.329-8.613,2.816c-13.152,7.932-14.042,21.258-18.002,35.024c-1.977,6.876-5.076,13.385-7.06,20.26
					C85.118,294.085,87.081,309.245,95.561,322.031z"/>
				<path d="M226.925,440.165c1.614,0.907,4.029,1.449,5.759,1.973c4.472,1.354,9.106,2.118,13.517,3.682
					c2.313,0.821,4.522,3.728,2.006,5.789c-1.096,0.898-2.577,1.125-3.982,1.288c-11.191,1.3-22.504,0.667-33.752,0.033
					c-0.612-0.034-1.283-0.094-1.718-0.528c-0.247-0.247-0.382-0.582-0.507-0.91c-1.368-3.602-2.309-7.627-3.172-11.308
					c1.508-0.37,3.103,0.262,4.618,0.378c1.966,0.149,4.115,0.306,5.907-0.687c2.421-1.341,4.646-3.039,6.582-5.022
					c0.181-0.185,0.366-0.377,0.604-0.474c0.783-0.319,1.551,0.533,1.816,1.34c0.516,1.572,0.543,3.332,2.023,4.27
					C226.724,440.049,226.823,440.108,226.925,440.165z"/>
				<path style="fill:#1C1C1B;" d="M195.231,304.937c-0.134-1.868,0.009-3.601,1.745-4.258c2.395-0.906,3.204,0.375,4.735-2.12
					c2.949-4.807,5.043-10.813,7.039-16.082c2.405-6.35,6.94-14.636,6.702-21.459c-0.012-0.355-0.042-0.73-0.249-1.017
					c-0.241-0.334-0.664-0.471-1.061-0.576c-3.536-0.93-7.252-0.835-10.899-0.599c-24.048,1.554-37.474,27.765-48.849,45.716
					c-1.715,2.707-11.708,15.736-14.332,15.527c9.191,0.731,16.268,5.411,24.769,7.993c5.218,1.584,10.957,6.262,15.839,6.933
					c1.578,0.217,8.016-11.679,8.955-13.237c2.462-4.084,5.937-8.74,5.861-13.691C195.471,307.094,195.306,305.994,195.231,304.937z
					"/>
				<path style="fill:#1C1C1B;" d="M223.897,307.213c-0.545,4.065-1.168,7.98-2.18,11.951c-0.088,0.346-0.184,0.706-0.424,0.97
					c-0.381,0.419-1.014,0.48-1.579,0.448c-1.192-0.067-2.347-0.417-3.519-0.643c-7.3-1.405-19.441,3.53-25.059-3.311
					c-1.129-1.374-1.488-3.216-1.725-4.982c-1.716-12.761,2.341-25.229,2.168-38.05c-0.092-6.848,2.438-10.98,5.9-16.567
					c3.321-5.36,7.993-7.181,13.983-5.138c10.093,3.442,15.866,14.192,15.393,24.409
					C226.377,286.608,225.274,296.948,223.897,307.213z"/>
				<g id="XMLID_14_">
					<g id="XMLID_15_">
						<path id="XMLID_16_" style="fill:#DACAFC;" d="M129.957,208.093c-0.098,1.236,2.476,4.061,3.263,4.952
							c1.248,1.413,2.702,2.506,4.456,3.201c4.571,1.812,9.361,1.979,12.944-1.809c1.701-1.798,2.857-4.044,3.825-6.326
							c1.475-3.477,3.534-13.065,2.6-16.727c-0.848-3.323-4.393-0.427-7.62-1.542c-2.808-0.971-4.945-1.84-7.949-1.315
							c-2.67,0.467-5.244,1.801-6.922,3.979c-0.452,0.588-0.861,1.182-1.236,1.777c-0.888,1.896-1.706,3.828-2.297,5.84
							c-0.493,1.678-0.66,3.38-0.926,5.079C130.076,206.168,130.033,207.133,129.957,208.093z"/>
					</g>
				</g>
				<g id="XMLID_7_">
					<g id="XMLID_8_">
						<path style="fill:#DACAFC;" d="M128.055,230.191c2.656,1.871,5.939,3.108,9.169,3.37c0.621,0.051,8.51-0.835,7.38-2.334
							c-2.96-3.928-1.343-7.426,0.513-11.695c0.285-0.655,2.771-4.687,2.514-5.141c-0.073-0.129-0.163-0.249-0.277-0.359
							c-0.595-0.572-1.517-0.557-2.34-0.566c-3.08-0.035-5.962-1.011-8.464-2.805c-1.19-0.853-2.263-1.859-3.285-2.907
							c-0.585-0.6-1.659-2.689-2.553-2.763c-0.085-0.007-0.15,0.037-0.22,0.068c-1.05,4.234-1.565,7.937-3.674,11.987
							c-1.633,3.135-5.665,4.687-6.808,4.897C121.814,225.161,125.017,228.051,128.055,230.191z"/>
					</g>
				</g>
				<path style="fill:#1D1D1B;" d="M136.911,201.73c0.081-0.651,0.16-1.445,0.756-1.713c0.606-0.273,1.26,0.221,1.909,0.367
					c2.074,0.466,3.986-1.796,5.172-3.231c0.241-0.291,0.478-0.561,0.717-0.809c1.356-1.406,2.752-2.088,5.058-1.898
					c2.277,0.188,4.557,0.978,6.799,0.538c2.486-0.488,4.56-2.575,5.142-5.053c0.943-4.013-2.333-9.356-6.851-8.602
					c-1.219,0.203-2.538,0.823-3.609,0.205c-0.602-0.347-0.943-1.003-1.357-1.564c-1.591-2.155-4.708-3.01-7.167-1.965
					c-0.648,0.275-1.249,0.665-1.921,0.874c-1.287,0.399-2.669,0.094-4.013,0.021c-1.59-0.086-3.252,0.186-4.562,1.096
					s-2.188,2.546-1.904,4.121c0.083,0.463,0.262,0.922,0.202,1.389c-0.209,1.642-2.808,1.706-3.585,3.166
					c-0.744,1.4,0.615,3.122,0.231,4.662c-0.229,0.916-1.051,1.628-1.146,2.568c-0.117,1.164,0.947,1.979,1.405,2.949
					c0.507,1.072,0.982,2.476,1.086,3.652c0.214,2.423-1.245,5.029,2.32,4.725C134.525,206.976,136.551,204.629,136.911,201.73z"/>
				<path style="fill:#FF6363;" d="M181.959,264.263c1.407,1.696,2.559,3.443,6.607,3.175c5.141-0.341,10.144-2.966,13.08-7.273
					c0.816-1.197,1.487-2.53,1.681-3.967c1.168-8.655-8.523-14.263-14.708-17.765c-7.089-4.013-14.757-6.835-22.485-9.321
					c-6.855-2.206-14.017-6.036-21.398-5.443c-0.192,0.015-0.392,0.051-0.584,0.102c0.079,0.96,0.128,1.923,0.136,2.885
					c3.373,5.333,5.468,11.657,6.83,17.806c0.881,3.975,2.846,8.562,2.446,12.663c8.163,1.128,16.279,2.605,24.316,4.429
					C179.973,262.027,181.022,263.134,181.959,264.263z"/>
				<path style="fill:#DACAFC;" d="M194.265,245.943c-3.127,0.354-5.748,2.709-7.266,5.48c-1.518,2.771-2.118,5.941-2.697,9.051
					c-1.654,8.886-2.193,19.191-5.157,27.71c-1.841,5.292-9.005,12.593-5.462,18.631c1.039,1.77,3.234,2.771,5.243,2.391
					c3.557-0.672,5.215-4.679,6.727-7.984c1.95-4.262,4.844-7.54,7.427-11.282c3.231-4.68,5.571-10.42,7.91-15.59
					c3-6.628,5.657-14.183,3.208-21.035C202.698,249.119,198.691,245.455,194.265,245.943z"/>
				<g>
					<defs>
						<path id="SVGID_1_" d="M154.633,238.773c0.028-0.139,0.039-0.28,0.057-0.421c-0.914-3.302-5.618-3.247-8.262-4.636
							c-0.534-0.281-0.989-0.632-1.384-1.028c-0.052-0.053-0.105-0.104-0.155-0.159c-0.83-0.905-1.336-2.054-1.533-3.355
							c-0.804-5.317,1.927-10.111,4.274-14.783c-0.073-0.129-0.163-0.249-0.278-0.359c-0.595-0.572-1.517-0.557-2.34-0.566
							c-3.079-0.035-5.962-1.011-8.464-2.805c-1.19-0.853-2.263-1.859-3.285-2.907c-0.585-0.6-1.659-2.689-2.553-2.763
							c-0.085-0.007-0.15,0.037-0.22,0.068c-1.051,4.234-1.137,8.193-3.674,11.986c-0.96,1.435-2.094,2.711-3.441,3.648
							c-0.706,0.68-1.566,1.178-2.749,1.38c-0.299,0.051-0.605,0.075-0.915,0.083c-0.125,0.018-0.242,0.051-0.37,0.064
							c-0.15,0.015-0.27-0.022-0.377-0.077c-1.907-0.083-3.875-0.536-5.342,0.589c-0.691,0.531-1.121,1.332-1.458,2.138
							c-2.486,5.945-0.739,13.687,2.403,19.036c2.394,4.075,6.597,7.845,11.17,9.125c4.353,1.219,8.896,0.19,13.037-1.325
							c1.816-0.664,3.542-1.323,5.2-2.089c4.988-2.303,9.292-4.869,10.598-10.555C154.592,238.966,154.614,238.87,154.633,238.773z"
							/>
					</defs>
					<clipPath id="SVGID_00000049207513995380532240000012425109844872990142_">
						<use xlink:href="#SVGID_1_"  style="overflow:visible;"/>
					</clipPath>
					<path style="clip-path:url(#SVGID_00000049207513995380532240000012425109844872990142_);fill:#081132;" d="M138.089,215.76
						c0.118,0.065,0.258,0.123,0.407,0.178c2.595,1.072,5.451,1.73,8.185,1.329c0.685,0.294,0.458,0.857,0.113,1.873
						c-0.483,1.425-0.919,2.867-1.305,4.322c-2.524-2.592-5.047-5.185-7.571-7.777C137.975,215.711,138.032,215.736,138.089,215.76z
						"/>
				</g>
				<path style="fill:#FF6363;" d="M98.554,233.821c-5.168,5.939-7.289,13.947-9.045,21.447c-2.27,9.694-4.541,19.388-6.812,29.082
					c-0.533,2.276-1.069,4.57-1.134,6.908c-0.105,3.75,0.965,8.522,1.84,12.134c1.124,4.636,3.883,4.35,7.991,3.94
					c6.496-0.649,15.334-2.624,19.72-7.95c2.085-2.531,2.755-5.915,3.355-9.145c0.826-4.442,1.652-8.884,2.478-13.326
					c3.375-18.149,6.748-36.87,2.93-54.931C110.779,223.339,103.868,227.716,98.554,233.821z"/>
				<path style="fill:none;stroke:#1D1D1B;stroke-linecap:round;stroke-linejoin:round;stroke-miterlimit:10;" d="M120.057,251.84
					c-7.51,1.966-6.836,11.626-7.517,17.585c-1.005,8.801-2.675,17.526-4.992,26.073"/>
				<path style="fill:none;stroke:#081132;stroke-width:0.5;stroke-linecap:round;stroke-linejoin:round;stroke-miterlimit:10;" d="
					M199.827,273.087c-2.873,12.453-9.451,31.366-9.574,44.149"/>
				<path style="fill:#FFFFFF;" d="M146.194,208.976c0.449,1.172,1.438,2.029,2.516,2.182c1.079,0.153,2.21-0.403,2.881-1.415"/>
				<path style="fill:none;stroke:#634AB5;stroke-width:4;stroke-linecap:round;stroke-linejoin:round;stroke-miterlimit:10;" d="
					M76.648,314.531c20.797-4.746,38.422-8.214,57.139,0.638c12.189,5.765,20.415,16.501,22.722,27.926
					c2.308,11.426-1.403,19.43-11.419,24.464"/>
				<path style="fill:none;stroke:#081132;stroke-width:0.5;stroke-linecap:round;stroke-linejoin:round;stroke-miterlimit:10;" d="
					M185.742,361.197c-0.569-4.332-0.695-9.7-1.264-14.033"/>
				<path style="fill:none;stroke:#081132;stroke-width:0.5;stroke-linecap:round;stroke-linejoin:round;stroke-miterlimit:10;" d="
					M190.547,321.427c-13.388-2.047-22.003-0.254-39.239-0.254"/>
				<path style="fill:#DACAFC;" d="M132.872,201.266c0,2.202,1.776,3.987,3.966,3.987c2.191,0,3.966-1.785,3.966-3.987
					c0-2.202-1.776-3.987-3.966-3.987C134.647,197.279,132.872,199.064,132.872,201.266z"/>
				<path style="fill:#634AB5;" d="M160.281,370.245c-0.104-0.051-1.14-0.485-1.244-0.536c-12.652-6.19-25.01-13.304-35.759-22.501
					c-9.976-8.535-18.969-18.345-26.078-29.43c-3.451-5.381-6.234-11.051-8.966-16.82c-2.579-5.446-5.198-10.874-7.548-16.424
					c-3.602-8.506-7.192-17.93-7.767-27.386c-1.921,3.907-3.249,8.168-3.954,12.408c-3.051,18.355-0.965,40.836,4.769,58.582
					c0.181,0.561,0.395,1.103,0.594,1.653c3.823,10.56,11.534,19.99,25.966,28.216c25.598,14.589,45.897,12.405,51.139,12.576
					C154.054,370.666,157.655,370.345,160.281,370.245z"/>
			</g>
			<path style="fill:#DACAFC;" d="M109.339,287.489c4.027,0.885,7.979,2.179,11.932,3.381c6.277,1.909,12.637,3.01,19.013,4.716
				c1.812,0.485,3.651,0.958,5.526,0.975c3.223,0.031,6.336-1.28,9.559-1.351c4.31-0.095,8.52,2.323,10.862,5.921
				c3.944,6.059-2.593,4.436-6.707,4.376c-3.208-0.047-6.416-0.094-9.624-0.141c-12.612-0.185-24.538,0.458-37.19,1.527
				c-6.873,0.581-18.856,2.2-24.97-1.899c-2.971-1.992-7.868-11.687-5.141-14.586c0.511-0.543,1.217-0.849,1.908-1.125
				c6.187-2.475,12.885-3.378,19.531-2.675C105.824,286.797,107.589,287.105,109.339,287.489z"/>
			<path style="fill:#DC8B77;" d="M202.036,297.752c-0.076,0-0.153,0-0.229,0"/>
			<path style="fill:#634AB5;" d="M71.818,285.886c0.212,2.586,0.632,5.173,1.042,7.68c0.523,3.201,1.049,6.406,1.834,9.553
				c0.687,2.757,1.609,5.536,3.399,7.736c2.94,3.614,8.289,5.017,12.67,3.563c3.45-1.145,2.974-2.38,1.504-5.255
				c-3.049-5.961-6.217-12.198-8.836-18.399c-2.654-6.285-5.097-12.234-7.273-18.697c-0.459-1.364-0.918-2.728-1.315-4.111
				c-0.591-2.061-1.044-4.163-1.353-6.286c0.275,1.888-0.294,4.285-0.48,6.183c-0.211,2.16-0.467,4.316-0.768,6.465
				C71.704,278.154,71.499,282,71.818,285.886z"/>
		</g>
		<g>
			<path style="fill:none;stroke:#000000;stroke-width:2;stroke-linecap:round;stroke-linejoin:round;stroke-miterlimit:10;" d="
				M52.678,450.514l18.761-128.998c0.035-0.424,0.677-0.446,0.744-0.025l20.452,129.023"/>
			<rect x="59.916" y="317.447" style="fill:#AE96FF;" width="185.847" height="5.726"/>
		</g>
		<path style="fill:none;stroke:#1C1C1B;stroke-width:0.5;stroke-linecap:round;stroke-linejoin:round;stroke-miterlimit:10;" d="
			M138.702,200.691c-0.237-1.437-2.194-2.24-3.363-1.38"/>
		<g>
			<path d="M200.429,317.704h-83.648c-0.842,0-1.525-0.683-1.525-1.525v-0.912c0-0.842,0.683-1.525,1.525-1.525h83.648
				c0.842,0,1.525,0.683,1.525,1.525v0.912C201.954,317.022,201.271,317.704,200.429,317.704z"/>
			<path d="M202.225,317.704h-74.087l6.447-42.547c0.224-1.477,1.479-2.579,2.936-2.579h68.215c1.761,0,3.086,1.586,2.816,3.371
				L202.225,317.704z"/>
			<g>
				
					<line style="fill:none;stroke:#FF6363;stroke-linecap:round;stroke-linejoin:round;stroke-miterlimit:10;" x1="170.629" y1="293.694" x2="173.843" y2="296.38"/>
				
					<line style="fill:none;stroke:#FF6363;stroke-linecap:round;stroke-linejoin:round;stroke-miterlimit:10;" x1="166.406" y1="293.694" x2="169.619" y2="296.38"/>
			</g>
		</g>
		<path style="fill:none;stroke:#1D1D1B;stroke-linecap:round;stroke-linejoin:round;stroke-miterlimit:10;" d="M180.62,257.383
			c-0.201,2.783,1.278,6.385,2.53,8.148"/>
	</g>
	<g>
		<g>
			<g>
				<g>
					<path style="fill:#FF6363;" d="M349.75,182.816c-0.978,0.286-1.913,0.662-2.795,1.12c0.062,0.066,0.128,0.125,0.184,0.199
						c0.856,1.139,0.631,2.76-0.503,3.62c-1.134,0.86-2.746,0.634-3.602-0.505c-0.06-0.081-0.103-0.168-0.153-0.253
						c-0.699,0.732-1.326,1.53-1.873,2.382c0.092,0.028,0.185,0.047,0.275,0.086c1.308,0.556,1.919,2.073,1.366,3.388
						c-0.554,1.315-2.063,1.929-3.37,1.373c-0.103-0.044-0.193-0.103-0.286-0.158c-0.243,0.98-0.393,1.993-0.441,3.028
						c0.104-0.027,0.205-0.058,0.314-0.072c1.41-0.175,2.693,0.831,2.868,2.248c0.174,1.417-0.827,2.708-2.236,2.883
						c-0.124,0.015-0.245,0.011-0.366,0.008c0.285,1.006,0.666,1.967,1.13,2.873c0.085-0.086,0.169-0.174,0.268-0.249
						c1.133-0.86,2.746-0.634,3.602,0.505c0.856,1.139,0.631,2.76-0.503,3.621c-0.108,0.082-0.223,0.145-0.339,0.207
						c0.744,0.721,1.556,1.369,2.426,1.929c0.032-0.126,0.064-0.253,0.116-0.376c0.554-1.315,2.063-1.929,3.37-1.373
						c1.308,0.557,1.919,2.073,1.366,3.388c-0.056,0.133-0.128,0.253-0.202,0.371c0.995,0.248,2.025,0.399,3.076,0.444
						c-0.037-0.13-0.073-0.261-0.09-0.399c-0.174-1.417,0.827-2.707,2.236-2.883c1.409-0.175,2.693,0.831,2.868,2.248
						c0.018,0.145,0.016,0.287,0.01,0.427c1.011-0.294,1.975-0.687,2.884-1.166c-0.097-0.094-0.193-0.189-0.276-0.3
						c-0.856-1.139-0.631-2.76,0.503-3.62c1.133-0.86,2.746-0.634,3.602,0.505c0.084,0.112,0.149,0.231,0.212,0.351
						c0.713-0.752,1.351-1.574,1.903-2.452c-0.122-0.032-0.245-0.063-0.365-0.113c-1.308-0.557-1.919-2.073-1.365-3.388
						c0.553-1.315,2.062-1.929,3.37-1.373c0.119,0.051,0.226,0.117,0.333,0.184c0.238-0.991,0.38-2.014,0.42-3.059
						c-0.111,0.029-0.221,0.063-0.339,0.077c-1.409,0.175-2.693-0.831-2.868-2.248c-0.174-1.417,0.827-2.708,2.236-2.883
						c0.115-0.014,0.227-0.009,0.34-0.008c-0.292-0.994-0.676-1.942-1.144-2.837c-0.075,0.072-0.144,0.148-0.229,0.213
						c-1.133,0.86-2.746,0.634-3.602-0.505c-0.856-1.139-0.631-2.76,0.502-3.621c0.083-0.063,0.174-0.108,0.262-0.16
						c-0.732-0.698-1.53-1.324-2.382-1.868c-0.027,0.09-0.045,0.18-0.083,0.269c-0.553,1.314-2.063,1.929-3.37,1.372
						c-1.308-0.556-1.919-2.073-1.366-3.388c0.038-0.09,0.091-0.168,0.137-0.252c-0.965-0.235-1.962-0.377-2.979-0.422
						c0.019,0.086,0.047,0.168,0.058,0.257c0.174,1.417-0.827,2.707-2.236,2.883c-1.409,0.175-2.693-0.831-2.868-2.248
						C349.745,183.003,349.751,182.91,349.75,182.816z M352.818,187.403c5.743-0.715,10.976,3.387,11.687,9.16
						c0.711,5.774-3.369,11.034-9.112,11.748c-5.744,0.715-10.976-3.387-11.687-9.16
						C342.995,193.377,347.075,188.117,352.818,187.403z"/>
				</g>
				<path style="fill:#FF6363;" d="M352.708,210.484c6.927,0.78,13.194-4.252,13.97-11.215c0.776-6.964-4.228-13.263-11.155-14.044
					c-6.927-0.78-13.194,4.25-13.97,11.214C340.776,203.403,345.781,209.704,352.708,210.484z M346.139,197.045
					c0.514-4.181,4.512-7.22,8.91-6.773c4.398,0.446,7.558,4.211,7.043,8.392c-0.515,4.181-4.511,7.22-8.909,6.774
					C348.784,204.991,345.624,201.226,346.139,197.045z"/>
			</g>
		</g>
		<g>
			<g>
				<g>
					<path style="fill:#FF6363;" d="M265.459,206.487c-0.797,0.239-1.559,0.553-2.277,0.938c0.05,0.056,0.105,0.106,0.15,0.169
						c0.701,0.963,0.521,2.33-0.401,3.053c-0.922,0.723-2.238,0.528-2.939-0.435c-0.049-0.068-0.085-0.142-0.125-0.214
						c-0.568,0.616-1.078,1.287-1.521,2.005c0.075,0.023,0.151,0.04,0.224,0.073c1.068,0.473,1.57,1.754,1.122,2.862
						c-0.448,1.108-1.677,1.622-2.746,1.15c-0.084-0.037-0.157-0.087-0.234-0.134c-0.196,0.827-0.315,1.681-0.353,2.553
						c0.084-0.022,0.167-0.049,0.255-0.06c1.149-0.144,2.199,0.708,2.345,1.904c0.146,1.196-0.667,2.282-1.816,2.427
						c-0.101,0.013-0.199,0.008-0.298,0.006c0.235,0.85,0.548,1.661,0.929,2.426c0.069-0.073,0.137-0.146,0.218-0.21
						c0.922-0.723,2.238-0.528,2.939,0.435c0.701,0.964,0.521,2.33-0.401,3.053c-0.088,0.069-0.182,0.122-0.276,0.174
						c0.609,0.611,1.272,1.159,1.984,1.634c0.026-0.107,0.051-0.213,0.093-0.317c0.448-1.108,1.678-1.623,2.745-1.15
						c1.068,0.473,1.57,1.754,1.122,2.862c-0.045,0.112-0.104,0.214-0.164,0.313c0.813,0.212,1.652,0.342,2.51,0.382
						c-0.031-0.11-0.06-0.22-0.075-0.337c-0.146-1.196,0.668-2.282,1.817-2.427c1.149-0.144,2.199,0.708,2.345,1.904
						c0.015,0.122,0.013,0.242,0.009,0.361c0.824-0.246,1.61-0.575,2.35-0.977c-0.079-0.079-0.158-0.16-0.226-0.254
						c-0.701-0.963-0.521-2.33,0.401-3.053c0.922-0.723,2.238-0.528,2.939,0.435c0.069,0.094,0.122,0.195,0.174,0.297
						c0.58-0.633,1.098-1.325,1.546-2.064c-0.1-0.027-0.2-0.053-0.298-0.097c-1.068-0.473-1.57-1.754-1.122-2.862
						c0.448-1.108,1.677-1.622,2.746-1.15c0.097,0.043,0.185,0.1,0.272,0.156c0.191-0.835,0.305-1.698,0.335-2.58
						c-0.091,0.024-0.18,0.052-0.276,0.064c-1.149,0.145-2.199-0.708-2.345-1.904c-0.146-1.196,0.668-2.282,1.817-2.427
						c0.094-0.012,0.185-0.007,0.277-0.006c-0.24-0.839-0.556-1.64-0.94-2.396c-0.061,0.061-0.117,0.125-0.186,0.179
						c-0.922,0.723-2.238,0.528-2.939-0.435c-0.701-0.963-0.521-2.33,0.401-3.053c0.068-0.053,0.141-0.091,0.213-0.134
						c-0.599-0.591-1.251-1.121-1.948-1.582c-0.022,0.076-0.037,0.152-0.067,0.226c-0.448,1.108-1.678,1.622-2.745,1.15
						c-1.068-0.473-1.57-1.754-1.122-2.862c0.031-0.076,0.074-0.142,0.111-0.212c-0.788-0.201-1.601-0.323-2.431-0.363
						c0.016,0.072,0.039,0.142,0.048,0.217c0.146,1.196-0.667,2.282-1.816,2.426c-1.149,0.144-2.199-0.708-2.345-1.903
						C265.455,206.645,265.46,206.567,265.459,206.487z M267.973,210.365c4.683-0.589,8.96,2.885,9.555,7.758
						c0.594,4.873-2.72,9.301-7.403,9.889c-4.683,0.589-8.96-2.885-9.555-7.758C259.976,215.381,263.29,210.953,267.973,210.365z"/>
				</g>
				<path style="fill:#FF6363;" d="M268.075,228.551c4.969,0.594,9.451-3.124,9.993-8.288c0.541-5.163-3.061-9.847-8.029-10.441
					c-4.969-0.594-9.452,3.124-9.993,8.287C259.504,223.272,263.106,227.957,268.075,228.551z M262.665,218.495
					c0.402-3.464,3.596-5.972,7.121-5.591c3.525,0.381,6.065,3.508,5.663,6.972c-0.402,3.464-3.596,5.972-7.121,5.591
					C264.803,225.087,262.262,221.959,262.665,218.495z"/>
			</g>
		</g>
		<g>
			<g>
				<g>
					<path style="fill:#FF6363;" d="M302.448,180.867c-1.721,0.502-3.366,1.164-4.918,1.972c0.109,0.116,0.226,0.221,0.324,0.351
						c1.506,2.005,1.11,4.857-0.884,6.371c-1.994,1.514-4.832,1.116-6.337-0.889c-0.106-0.141-0.181-0.295-0.269-0.444
						c-1.23,1.288-2.334,2.691-3.295,4.191c0.161,0.048,0.325,0.083,0.483,0.151c2.301,0.979,3.377,3.648,2.403,5.962
						c-0.974,2.313-3.629,3.395-5.93,2.415c-0.181-0.077-0.339-0.181-0.504-0.277c-0.428,1.725-0.691,3.507-0.777,5.327
						c0.182-0.047,0.36-0.102,0.552-0.126c2.48-0.309,4.739,1.462,5.046,3.955c0.307,2.493-1.455,4.764-3.935,5.073
						c-0.217,0.027-0.43,0.019-0.643,0.014c0.502,1.771,1.171,3.461,1.989,5.055c0.15-0.152,0.297-0.306,0.471-0.439
						c1.994-1.514,4.832-1.116,6.337,0.889c1.506,2.005,1.11,4.857-0.884,6.371c-0.19,0.144-0.393,0.255-0.596,0.364
						c1.309,1.269,2.738,2.408,4.269,3.394c0.056-0.222,0.112-0.445,0.204-0.662c0.974-2.313,3.629-3.395,5.931-2.415
						c2.301,0.979,3.377,3.649,2.403,5.962c-0.099,0.234-0.225,0.446-0.356,0.654c1.752,0.437,3.563,0.703,5.413,0.781
						c-0.066-0.229-0.129-0.459-0.159-0.702c-0.307-2.493,1.455-4.764,3.935-5.072c2.48-0.309,4.739,1.462,5.046,3.955
						c0.031,0.255,0.027,0.504,0.017,0.752c1.78-0.518,3.476-1.209,5.075-2.052c-0.17-0.165-0.339-0.332-0.486-0.527
						c-1.506-2.005-1.11-4.857,0.884-6.371c1.994-1.514,4.832-1.116,6.337,0.889c0.148,0.197,0.262,0.407,0.374,0.618
						c1.255-1.324,2.377-2.77,3.349-4.316c-0.215-0.056-0.431-0.11-0.642-0.2c-2.301-0.979-3.377-3.648-2.403-5.962
						c0.974-2.313,3.629-3.395,5.93-2.416c0.21,0.089,0.398,0.207,0.587,0.323c0.418-1.743,0.669-3.544,0.738-5.383
						c-0.196,0.052-0.389,0.111-0.596,0.136c-2.48,0.309-4.739-1.462-5.046-3.955c-0.307-2.493,1.455-4.764,3.935-5.073
						c0.202-0.025,0.399-0.016,0.598-0.014c-0.513-1.749-1.19-3.418-2.013-4.991c-0.131,0.127-0.253,0.261-0.402,0.374
						c-1.994,1.514-4.832,1.116-6.338-0.889c-1.506-2.005-1.11-4.857,0.884-6.371c0.147-0.111,0.306-0.191,0.46-0.281
						c-1.289-1.229-2.693-2.33-4.192-3.287c-0.047,0.158-0.08,0.317-0.145,0.472c-0.974,2.313-3.629,3.395-5.931,2.415
						c-2.301-0.979-3.377-3.648-2.403-5.962c0.067-0.158,0.159-0.296,0.241-0.443c-1.699-0.414-3.452-0.664-5.241-0.742
						c0.034,0.151,0.083,0.295,0.102,0.452c0.307,2.493-1.454,4.764-3.935,5.073c-2.48,0.309-4.739-1.462-5.046-3.955
						C302.439,181.195,302.451,181.032,302.448,180.867z M308.006,190.221c9.401-1.17,17.965,5.543,19.129,14.993
						c1.164,9.45-5.514,18.06-14.915,19.23c-9.401,1.17-17.965-5.543-19.129-14.994C291.927,200,298.605,191.391,308.006,190.221z"
						/>
				</g>
				<path style="fill:none;stroke:#292929;stroke-linecap:round;stroke-linejoin:round;stroke-miterlimit:10;" d="M307.797,228.262
					c11.482,1.293,21.869-7.047,23.155-18.589c1.286-11.542-7.008-21.984-18.49-23.277s-21.87,7.045-23.156,18.587
					C288.02,216.525,296.315,226.969,307.797,228.262z M296.141,205.753c0.864-7.754,7.843-13.356,15.556-12.487
					c7.714,0.869,13.286,7.884,12.422,15.638c-0.864,7.754-7.842,13.357-15.556,12.488
					C300.849,220.523,295.276,213.507,296.141,205.753z"/>
			</g>
		</g>
	</g>
	<g>
		<path style="fill:none;stroke:#000000;stroke-linecap:round;stroke-linejoin:round;stroke-miterlimit:10;" d="M213.325,66.846
			c2.151-2.503,5.912-2.78,8.402-0.618c2.49,2.162,2.765,5.943,0.615,8.446"/>
		
			<ellipse style="fill:none;stroke:#000000;stroke-linecap:round;stroke-linejoin:round;stroke-miterlimit:10;" cx="230.217" cy="91.387" rx="5.688" ry="5.718"/>
	</g>
	<g id="XMLID_146_">
		<path style="fill:#AE96FF;" d="M377.315,111.371c-0.121-8.219,6.946-14.569,14.691-14.196c2.693,0.129,5.163,1.026,7.236,2.451
			c3.226-3.707,8.04-5.956,13.315-5.703c7.237,0.348,14.242,5.268,14.827,12.016c7.086,2.034,12.427,8.637,12.06,16.357
			c-0.227,4.769-2.468,8.962-5.857,11.788c0.857,2.448,0.775,5.325-0.787,8.192c-0.837,1.536-2.159,2.781-3.736,3.527
			c-2.887,1.367-5.613,1.298-7.911,0.396l-0.183,13.324c-0.011,0.799-1.036,1.114-1.489,0.456l-6.933-10.059
			c-6.461,2.658-12.258-1.329-12.69-7.229c-1.717,0.859-3.662,1.312-5.714,1.214c-5.925-0.285-10.594-4.973-11.049-10.766
			c-3.238,1.938-7.464,2.349-11.66,0.237c-2.325-1.17-4.152-3.198-5.072-5.643C363.115,119.1,369.412,111.25,377.315,111.371z"/>
		<path id="XMLID_159_" style="fill:none;stroke:#000000;stroke-linecap:round;stroke-linejoin:round;stroke-miterlimit:10;" d="
			M425.039,127.679c3.821,0.184,7.009,2.6,8.376,5.935"/>
		<path id="XMLID_158_" style="fill:none;stroke:#000000;stroke-linecap:round;stroke-linejoin:round;stroke-miterlimit:10;" d="
			M383.183,132.162c0.307-6.462,5.767-11.45,12.195-11.142"/>
		<path id="XMLID_4_" style="fill:none;stroke:#000000;stroke-linecap:round;stroke-linejoin:round;stroke-miterlimit:10;" d="
			M376.321,111.384c2.457-0.164,4.749,0.428,6.68,1.559"/>
		<path id="XMLID_155_" style="fill:none;stroke:#000000;stroke-linecap:round;stroke-linejoin:round;stroke-miterlimit:10;" d="
			M389.555,102.403c5.163,0.248,9.149,4.657,8.902,9.847"/>
		<path id="XMLID_154_" style="fill:none;stroke:#000000;stroke-linecap:round;stroke-linejoin:round;stroke-miterlimit:10;" d="
			M397.752,138.173c-4.554,0.434-8.596-2.925-9.028-7.504"/>
		<path id="XMLID_153_" style="fill:none;stroke:#000000;stroke-linecap:round;stroke-linejoin:round;stroke-miterlimit:10;" d="
			M371.681,125.979c-1.349-3.91,0.711-8.179,4.601-9.535"/>
		<path id="XMLID_152_" style="fill:none;stroke:#000000;stroke-linecap:round;stroke-linejoin:round;stroke-miterlimit:10;" d="
			M428.611,136.962c-0.964,2.988-4.154,4.624-7.126,3.656"/>
		<path id="XMLID_151_" style="fill:none;stroke:#000000;stroke-linecap:round;stroke-linejoin:round;stroke-miterlimit:10;" d="
			M415.003,108.238c3.434-2.376,7.756-3.244,12.164-2.342"/>
		<path id="XMLID_150_" style="fill:none;stroke:#000000;stroke-linecap:round;stroke-linejoin:round;stroke-miterlimit:10;" d="
			M429.816,113.113c2.305,1.716,3.817,4.453,3.868,7.558"/>
		<path style="fill:none;stroke:#000000;stroke-linecap:round;stroke-linejoin:round;stroke-miterlimit:10;" d="M404.811,116.707
			c2.876-0.579,6.042,0.8,7.589,3.306c1.547,2.506,1.371,5.97-0.423,8.304"/>
		<path style="fill:none;stroke:#000000;stroke-linecap:round;stroke-linejoin:round;stroke-miterlimit:10;" d="M403.843,130.941
			c-1.003,0.917-1.514,2.348-1.32,3.697c0.194,1.349,1.089,2.575,2.31,3.168"/>
	</g>
	<g>
		<g>
			<polygon style="fill:#7A5CE0;" points="330.509,67.68 330.942,109.885 322.145,109.933 321.713,67.728 			"/>
			<polygon style="fill:#FF6363;" points="310.957,74.657 311.319,109.991 302.522,110.039 302.16,74.704 			"/>
			<polygon style="fill:#7A5CE0;" points="282.591,80.013 282.899,110.145 291.696,110.097 291.387,80.013 			"/>
			<polygon style="fill:#FF6363;" points="273.307,94.001 273.473,110.196 264.677,110.243 264.511,94.048 			"/>
		</g>
		
			<line style="fill:none;stroke:#101C59;stroke-linecap:round;stroke-linejoin:round;stroke-miterlimit:10;" x1="338.279" y1="109.9" x2="260.991" y2="110.381"/>
		
			<line style="fill:none;stroke:#000000;stroke-linecap:round;stroke-linejoin:round;stroke-miterlimit:10;" x1="303.821" y1="77.234" x2="303.821" y2="86.85"/>
		
			<line style="fill:none;stroke:#000000;stroke-linecap:round;stroke-linejoin:round;stroke-miterlimit:10;" x1="323.741" y1="92.149" x2="323.741" y2="104.296"/>
		
			<line style="fill:none;stroke:#000000;stroke-linecap:round;stroke-linejoin:round;stroke-miterlimit:10;" x1="265.802" y1="98.476" x2="265.802" y2="102.495"/>
		<path style="fill:none;stroke:#000000;stroke-linecap:round;stroke-linejoin:round;stroke-miterlimit:10;" d="M284.397,90.869
			c0,0.574,0,1.148,0,1.722"/>
	</g>
	<path style="fill:none;stroke:#1D1D1B;stroke-linecap:round;stroke-linejoin:round;stroke-miterlimit:10;" d="M158.776,257.978
		c0.112-1.571,0.001-3.159-0.329-4.699"/>
	<g>
		<polyline style="fill:none;stroke:#7A5CE0;stroke-linecap:round;stroke-linejoin:round;stroke-miterlimit:10;" points="
			374.268,146.107 354.341,166.139 275.184,166.139 250.601,191.27 		"/>
		<polyline style="fill:none;stroke:#7A5CE0;stroke-linecap:round;stroke-linejoin:round;stroke-miterlimit:10;" points="
			374.899,154.727 357.146,172.574 287.167,172.574 260.068,199.815 		"/>
		
			<line style="fill:none;stroke:#7A5CE0;stroke-linecap:round;stroke-linejoin:round;stroke-miterlimit:10;" x1="355.911" y1="117.213" x2="234.331" y2="117.213"/>
		<polyline style="fill:none;stroke:#7A5CE0;stroke-linecap:round;stroke-linejoin:round;stroke-miterlimit:10;" points="
			352.288,136.152 254.748,136.152 234.197,156.811 		"/>
		<polyline style="fill:none;stroke:#7A5CE0;stroke-linecap:round;stroke-linejoin:round;stroke-miterlimit:10;" points="
			317.266,148.05 306.396,158.976 256.882,158.976 242.993,172.938 		"/>
		
			<line style="fill:none;stroke:#7A5CE0;stroke-linecap:round;stroke-linejoin:round;stroke-miterlimit:10;" x1="262.195" y1="147.564" x2="302.29" y2="147.564"/>
		
			<line style="fill:none;stroke:#7A5CE0;stroke-linecap:round;stroke-linejoin:round;stroke-miterlimit:10;" x1="339.97" y1="126.197" x2="269.924" y2="126.197"/>
		
			<line style="fill:none;stroke:#7A5CE0;stroke-linecap:round;stroke-linejoin:round;stroke-miterlimit:10;" x1="325.961" y1="152.42" x2="351.564" y2="152.42"/>
		<path style="fill:#7A5CE0;" d="M359.293,116.97c0,1.877-1.514,3.399-3.382,3.399c-1.868,0-3.382-1.522-3.382-3.399
			c0-1.877,1.514-3.399,3.382-3.399C357.779,113.571,359.293,115.093,359.293,116.97z"/>
		<path style="fill:#7A5CE0;" d="M237.713,116.97c0,1.877-1.514,3.399-3.382,3.399c-1.868,0-3.382-1.522-3.382-3.399
			c0-1.877,1.514-3.399,3.382-3.399C236.199,113.571,237.713,115.093,237.713,116.97z"/>
		<ellipse style="fill:#7A5CE0;" cx="350.598" cy="152.906" rx="3.382" ry="3.399"/>
		<ellipse style="fill:#7A5CE0;" cx="302.29" cy="147.564" rx="3.382" ry="3.399"/>
		<path style="fill:#7A5CE0;" d="M319.198,147.564c0,1.877-1.514,3.399-3.382,3.399c-1.868,0-3.382-1.522-3.382-3.399
			c0-1.877,1.514-3.399,3.382-3.399C317.684,144.165,319.198,145.687,319.198,147.564z"/>
		<ellipse style="fill:#7A5CE0;" cx="264.128" cy="147.079" rx="3.382" ry="3.399"/>
		<path style="fill:#7A5CE0;" d="M254.949,189.813c0,1.877-1.514,3.399-3.382,3.399c-1.868,0-3.382-1.522-3.382-3.399
			c0-1.877,1.514-3.399,3.382-3.399C253.435,186.413,254.949,187.936,254.949,189.813z"/>
		<ellipse style="fill:#7A5CE0;" cx="260.273" cy="199.705" rx="3.381" ry="3.399"/>
		<ellipse style="fill:#7A5CE0;" cx="244.322" cy="170.874" rx="3.382" ry="3.399"/>
		<ellipse style="fill:#7A5CE0;" cx="328.859" cy="152.906" rx="3.382" ry="3.399"/>
		<path style="fill:#7A5CE0;" d="M355.67,136.152c0,1.877-1.514,3.399-3.382,3.399c-1.868,0-3.382-1.522-3.382-3.399
			c0-1.877,1.514-3.399,3.382-3.399C354.156,132.753,355.67,134.275,355.67,136.152z"/>
		<path style="fill:#7A5CE0;" d="M378.28,154.727c0,1.877-1.514,3.399-3.382,3.399c-1.867,0-3.382-1.522-3.382-3.399
			c0-1.877,1.514-3.399,3.382-3.399C376.766,151.328,378.28,152.85,378.28,154.727z"/>
		<path style="fill:#7A5CE0;" d="M377.408,145.865c0,1.877-1.514,3.399-3.382,3.399c-1.867,0-3.382-1.522-3.382-3.399
			c0-1.877,1.514-3.399,3.382-3.399C375.894,142.465,377.408,143.987,377.408,145.865z"/>
		<ellipse style="fill:#7A5CE0;" cx="339.97" cy="126.197" rx="3.382" ry="3.399"/>
		<ellipse style="fill:#7A5CE0;" cx="269.924" cy="126.197" rx="3.382" ry="3.399"/>
		<ellipse style="fill:#7A5CE0;" cx="235.626" cy="155.82" rx="3.382" ry="3.399"/>
	</g>
	<g>
		<g>
			<g>
				<path style="fill:#BFA7F2;" d="M77.583,118.23L77.583,118.23c0,1.032,0.832,1.869,1.859,1.869h35.77
					c1.027,0,1.859-0.837,1.859-1.869l0,0c0-1.032-0.832-1.869-1.859-1.869h-35.77C78.415,116.361,77.583,117.198,77.583,118.23z"/>
				<path style="fill:#BFA7F2;" d="M134.584,116.361h-11.432c-1.027,0-1.859,0.837-1.859,1.869l0,0c0,1.032,0.832,1.869,1.859,1.869
					h11.432c1.027,0,1.859-0.837,1.859-1.869l0,0C136.442,117.198,135.61,116.361,134.584,116.361z"/>
				<path style="fill:#BFA7F2;" d="M123.159,125.561H90.618c-1.027,0-1.859,0.837-1.859,1.869l0,0c0,1.032,0.832,1.869,1.859,1.869
					h32.542c1.027,0,1.859-0.837,1.859-1.869l0,0C125.018,126.397,124.186,125.561,123.159,125.561z"/>
				<path style="fill:#BFA7F2;" d="M128.168,127.429L128.168,127.429c0,1.032,0.832,1.869,1.859,1.869h6.929
					c1.027,0,1.859-0.837,1.859-1.869l0,0c0-1.032-0.832-1.869-1.859-1.869h-6.929C129,125.561,128.168,126.397,128.168,127.429z"/>
				<path style="fill:#BFA7F2;" d="M83.538,125.561h-4.096c-1.027,0-1.859,0.837-1.859,1.869l0,0c0,1.032,0.832,1.869,1.859,1.869
					h4.096c1.027,0,1.859-0.837,1.859-1.869l0,0C85.396,126.397,84.564,125.561,83.538,125.561z"/>
				<path style="fill:#BFA7F2;" d="M71.352,125.561H54.957c-1.027,0-1.859,0.837-1.859,1.869l0,0c0,1.032,0.832,1.869,1.859,1.869
					h16.395c0.617,0,1.118-0.503,1.118-1.124v-1.49C72.469,126.064,71.969,125.561,71.352,125.561z"/>
				<path style="fill:#BFA7F2;" d="M93.909,136.011L93.909,136.011c0,1.032,0.832,1.869,1.859,1.869h40.489
					c1.027,0,1.859-0.837,1.859-1.869l0,0c0-1.032-0.832-1.869-1.859-1.869H95.768C94.741,134.142,93.909,134.979,93.909,136.011z"
					/>
				<path style="fill:#BFA7F2;" d="M65.1,136.011L65.1,136.011c0,1.032,0.832,1.869,1.859,1.869h18.882
					c1.027,0,1.859-0.837,1.859-1.869l0,0c0-1.032-0.832-1.869-1.859-1.869H66.959C65.933,134.142,65.1,134.979,65.1,136.011z"/>
				<path style="fill:#BFA7F2;" d="M51.193,145.21L51.193,145.21c0,1.032,0.832,1.869,1.859,1.869h2.491
					c1.027,0,1.859-0.837,1.859-1.869l0,0c0-1.032-0.832-1.869-1.859-1.869h-2.491C52.025,143.341,51.193,144.178,51.193,145.21z"/>
				<path style="fill:#BFA7F2;" d="M59.885,145.21L59.885,145.21c0,1.032,0.832,1.869,1.859,1.869H86.09
					c1.027,0,1.859-0.837,1.859-1.869l0,0c0-1.032-0.832-1.869-1.859-1.869H61.744C60.717,143.341,59.885,144.178,59.885,145.21z"/>
				<path style="fill:#BFA7F2;" d="M91.922,145.21L91.922,145.21c0,1.032,0.832,1.869,1.859,1.869h8.948
					c1.027,0,1.859-0.837,1.859-1.869l0,0c0-1.032-0.832-1.869-1.859-1.869h-8.948C92.755,143.341,91.922,144.178,91.922,145.21z"/>
				<path style="fill:#BFA7F2;" d="M110.052,145.21L110.052,145.21c0,1.032,0.832,1.869,1.859,1.869h9.197
					c1.027,0,1.859-0.837,1.859-1.869l0,0c0-1.032-0.832-1.869-1.859-1.869h-9.197C110.884,143.341,110.052,144.178,110.052,145.21z
					"/>
				<path style="fill:#BFA7F2;" d="M129.424,145.21L129.424,145.21c0,1.032,0.832,1.869,1.859,1.869h4.975
					c1.027,0,1.859-0.837,1.859-1.869l0,0c0-1.032-0.832-1.869-1.859-1.869h-4.975C130.256,143.341,129.424,144.178,129.424,145.21z
					"/>
				<path style="fill:#BFA7F2;" d="M71.806,154.409L71.806,154.409c0,1.032,0.832,1.869,1.859,1.869h3.484
					c1.027,0,1.859-0.837,1.859-1.869l0,0c0-1.032-0.832-1.869-1.859-1.869h-3.484C72.638,152.541,71.806,153.377,71.806,154.409z"
					/>
				<path style="fill:#BFA7F2;" d="M86.369,154.409L86.369,154.409c0,1.032,0.832,1.869,1.859,1.869h17.493
					c1.027,0,1.859-0.837,1.859-1.869l0,0c0-1.032-0.832-1.869-1.859-1.869H88.228C87.202,152.541,86.369,153.377,86.369,154.409z"
					/>
				<path style="fill:#BFA7F2;" d="M111.349,154.409L111.349,154.409c0,1.032,0.832,1.869,1.859,1.869h13.667
					c1.027,0,1.859-0.837,1.859-1.869l0,0c0-1.032-0.832-1.869-1.859-1.869h-13.667
					C112.181,152.541,111.349,153.377,111.349,154.409z"/>
				<path style="fill:#BFA7F2;" d="M94.381,91.687L94.381,91.687c0,1.032,0.832,1.869,1.859,1.869h40.489
					c1.027,0,1.859-0.837,1.859-1.869l0,0c0-1.032-0.832-1.869-1.859-1.869H96.24C95.213,89.818,94.381,90.655,94.381,91.687z"/>
				<path style="fill:#BFA7F2;" d="M109.177,81.87h-4.949c-1.027,0-1.859,0.837-1.859,1.869v0c0,1.032,0.832,1.869,1.859,1.869
					h4.949c1.027,0,1.859-0.837,1.859-1.869v0C111.036,82.707,110.204,81.87,109.177,81.87z"/>
				<path style="fill:#BFA7F2;" d="M96.709,81.87H79.9c-1.027,0-1.859,0.837-1.859,1.869v0c0,1.032,0.832,1.869,1.859,1.869h16.809
					c1.027,0,1.859-0.837,1.859-1.869v0C98.568,82.707,97.736,81.87,96.709,81.87z"/>
				<path style="fill:#BFA7F2;" d="M113.925,83.739L113.925,83.739c0,1.032,0.832,1.869,1.859,1.869h20.945
					c1.027,0,1.859-0.837,1.859-1.869v0c0-1.032-0.832-1.869-1.859-1.869h-20.945C114.757,81.87,113.925,82.707,113.925,83.739z"/>
				<path style="fill:#BFA7F2;" d="M92.394,100.886L92.394,100.886c0,1.032,0.832,1.869,1.859,1.869h8.948
					c1.027,0,1.859-0.837,1.859-1.869l0,0c0-1.032-0.832-1.869-1.859-1.869h-8.948C93.226,99.018,92.394,99.854,92.394,100.886z"/>
				<path style="fill:#BFA7F2;" d="M110.524,100.886L110.524,100.886c0,1.032,0.832,1.869,1.859,1.869h9.197
					c1.027,0,1.859-0.837,1.859-1.869l0,0c0-1.032-0.832-1.869-1.859-1.869h-9.197C111.356,99.018,110.524,99.854,110.524,100.886z"
					/>
				<path style="fill:#BFA7F2;" d="M128.826,100.886L128.826,100.886c0,1.032,0.832,1.869,1.859,1.869h6.774
					c1.027,0,1.859-0.837,1.859-1.869l0,0c0-1.032-0.832-1.869-1.859-1.869h-6.774C129.658,99.018,128.826,99.854,128.826,100.886z"
					/>
				<path style="fill:#BFA7F2;" d="M100.914,110.086L100.914,110.086c0,1.032,0.832,1.869,1.859,1.869h10.438
					c1.027,0,1.859-0.837,1.859-1.869l0,0c0-1.032-0.832-1.869-1.859-1.869h-10.438
					C101.746,108.217,100.914,109.054,100.914,110.086z"/>
				<path style="fill:#BFA7F2;" d="M72.278,110.086L72.278,110.086c0,1.032,0.832,1.869,1.859,1.869h3.485
					c1.027,0,1.859-0.837,1.859-1.869l0,0c0-1.032-0.832-1.869-1.859-1.869h-3.485C73.11,108.217,72.278,109.054,72.278,110.086z"/>
				<path style="fill:#BFA7F2;" d="M82.957,110.086L82.957,110.086c0,1.032,0.832,1.869,1.859,1.869h7.707
					c1.027,0,1.859-0.837,1.859-1.869l0,0c0-1.032-0.832-1.869-1.859-1.869h-7.707C83.789,108.217,82.957,109.054,82.957,110.086z"
					/>
				<path style="fill:#BFA7F2;" d="M121.948,110.086L121.948,110.086c0,1.032,0.832,1.869,1.859,1.869h13.667
					c1.027,0,1.859-0.837,1.859-1.869l0,0c0-1.032-0.832-1.869-1.859-1.869h-13.667C122.78,108.217,121.948,109.054,121.948,110.086
					z"/>
			</g>
			<g>
				<path style="fill:#BFA7F2;" d="M71.506,88.013c-0.214,0-0.428-0.078-0.597-0.235l-4.426-4.112l4.392-4.549
					c0.339-0.351,0.897-0.359,1.245-0.019c0.349,0.34,0.357,0.901,0.019,1.252l-3.135,3.247l3.101,2.881
					c0.357,0.332,0.379,0.892,0.049,1.251C71.979,87.918,71.743,88.013,71.506,88.013z"/>
			</g>
			<g>
				<path style="fill:#BFA7F2;" d="M76.843,88.013c-0.214,0-0.428-0.078-0.597-0.235l-4.426-4.112l4.391-4.549
					c0.339-0.351,0.897-0.359,1.245-0.019c0.349,0.34,0.357,0.901,0.019,1.252l-3.135,3.247l3.101,2.881
					c0.357,0.332,0.379,0.892,0.049,1.251C77.317,87.918,77.081,88.013,76.843,88.013z"/>
			</g>
			<g>
				<path style="fill:#BFA7F2;" d="M136.866,159.245c-0.237,0-0.473-0.095-0.647-0.284c-0.33-0.359-0.308-0.919,0.049-1.251
					l3.101-2.881l-3.135-3.247c-0.339-0.35-0.33-0.911,0.019-1.252c0.348-0.34,0.906-0.332,1.245,0.019l4.391,4.549l-4.426,4.112
					C137.294,159.167,137.08,159.245,136.866,159.245z"/>
			</g>
			<g>
				<path style="fill:#BFA7F2;" d="M131.529,159.245c-0.237,0-0.473-0.095-0.647-0.284c-0.33-0.359-0.308-0.919,0.049-1.251
					l3.101-2.881l-3.135-3.247c-0.339-0.35-0.33-0.911,0.019-1.252c0.348-0.34,0.906-0.332,1.245,0.019l4.392,4.549l-4.426,4.112
					C131.956,159.167,131.742,159.245,131.529,159.245z"/>
			</g>
		</g>
		<g>
			<path style="fill:#AE96FF;" d="M206.803,167.566h-1.099c-3.001,0-5.433-2.432-5.433-5.433V122.35
				c0-3.001,2.432-5.433,5.433-5.433h1.099c3.001,0,5.433,2.433,5.433,5.433v39.783
				C212.236,165.133,209.804,167.566,206.803,167.566z"/>
			<path style="fill:#AE96FF;" d="M226.134,204.182l-1.068,0.581c-2.315,1.259-5.207,0.393-6.46-1.934l-15.36-28.54
				c-1.253-2.327-0.391-5.235,1.924-6.494l1.068-0.581c2.315-1.259,5.207-0.393,6.46,1.934l15.36,28.54
				C229.311,200.016,228.449,202.923,226.134,204.182z"/>
			<path style="fill:none;stroke:#AE96FF;stroke-width:5;stroke-linecap:round;stroke-linejoin:round;stroke-miterlimit:10;" d="
				M222.674,221.568c-3.328-6.602-1.745-14.134,3.535-16.824c5.281-2.69,12.259,0.48,15.588,7.082"/>
			<ellipse style="fill:#1D1D1B;" cx="206.662" cy="162.507" rx="1.924" ry="1.934"/>
			<path style="fill:#1D1D1B;" d="M210.235,171.625c0,1.068-0.861,1.934-1.924,1.934c-1.063,0-1.924-0.866-1.924-1.934
				c0-1.068,0.861-1.934,1.924-1.934C209.374,169.691,210.235,170.556,210.235,171.625z"/>
			
				<ellipse style="fill:none;stroke:#000000;stroke-linecap:round;stroke-linejoin:round;stroke-miterlimit:10;" cx="206.937" cy="119.266" rx="11.956" ry="12.019"/>
			<ellipse cx="206.937" cy="119.266" rx="8.135" ry="8.178"/>
			<path style="fill:none;stroke:#000000;stroke-linecap:round;stroke-linejoin:round;stroke-miterlimit:10;" d="M222.674,221.568
				c-3.328-6.602-1.745-14.134,3.535-16.824c5.281-2.69,12.259,0.48,15.588,7.082"/>
		</g>
		<path style="fill:none;stroke:#7A5CE0;stroke-linecap:round;stroke-linejoin:round;stroke-miterlimit:10;" d="M207.169,116.917
			v-15.493c0-6.165-4.972-11.163-11.105-11.163h-54.227"/>
		<path style="fill:none;stroke:#7A5CE0;stroke-linecap:round;stroke-linejoin:round;stroke-miterlimit:10;" d="M141.838,114.299
			h24.3c5.056,0,9.905,2.019,13.48,5.613l23.039,23.16"/>
		<path style="fill:none;stroke:#7A5CE0;stroke-linecap:round;stroke-linejoin:round;stroke-miterlimit:10;" d="M141.838,122.312
			h19.228c5.056,0,9.905,2.019,13.48,5.613l27.749,27.895"/>
	</g>
	<path style="fill:none;stroke:#FF6363;stroke-linecap:round;stroke-linejoin:round;stroke-miterlimit:10;" d="M202.225,317.704
		l7.074-42.744c0.206-1.247-0.75-2.382-2.008-2.382h-31.242"/>
	<g>
		<rect x="294.829" y="348.597" style="fill:#AE96FF;" width="121.694" height="112.333"/>
		
			<line style="fill:none;stroke:#1D1D1B;stroke-linecap:round;stroke-linejoin:round;stroke-miterlimit:10;" x1="416.522" y1="370.748" x2="294.829" y2="370.748"/>
		
			<line style="fill:none;stroke:#1D1D1B;stroke-linecap:round;stroke-linejoin:round;stroke-miterlimit:10;" x1="416.522" y1="392.899" x2="294.829" y2="392.899"/>
		
			<line style="fill:none;stroke:#1D1D1B;stroke-linecap:round;stroke-linejoin:round;stroke-miterlimit:10;" x1="416.522" y1="415.05" x2="294.829" y2="415.05"/>
		
			<line style="fill:none;stroke:#1D1D1B;stroke-linecap:round;stroke-linejoin:round;stroke-miterlimit:10;" x1="416.522" y1="437.201" x2="294.829" y2="437.201"/>
		<rect x="303.342" y="445.256" style="fill:#7A5CE0;" width="23.037" height="6.545"/>
		<rect x="337.897" y="445.256" style="fill:#7A5CE0;" width="68.108" height="6.545"/>
		<rect x="303.342" y="423.609" style="fill:#7A5CE0;" width="23.037" height="6.545"/>
		<rect x="337.897" y="423.609" style="fill:#7A5CE0;" width="68.108" height="6.545"/>
		<rect x="303.342" y="401.961" style="fill:#7A5CE0;" width="23.037" height="6.545"/>
		<rect x="337.897" y="401.961" style="fill:#7A5CE0;" width="68.108" height="6.545"/>
		<rect x="303.342" y="380.313" style="fill:#7A5CE0;" width="23.037" height="6.545"/>
		<rect x="337.897" y="380.313" style="fill:#7A5CE0;" width="68.108" height="6.545"/>
		<rect x="303.342" y="358.666" style="fill:#7A5CE0;" width="23.037" height="6.545"/>
		<rect x="337.897" y="358.666" style="fill:#7A5CE0;" width="68.108" height="6.545"/>
	</g>
	<g>
		<ellipse style="fill:#7A5CE0;" cx="381.216" cy="167.36" rx="3.382" ry="3.399"/>
		<path style="fill:#7A5CE0;" d="M409.721,161.487c0,1.877-1.514,3.399-3.382,3.399c-1.868,0-3.382-1.522-3.382-3.399
			s1.514-3.399,3.382-3.399C408.207,158.088,409.721,159.61,409.721,161.487z"/>
		<path style="fill:#7A5CE0;" d="M401.959,156.956c0,1.877-1.514,3.399-3.382,3.399c-1.868,0-3.382-1.522-3.382-3.399
			c0-1.877,1.514-3.399,3.382-3.399C400.445,153.557,401.959,155.079,401.959,156.956z"/>
		<ellipse style="fill:#7A5CE0;" cx="391.592" cy="149.693" rx="3.382" ry="3.399"/>
		<polyline style="fill:none;stroke:#7A5CE0;stroke-linecap:round;stroke-linejoin:round;stroke-miterlimit:10;" points="
			406.437,159.809 407.188,325.187 439.865,358.036 439.865,408.254 420.146,428.077 		"/>
		<polyline style="fill:none;stroke:#7A5CE0;stroke-linecap:round;stroke-linejoin:round;stroke-miterlimit:10;" points="
			391.733,148.482 391.733,314.615 362.812,343.688 		"/>
		
			<line style="fill:none;stroke:#7A5CE0;stroke-linecap:round;stroke-linejoin:round;stroke-miterlimit:10;" x1="398.762" y1="156.683" x2="398.762" y2="339.535"/>
		<polyline style="fill:none;stroke:#7A5CE0;stroke-linecap:round;stroke-linejoin:round;stroke-miterlimit:10;" points="
			381.216,167.36 381.216,310.084 348.539,342.933 		"/>
		<ellipse style="fill:#7A5CE0;" cx="348.497" cy="342.891" rx="3.382" ry="3.399"/>
		<path style="fill:#7A5CE0;" d="M402.543,342.388c0,1.877-1.514,3.399-3.382,3.399c-1.867,0-3.382-1.522-3.382-3.399
			c0-1.877,1.514-3.399,3.382-3.399C401.029,338.989,402.543,340.51,402.543,342.388z"/>
		<ellipse style="fill:#7A5CE0;" cx="419.527" cy="428.979" rx="3.382" ry="3.399"/>
		<ellipse style="fill:#7A5CE0;" cx="362.812" cy="342.891" rx="3.382" ry="3.399"/>
	</g>
</g>
</svg>
