<?xml version="1.0" encoding="utf-8"?>
<!-- Generator: Adobe Illustrator 27.5.0, SVG Export Plug-In . SVG Version: 6.00 Build 0)  -->
<svg version="1.1" xmlns="http://www.w3.org/2000/svg" xmlns:xlink="http://www.w3.org/1999/xlink" x="0px" y="0px"
	 viewBox="0 0 3710 3710" style="enable-background:new 0 0 3710 3710;" xml:space="preserve">
<g id="Background">
	<g>
		<g>
			<rect style="fill:#FFFFFF;" width="3710" height="3710"/>
		</g>
	</g>
</g>
<g id="Illustration">
	<g>
		<path style="fill:#F4F7FA;" d="M2579.177,636.565c93.687,134.119-16.163,351.558,122.852,452.426
			c135.321,98.188,301.56-62.755,429.091,21.765c189.187,125.379,154.637,699.094-121.963,1055.553
			c-83.183,107.199-152.688,148.909-183.47,270.147c-66.101,260.328,166.209,415.188,122.001,543.942
			c-99.541,289.907-1630.411,533.173-2244.664-338.093c-286.881-406.918-329.805-994.511-73.485-1440.79
			C1092.703,395.095,2368.958,335.628,2579.177,636.565z"/>
		<g>
			<path style="fill:#AABBCC;" d="M912.884,2285.584l-22.561-0.189c-1.816-10.211-4.466-20.144-7.965-29.686l19.57-11.084
				c5.339-3.024,7.169-9.826,4.086-15.193l-19.294-33.604c-3.089-5.379-9.933-7.298-15.288-4.283l-19.827,11.163
				c-6.609-7.887-13.884-15.213-21.754-21.876l11.501-19.677c3.101-5.306,1.261-12.175-4.113-15.345l-33.663-19.861
				c-5.393-3.182-12.293-1.456-15.41,3.859l-11.576,19.737c-9.584-3.595-19.574-6.363-29.864-8.303v-23.119
				c0-6.207-5.076-11.323-11.341-11.429l-39.261-0.661c-6.291-0.106-11.395,4.854-11.395,11.079v23.188
				c-10.361,1.634-20.44,4.111-30.127,7.438l-11.724-20.221c-3.161-5.453-10.166-7.416-15.648-4.384l-34.343,19.001
				c-5.502,3.044-7.389,9.943-4.21,15.405l11.768,20.228c-8.051,6.528-15.502,13.751-22.282,21.571l-20.389-11.83
				c-5.521-3.203-12.584-1.435-15.774,3.951l-19.975,33.721c-3.198,5.398-1.301,12.366,4.236,15.56l20.244,11.678
				c-3.614,9.629-6.352,19.676-8.23,30.027l-23.381-0.196c-6.4-0.053-11.592,4.993-11.592,11.272v39.265
				c0,6.279,5.193,11.396,11.592,11.432l23.196,0.127c1.825,10.436,4.534,20.575,8.114,30.312l-19.942,11.228
				c-5.537,3.117-7.435,10.059-4.236,15.501l19.975,33.998c3.19,5.431,10.254,7.296,15.774,4.169l19.791-11.209
				c6.823,8.044,14.352,15.475,22.481,22.219l-11.37,19.387c-3.178,5.418-1.292,12.343,4.21,15.463l34.343,19.476
				c5.482,3.109,12.487,1.241,15.648-4.167l11.227-19.208c9.838,3.546,20.087,6.212,30.624,8.018v22.175
				c0,6.225,5.103,11.256,11.395,11.238l39.261-0.118c6.265-0.019,11.341-5.066,11.341-11.272v-22.109
				c10.465-1.829,20.622-4.509,30.355-8.057l11.086,19.053c3.117,5.358,10.017,7.181,15.41,4.073l33.663-19.395
				c5.373-3.096,7.214-9.939,4.113-15.288l-11.112-19.166c7.947-6.658,15.297-13.985,21.948-21.91l19.244,11.101
				c5.355,3.089,12.199,1.265,15.288-4.072l19.294-33.337c3.082-5.325,1.253-12.151-4.086-15.249l-19.277-11.186
				c3.465-9.551,6.087-19.499,7.852-29.743l22.382,0.122c6.159,0.033,11.149-4.928,11.149-11.082v-38.487
				C924.033,2290.667,919.043,2285.636,912.884,2285.584z M715.774,2201.472c63.209,0.778,114.172,52.015,114.172,114.445
				s-50.963,112.963-114.172,112.869c-63.591-0.095-115.426-51.337-115.426-114.453
				C600.349,2251.217,652.183,2200.689,715.774,2201.472z"/>
			<g>
				<path style="fill:#AABBCC;" d="M1365.762,1552.551l-35.561-0.974c-2.865-15.736-7.045-31.071-12.566-45.836l30.863-16.399
					c8.416-4.472,11.297-14.852,6.441-23.191l-30.421-52.234c-4.872-8.367-15.672-11.547-24.126-7.098l-31.317,16.483
					c-10.447-12.349-21.947-23.859-34.397-34.378l18.19-29.857c4.903-8.048,1.994-18.674-6.502-23.741l-53.283-31.777
					c-8.545-5.096-19.482-2.693-24.424,5.375l-18.358,29.973c-15.208-5.882-31.069-10.507-47.415-13.871v-35.633
					c0-9.566-8.066-17.644-18.024-18.043l-62.481-2.501c-10.025-0.401-18.158,7.064-18.158,16.674v35.795
					c-16.52,2.146-32.598,5.606-48.06,10.393l-18.723-31.674c-5.05-8.544-16.245-11.841-25.007-7.357l-54.955,28.123
					c-8.814,4.51-11.836,15.117-6.745,23.686l18.846,31.718c-12.891,9.82-24.827,20.738-35.691,32.609l-32.696-19.022
					c-8.859-5.154-20.197-2.663-25.32,5.572l-32.093,51.584c-5.141,8.263-2.089,19.128,6.81,24.261l32.518,18.754
					c-5.803,14.802-10.2,30.285-13.216,46.265l-37.575-1.029c-10.294-0.282-18.647,7.384-18.647,17.122v60.901
					c0,9.739,8.353,17.826,18.647,18.063l37.277,0.858c2.931,16.223,7.282,32.008,13.029,47.193l-32.033,16.86
					c-8.899,4.684-11.951,15.396-6.81,23.917l32.093,53.202c5.123,8.493,16.461,11.556,25.32,6.849l31.738-16.865
					c10.934,12.623,22.995,24.307,36.013,34.938l-18.21,29.729c-5.091,8.311-2.069,19.071,6.745,24.026l54.955,30.893
					c8.762,4.925,19.956,2.193,25.007-6.097l17.93-29.429c15.702,5.702,32.053,10.051,48.852,13.078v34.231
					c0,9.61,8.133,17.485,18.158,17.589l62.481,0.649c9.958,0.103,18.024-7.568,18.024-17.134V1861.7
					c16.622-2.584,32.75-6.484,48.193-11.728l17.58,29.588c4.942,8.317,15.879,11.271,24.424,6.606l53.283-29.091
					c8.496-4.639,11.406-15.118,6.502-23.413l-17.575-29.733c12.57-10.048,24.19-21.134,34.703-33.154l30.396,17.531
					c8.453,4.875,19.253,2.239,24.126-5.882l30.421-50.7c4.857-8.094,1.975-18.619-6.441-23.515l-30.401-17.686
					c5.467-14.575,9.603-29.782,12.387-45.464l35.278,0.812c9.702,0.223,17.56-7.25,17.56-16.693v-59.048
					C1383.322,1560.686,1375.464,1552.816,1365.762,1552.551z M1053.665,1416.807c100.429,3.34,181.162,83.861,181.162,179.877
					c0,96.015-80.733,172.473-181.162,170.758c-101.367-1.731-184.24-82.306-184.24-179.954
					C869.425,1489.84,952.298,1413.436,1053.665,1416.807z"/>
				<g>
					<path style="opacity:0.74;fill:#FFFFFF;" d="M1053.665,1060.101c-310.105-15.416-568.084,215.839-568.084,516.925
						c0,301.087,257.979,545.345,568.084,545.56c301.48,0.209,539.792-231.547,539.792-517.638S1355.146,1075.088,1053.665,1060.101
						z M1053.665,1995.552c-235.146-1.542-429.548-187.372-429.548-415.034c0-227.662,194.402-403.694,429.548-393.383
						c230.154,10.092,413.173,195.639,413.173,414.621S1283.819,1997.061,1053.665,1995.552z"/>
					<g>
						<path style="fill:#D8DEE8;" d="M676.936,1777.987l-119.328,63.038c46.475,79.621,112.982,147.043,192.643,195.94
							l67.981-111.125C759.702,1888.322,710.947,1837.551,676.936,1777.987z"/>
						<path style="fill:#D8DEE8;" d="M1393.477,1372.084l110.901-58.445c-45.482-68.329-106.482-126.782-178.339-170.334
							l-64.799,106.067C1313.922,1280.902,1359.05,1322.895,1393.477,1372.084z"/>
						<path style="fill:#D8DEE8;" d="M702.855,1347.304c36.573-48.032,84.152-87.481,139.184-115.276l-67.768-114.357
							c-76.128,37.996-141.575,92.979-190.875,160.214L702.855,1347.304z"/>
						<path style="fill:#D8DEE8;" d="M624.117,1580.518c0-4.87,0.213-9.686,0.39-14.51l-138.714-3.587
							c-0.137,4.852-0.212,9.719-0.212,14.606c0,86.574,21.594,168.796,59.857,241.975l119.833-63.152
							C638.938,1702.396,624.117,1642.953,624.117,1580.518z"/>
						<path style="opacity:0.25;fill:#AABBCC;" d="M1466.838,1601.757c0,60.054-13.729,116.68-38.215,167.3l110.506,64.217
							c34.794-68.643,54.328-146.064,54.328-228.326c0-4.643-0.068-9.271-0.192-13.888l-126.788-3.279
							C1466.642,1592.43,1466.838,1597.072,1466.838,1601.757z"/>
						<path style="opacity:0.25;fill:#AABBCC;" d="M1417.741,1790.068c-31.861,56.682-77.874,104.838-133.647,140.275
							l64.724,109.364c74.846-46.531,136.523-110.417,179.195-185.699L1417.741,1790.068z"/>
						<path style="fill:#D8DEE8;" d="M1406.884,1392.367c31.702,51.43,52.147,109.778,58.091,171.754l127.108,3.428
							c-6.088-84.211-32.565-163.634-74.759-233.526L1406.884,1392.367z"/>
						<path style="opacity:0.25;fill:#AABBCC;" d="M1041.115,1995.166c-72.752-2.524-141.309-22.67-201.104-56.298l-67.766,110.923
							c80.029,44.398,171.775,70.497,268.87,72.635V1995.166z"/>
						<path style="opacity:0.25;fill:#AABBCC;" d="M1263.191,1942.709c-57.818,32.098-124.886,51.064-196.986,52.621v127.113
							c96.011-1.983,185.18-27.463,261.76-70.429L1263.191,1942.709z"/>
						<path style="fill:#D8DEE8;" d="M864.561,1221.46c53.74-23.21,113.58-35.559,176.553-34.57v-127.26
							c-87.277-2.476-170.238,14.622-244.26,47.427L864.561,1221.46z"/>
						<path style="fill:#D8DEE8;" d="M626.131,1541.497c6.419-64.044,28.44-123.25,62.417-174.237l-119.263-69.151
							c-46.238,69.884-75.446,151.434-82.183,239.639L626.131,1541.497z"/>
						<path style="fill:#D8DEE8;" d="M1066.204,1187.99c62.465,4.498,121.156,21.849,173.322,49.182l65.006-106.26
							c-71.109-39.022-151.947-63.896-238.327-70.035V1187.99z"/>
					</g>
				</g>
			</g>
			<path style="fill:#D8DEE8;" d="M1843.174,811.075l-17.346,0.143c-1.396-7.548-3.432-14.879-6.121-21.908l15.043-8.471
				c4.105-2.312,5.513-7.379,3.142-11.32l-14.833-24.662c-2.374-3.947-7.633-5.278-11.748-2.971l-15.229,8.539
				c-5.075-5.757-10.66-11.088-16.701-15.919l8.829-14.736c2.381-3.973,0.968-9.039-3.157-11.313l-25.829-14.246
				c-4.137-2.281-9.427-0.906-11.817,3.073l-8.873,14.775c-7.346-2.53-15-4.442-22.882-5.736v-17.111
				c0-4.594-3.887-8.309-8.684-8.299l-30.047,0.066c-4.813,0.01-8.716,3.751-8.716,8.355v17.148
				c-7.923,1.351-15.627,3.322-23.03,5.915l-8.958-14.786c-2.416-3.986-7.766-5.339-11.952-3.022l-26.215,14.516
				c-4.198,2.324-5.637,7.445-3.212,11.436l8.98,14.784c-6.143,4.931-11.827,10.365-16.998,16.231l-15.547-8.466
				c-4.209-2.292-9.592-0.893-12.023,3.127l-15.218,25.154c-2.436,4.026-0.991,9.143,3.227,11.43l15.424,8.362
				c-2.753,7.154-4.84,14.607-6.271,22.271l-17.811,0.147c-4.873,0.04-8.827,3.828-8.827,8.462v28.973
				c0,4.634,3.953,8.349,8.827,8.298l17.669-0.182c1.39,7.682,3.455,15.135,6.183,22.282l-15.194,8.519
				c-4.218,2.365-5.663,7.509-3.227,11.49l15.218,24.872c2.432,3.974,7.815,5.273,12.023,2.904l15.09-8.497
				c5.204,5.866,10.948,11.272,17.152,16.165l-8.677,14.445c-2.424,4.037-0.986,9.131,3.212,11.377l26.215,14.03
				c4.187,2.24,9.537,0.787,11.952-3.245l8.578-14.318c7.518,2.517,15.353,4.378,23.409,5.603v16.399
				c0,4.604,3.903,8.272,8.716,8.194l30.047-0.492c4.798-0.078,8.684-3.866,8.684-8.46v-16.363c8.016-1.465,15.8-3.557,23.258-6.288
				l8.498,13.99c2.39,3.935,7.681,5.212,11.817,2.855l25.829-14.725c4.125-2.351,5.538-7.442,3.157-11.372l-8.53-14.079
				c6.1-5.02,11.742-10.531,16.849-16.479l14.782,8.013c4.114,2.231,9.374,0.803,11.748-3.188l14.833-24.937
				c2.37-3.984,0.963-9.026-3.142-11.262l-14.818-8.069c2.664-7.122,4.678-14.529,6.036-22.145l17.207-0.177
				c4.738-0.049,8.576-3.789,8.576-8.354V819.27C1851.75,814.705,1847.911,811.036,1843.174,811.075z M1691.953,751.311
				c48.413-0.263,87.502,37.022,87.502,83.276c0,46.253-39.089,84.264-87.502,84.901c-48.63,0.64-88.211-36.64-88.211-83.269
				C1603.742,789.59,1643.323,751.575,1691.953,751.311z"/>
		</g>
		<g>
			<path style="fill:#AABBCC;" d="M3041.776,1861.987c28.44,14.44,64.17,1.182,79.807-29.614
				c15.635-30.795,5.255-67.466-23.186-81.905c-1.474-0.748-2.977-1.377-4.486-1.978c5.284-17.04,9.268-34.214,11.94-51.394
				c1.631-0.005,3.266-0.032,4.928-0.181c32.448-2.892,58.2-32.708,57.521-66.598c-0.679-33.891-27.534-59.018-59.982-56.126
				c-1.696,0.152-3.362,0.419-5.018,0.714c-3.389-16.795-8.033-33.2-13.892-49.078c1.492-0.873,2.977-1.776,4.428-2.792
				c27.761-19.449,36.636-57.836,19.824-85.739c-16.812-27.902-52.947-34.755-80.707-15.307c-1.422,0.998-2.761,2.074-4.083,3.167
				c-10.965-12.121-22.991-23.354-36.002-33.606c0.915-1.5,1.811-3.02,2.62-4.615c15.635-30.795,36.067-64.435,7.404-78.428
				c-66.307-32.369-94.76-4.659-110.396,26.136c-0.81,1.595-1.508,3.215-2.179,4.839c-15.955-4.455-32.12-7.535-48.376-9.234
				c0.1-1.713,0.18-3.427,0.145-5.165c-0.679-33.889,9.376-52.228-23.195-52.862c-71.026-1.38-94.989,29.448-94.309,63.335
				c0.034,1.772,0.183,3.503,0.359,5.224c-16.276,4.64-32.262,10.572-47.821,17.745c-0.74-1.511-1.507-3.013-2.385-4.473
				c-16.812-27.903-52.946-34.756-80.708-15.305c-27.761,19.451-36.636,57.837-19.824,85.739c0.861,1.43,1.804,2.767,2.763,4.086
				c-12.294,12.295-23.807,25.645-34.447,39.967c-1.375-0.863-2.771-1.707-4.243-2.455c-28.441-14.441-64.171-1.181-79.808,29.614
				c-15.635,30.795-5.254,67.466,23.186,81.905c1.474,0.748,2.978,1.377,4.486,1.979c-5.284,17.04-9.268,34.213-11.94,51.394
				c-1.63,0.005-3.266,0.031-4.927,0.179c-32.449,2.894-58.202,32.71-57.522,66.6c0.679,33.89,27.536,59.016,59.984,56.124
				c1.695-0.15,3.36-0.417,5.017-0.712c3.39,16.795,8.033,33.2,13.891,49.078c-1.492,0.873-2.977,1.776-4.428,2.792
				c-27.761,19.448-36.636,57.835-19.824,85.739c16.812,27.902,72.472,40.866,100.233,21.417c1.423-0.997-16.765-8.184-15.443-9.276
				c10.967,12.121,22.991,23.354,36.003,33.606c-0.914,1.5-1.811,3.02-2.62,4.615c-15.636,30.795-5.255,67.466,23.186,81.905
				c28.44,14.439,64.171,1.182,79.806-29.614c0.81-1.595,1.508-3.216,2.179-4.838c15.954,4.454,32.119,7.534,48.375,9.234
				c-0.101,1.712-0.18,3.427-0.145,5.165c0.68,33.889,27.534,59.017,59.982,56.125c32.448-2.893,58.201-32.711,57.521-66.599
				c-0.035-1.771-0.183-3.502-0.359-5.223c16.277-4.639,32.262-10.571,47.821-17.746c0.739,1.512,1.507,3.014,2.386,4.471
				c16.812,27.903,52.945,34.758,80.707,15.307c27.761-19.45,36.637-57.836,19.825-85.74c-0.863-1.428-1.806-2.765-2.764-4.084
				c12.294-12.295,23.807-25.645,34.446-39.967C3038.907,1860.396,3040.302,1861.239,3041.776,1861.987z M2687.237,1866.486
				c-103.261-52.428-140.952-185.568-84.182-297.38c56.769-111.812,186.498-159.95,289.76-107.522
				c103.26,52.429,140.951,185.569,84.181,297.38C2920.228,1870.775,2790.499,1918.914,2687.237,1866.486z"/>
			<path style="fill:#AABBCC;" d="M3110.779,1696.916c32.448-2.893,58.2-32.711,57.521-66.599
				c-0.679-33.89-27.534-59.019-59.982-56.126c-1.696,0.151-3.362,0.419-5.018,0.713c-3.389-16.795-8.033-33.199-13.892-49.078
				c1.492-0.872,2.977-1.776,4.428-2.793c27.761-19.448,62.106-66.443,42.52-92.473c-37.172-49.405-75.642-28.02-103.403-8.572
				c-1.422,0.998-2.761,2.073-4.083,3.165c-10.965-12.121-22.991-23.353-36.002-33.606c0.915-1.5,1.811-3.019,2.62-4.614
				c8.51-16.759,9.261-35.238,3.641-50.948c-26.814,47.193-53.267,94.585-79.246,142.235
				c82.379,60.365,108.606,179.325,57.114,280.745c-43.635,85.943-130.372,134.201-215.066,128.153
				c-3.778,9.798-7.488,19.648-11.532,29.352c-10.979,26.332-23.451,52.122-35.938,77.879c7.853,1.481,15.742,2.647,23.652,3.474
				c-0.102,1.713-0.181,3.428-0.146,5.165c0.68,33.89,21.254,62.683,80.062,59.564c32.531-1.726,38.122-36.149,37.442-70.038
				c-0.035-1.77-0.183-3.502-0.358-5.222c16.276-4.639,32.261-10.573,47.82-17.746c0.739,1.512,1.507,3.014,2.386,4.471
				c16.812,27.905,75.136,39.76,102.897,20.31c27.762-19.45,14.446-62.839-2.365-90.742c-0.863-1.429-1.806-2.766-2.764-4.085
				c12.294-12.294,23.807-25.645,34.446-39.966c1.375,0.864,2.771,1.707,4.244,2.453c28.44,14.442,64.17,1.182,79.807-29.614
				c15.635-30.794,5.255-67.466-23.186-81.905c-1.474-0.748-2.977-1.376-4.486-1.977c5.284-17.04,9.268-34.215,11.94-51.393
				C3107.48,1697.091,3109.117,1697.063,3110.779,1696.916z"/>
			<path style="fill:#D8DEE8;" d="M3072.365,1865.466c28.44,14.44,64.171,1.181,79.806-29.614
				c15.635-30.796,5.254-67.466-23.186-81.905c-1.473-0.749-2.977-1.378-4.486-1.979c5.284-17.04,9.269-34.214,11.94-51.394
				c1.63-0.005,3.266-0.032,4.928-0.181c32.448-2.892,58.201-32.709,57.522-66.598c-0.679-33.89-27.534-59.019-59.983-56.126
				c-1.697,0.152-3.362,0.42-5.018,0.714c-3.39-16.795-8.034-33.2-13.893-49.078c1.493-0.873,2.979-1.776,4.429-2.793
				c27.76-19.449,36.636-57.835,19.824-85.739c-16.813-27.903-52.947-34.756-80.707-15.307c-1.423,0.997-2.762,2.073-4.084,3.166
				c-10.965-12.122-22.991-23.354-36.002-33.606c0.915-1.5,1.811-3.02,2.62-4.615c15.635-30.795,5.255-67.466-23.186-81.906
				c-28.441-14.439-64.172-1.18-79.807,29.615c-0.81,1.595-1.508,3.214-2.179,4.838c-15.954-4.455-32.12-7.535-48.376-9.235
				c0.102-1.712,0.181-3.428,0.146-5.164c-0.68-33.889-27.535-59.017-59.983-56.125c-32.448,2.892-58.201,32.71-57.521,66.598
				c0.036,1.772,0.184,3.503,0.359,5.224c-16.276,4.64-32.261,10.571-47.82,17.745c-0.74-1.511-1.507-3.013-2.385-4.472
				c-16.812-27.904-52.947-34.756-80.708-15.306c-27.762,19.451-36.636,57.836-19.823,85.739c0.86,1.429,1.803,2.766,2.762,4.086
				c-12.294,12.295-23.808,25.645-34.446,39.966c-1.376-0.862-2.771-1.706-4.245-2.453c-28.44-14.441-64.171-1.182-79.806,29.614
				c-15.635,30.795-5.255,67.466,23.185,81.905c1.473,0.747,2.978,1.376,4.486,1.978c-5.284,17.041-9.269,34.214-11.94,51.394
				c-1.63,0.004-3.266,0.031-4.928,0.178c-32.448,2.894-58.201,32.711-57.522,66.6c0.679,33.891,27.536,59.017,59.983,56.125
				c1.696-0.15,3.362-0.417,5.018-0.712c3.389,16.794,8.033,33.2,13.892,49.079c-1.493,0.873-2.978,1.775-4.429,2.792
				c-27.76,19.448-36.636,57.836-19.824,85.738c16.813,27.903,52.948,34.756,80.707,15.307c1.423-0.997,2.762-2.073,4.084-3.165
				c10.965,12.121,22.99,23.354,36.001,33.606c-0.915,1.5-1.811,3.02-2.621,4.615c-15.635,30.795-5.254,67.466,23.186,81.905
				c28.441,14.44,64.172,1.181,79.807-29.614c0.81-1.595,1.508-3.216,2.179-4.838c15.954,4.454,32.12,7.535,48.376,9.234
				c-0.102,1.712-0.181,3.427-0.146,5.165c0.68,33.889,27.536,59.016,59.983,56.125c32.448-2.892,58.202-32.71,57.521-66.599
				c-0.036-1.771-0.184-3.503-0.359-5.223c16.277-4.64,32.261-10.572,47.82-17.746c0.74,1.511,1.507,3.014,2.386,4.471
				c16.813,27.903,52.946,34.757,80.707,15.307c27.762-19.451,36.636-57.836,19.825-85.74c-0.861-1.428-1.805-2.765-2.764-4.084
				c12.294-12.295,23.808-25.646,34.447-39.967C3069.497,1863.875,3070.891,1864.718,3072.365,1865.466z M2717.827,1869.964
				c-103.262-52.428-140.951-185.568-84.183-297.38c56.769-111.811,186.499-159.949,289.76-107.521
				c103.261,52.428,140.951,185.569,84.182,297.38C2950.818,1874.254,2821.087,1922.392,2717.827,1869.964z"/>
		</g>
		<g>
			<g>
				<g>
					
						<linearGradient id="SVGID_1_" gradientUnits="userSpaceOnUse" x1="-1417.8239" y1="1496.0796" x2="-880.316" y2="1496.0796" gradientTransform="matrix(-0.7456 -0.6664 -0.6664 0.7456 2332.8303 374.6136)">
						<stop  offset="0" style="stop-color:#444B8C"/>
						<stop  offset="0.9964" style="stop-color:#26264F"/>
					</linearGradient>
					<path style="fill:url(#SVGID_1_);" d="M2246.916,1905.883c0,0,221.364,280.807-6.39,697.302
						c-21.215,38.797-76.679,39.643-99.268,1.629l-143.901-242.152c-23.071-38.822-28.679-85.58-15.444-128.758l67.949-221.678
						L2246.916,1905.883z"/>
					
						<linearGradient id="SVGID_00000112604495103266257650000001281082948251582089_" gradientUnits="userSpaceOnUse" x1="-355.0473" y1="1496.0583" x2="182.4734" y2="1496.0583" gradientTransform="matrix(-0.7456 -0.6664 -0.6664 0.7456 2332.8303 374.6136)">
						<stop  offset="0" style="stop-color:#444B8C"/>
						<stop  offset="0.9964" style="stop-color:#26264F"/>
					</linearGradient>
					<path style="fill:url(#SVGID_00000112604495103266257650000001281082948251582089_);" d="M1741.875,1454.472
						c0,0-303.794-188.585-692.216,84.301c-36.182,25.419-30.822,80.63,9.478,98.828l256.721,115.929
						c41.158,18.586,88.25,18.932,129.677,0.954l212.693-92.305L1741.875,1454.472z"/>
				</g>
				<g>
					
						<linearGradient id="SVGID_00000112604502832752331230000017254416563230405267_" gradientUnits="userSpaceOnUse" x1="-1417.8247" y1="1458.2653" x2="-880.3167" y2="1458.2653" gradientTransform="matrix(-0.7456 -0.6664 -0.6664 0.7456 2332.8303 374.6136)">
						<stop  offset="0" style="stop-color:#AA80F9"/>
						<stop  offset="0.9964" style="stop-color:#6165D7"/>
					</linearGradient>
					<path style="fill:url(#SVGID_00000112604502832752331230000017254416563230405267_);" d="M2272.116,1877.689
						c0,0,221.364,280.808-6.389,697.302c-21.216,38.797-76.679,39.643-99.269,1.63l-143.901-242.152
						c-23.07-38.823-28.679-85.581-15.444-128.758l67.949-221.678L2272.116,1877.689z"/>
					
						<linearGradient id="SVGID_00000024707167447223930850000006426171315857340552_" gradientUnits="userSpaceOnUse" x1="1051.444" y1="1919.6576" x2="1993.7908" y2="1438.8677" gradientTransform="matrix(0.9857 0.1683 -0.1683 0.9857 531.9937 -463.9746)">
						<stop  offset="0" style="stop-color:#AA80F9"/>
						<stop  offset="0.9964" style="stop-color:#6165D7"/>
					</linearGradient>
					<path style="fill:url(#SVGID_00000024707167447223930850000006426171315857340552_);" d="M1767.075,1426.278
						c0,0-303.794-188.585-692.217,84.301c-36.182,25.42-30.822,80.629,9.478,98.828l256.722,115.929
						c41.158,18.586,88.25,18.933,129.677,0.954l212.693-92.305L1767.075,1426.278z"/>
				</g>
				
					<linearGradient id="SVGID_00000039135297754090526040000010232415500803328651_" gradientUnits="userSpaceOnUse" x1="-931.2098" y1="1102.5823" x2="217.3299" y2="-106.2209" gradientTransform="matrix(-0.7456 -0.6664 -0.6664 0.7456 2332.8303 374.6136)">
					<stop  offset="0" style="stop-color:#FFC444"/>
					<stop  offset="0.9964" style="stop-color:#F36F56"/>
				</linearGradient>
				<path style="fill:url(#SVGID_00000039135297754090526040000010232415500803328651_);" d="M2054.884,769.752
					c353.007-316.392,897.321-162.148,897.575-161.459c0.714,0.176,214.817,523.866-60.106,909.999
					c-249.372,350.245-771.425,584.379-871.577,626.995c-10.773,4.584-28.179,10.705-33.807,0.438
					c-109.431-199.651-264.24-330.927-455.008-406.474c-10.558-4.181-6.123-21.849-2.877-32.731
					C1559.774,1603.647,1734.131,1057.235,2054.884,769.752z"/>
				<g style="opacity:0.3;">
					
						<linearGradient id="SVGID_00000163765564263043366640000013296928586822286514_" gradientUnits="userSpaceOnUse" x1="-1024.379" y1="1014.0612" x2="124.1615" y2="-194.743" gradientTransform="matrix(-0.7456 -0.6664 -0.6664 0.7456 2332.8303 374.6136)">
						<stop  offset="0" style="stop-color:#FFC444"/>
						<stop  offset="0.9964" style="stop-color:#F36F56"/>
					</linearGradient>
					<path style="fill:url(#SVGID_00000163765564263043366640000013296928586822286514_);" d="M2239.143,1290.974
						c197.444-175.514,367.634-88.588,557.284-240.473c69.25-55.46,146.865-147.386,197.185-311.214
						c45.242,180.15,88.585,512.367-101.259,779.005c-249.371,350.245-771.425,584.379-871.576,626.995
						c-10.773,4.584-28.179,10.705-33.807,0.438c-55.283-100.862-122.163-184.247-199.395-251.838
						c72.548-37.433,125.628-80.973,165.463-123.227C2113.696,1600.246,2059.245,1450.892,2239.143,1290.974z"/>
				</g>
				
					<linearGradient id="SVGID_00000153664624942598663390000010986129647697442231_" gradientUnits="userSpaceOnUse" x1="-1091.749" y1="-13.8578" x2="-143.6618" y2="-13.8578" gradientTransform="matrix(-0.7456 -0.6664 -0.6664 0.7456 2332.8303 374.6136)">
					<stop  offset="0" style="stop-color:#AA80F9"/>
					<stop  offset="0.9964" style="stop-color:#6165D7"/>
				</linearGradient>
				<path style="fill:url(#SVGID_00000153664624942598663390000010986129647697442231_);" d="M2716.212,872.613
					c-122.207-109.231-274.656-210.623-414.21-247.926c273.548-97.315,562.466-38.355,633.82-20.821
					c10.567,2.597,19.139,10.259,22.9,20.47c25.398,68.948,116.274,349.468,50.162,632.169
					C2965.279,1136.44,2838.418,981.842,2716.212,872.613z"/>
				
					<linearGradient id="SVGID_00000008113795894374827690000001260765854730272166_" gradientUnits="userSpaceOnUse" x1="-962.8366" y1="161.557" x2="-532.5237" y2="-291.3343" gradientTransform="matrix(-0.7456 -0.6664 -0.6664 0.7456 2332.8303 374.6136)">
					<stop  offset="0" style="stop-color:#AA80F9"/>
					<stop  offset="0.9964" style="stop-color:#6165D7"/>
				</linearGradient>
				<path style="opacity:0.3;fill:url(#SVGID_00000008113795894374827690000001260765854730272166_);" d="M2993.608,739.299
					c0.211,0.841,0.423,1.684,0.634,2.532c0.358,1.438,0.716,2.88,1.074,4.336c0.356,1.45,0.711,2.917,1.067,4.386
					c0.337,1.396,0.675,2.794,1.011,4.206c0.372,1.559,0.743,3.133,1.113,4.711c0.317,1.352,0.634,2.708,0.951,4.075
					c0.386,1.668,0.771,3.351,1.155,5.041c0.299,1.314,0.597,2.631,0.895,3.959c0.397,1.773,0.793,3.561,1.188,5.356
					c0.281,1.272,0.56,2.548,0.838,3.832c0.408,1.88,0.813,3.775,1.217,5.678c0.261,1.229,0.521,2.461,0.781,3.699
					c0.414,1.978,0.826,3.971,1.235,5.974c0.248,1.206,0.494,2.416,0.739,3.631c0.415,2.059,0.828,4.132,1.237,6.215
					c0.232,1.178,0.463,2.358,0.693,3.544c0.418,2.156,0.834,4.328,1.246,6.512c0.215,1.139,0.429,2.281,0.643,3.427
					c0.418,2.245,0.832,4.505,1.243,6.777c0.201,1.111,0.402,2.225,0.6,3.343c0.416,2.336,0.828,4.685,1.236,7.048
					c0.185,1.074,0.369,2.151,0.553,3.231c0.412,2.42,0.819,4.853,1.22,7.3c0.172,1.051,0.344,2.106,0.515,3.162
					c0.404,2.498,0.803,5.009,1.196,7.534c0.16,1.026,0.318,2.056,0.476,3.087c0.394,2.57,0.783,5.153,1.164,7.75
					c0.149,1.006,0.295,2.016,0.441,3.026c0.383,2.649,0.761,5.309,1.13,7.984c0.135,0.974,0.267,1.951,0.4,2.928
					c0.37,2.727,0.734,5.466,1.091,8.22c0.122,0.945,0.242,1.894,0.362,2.842c0.356,2.8,0.705,5.612,1.044,8.438
					c0.111,0.92,0.219,1.845,0.328,2.767c0.339,2.879,0.671,5.771,0.993,8.676c0.096,0.875,0.191,1.755,0.287,2.633
					c0.321,2.962,0.635,5.935,0.938,8.923c0.086,0.845,0.168,1.694,0.252,2.541c0.3,3.031,0.593,6.073,0.872,9.13
					c0.076,0.824,0.148,1.653,0.222,2.48c0.277,3.088,0.545,6.187,0.798,9.3c0.066,0.809,0.129,1.622,0.194,2.433
					c0.25,3.154,0.493,6.316,0.72,9.494c0.055,0.772,0.106,1.547,0.16,2.319c0.224,3.222,0.438,6.455,0.637,9.702
					c0.046,0.747,0.088,1.498,0.133,2.247c0.196,3.288,0.38,6.586,0.548,9.897c0.036,0.708,0.068,1.419,0.103,2.127
					c0.164,3.358,0.317,6.725,0.453,10.105c0.027,0.68,0.05,1.365,0.076,2.047c0.13,3.422,0.25,6.852,0.349,10.296
					c0.019,0.64,0.033,1.283,0.051,1.923c0.095,3.49,0.178,6.99,0.24,10.502c0.011,0.607,0.018,1.218,0.027,1.826
					c0.058,3.554,0.102,7.117,0.125,10.694c0.003,0.568,0.003,1.139,0.006,1.708c0.017,3.617,0.021,7.241,0.001,10.879
					c-0.003,0.544-0.01,1.091-0.014,1.635c-0.024,3.675-0.064,7.357-0.128,11.051c-0.008,0.491-0.021,0.984-0.031,1.475
					c-0.069,3.751-0.156,7.511-0.267,11.282c-0.013,0.442-0.03,0.886-0.043,1.328c-0.117,3.821-0.252,7.649-0.413,11.489
					c-0.017,0.398-0.037,0.797-0.054,1.195c-0.168,3.891-0.354,7.791-0.567,11.7c-0.019,0.331-0.04,0.663-0.059,0.993
					c-0.221,3.978-0.463,7.963-0.733,11.957c-0.018,0.264-0.039,0.529-0.057,0.794c-0.279,4.062-0.579,8.131-0.91,12.209
					c-0.015,0.193-0.033,0.388-0.05,0.581c-0.339,4.152-0.703,8.312-1.098,12.481c-0.009,0.099-0.021,0.198-0.029,0.296
					c-3.71,39.007-9.893,78.635-19.172,118.307c-27.868-76.735-89.764-167.565-162.698-251.653
					C2900.656,947.82,2955.117,864.61,2993.608,739.299z"/>
				
					<linearGradient id="SVGID_00000108289095736866903350000017153606753132332716_" gradientUnits="userSpaceOnUse" x1="-999.9089" y1="629.52" x2="-235.4854" y2="629.52" gradientTransform="matrix(-0.7456 -0.6664 -0.6664 0.7456 2332.8303 374.6136)">
					<stop  offset="0.0036" style="stop-color:#EBEFF2"/>
					<stop  offset="1" style="stop-color:#FFFFFF"/>
				</linearGradient>
				<path style="fill:url(#SVGID_00000108289095736866903350000017153606753132332716_);" d="M2088.901,1000.906
					c-126.688,141.739-101.803,370.68,55.582,511.353s387.673,139.809,514.362-1.93c126.688-141.739,101.803-370.68-55.583-511.354
					C2445.877,858.302,2215.589,859.166,2088.901,1000.906z"/>
				
					<linearGradient id="SVGID_00000074414010813237379720000012640101333732633473_" gradientUnits="userSpaceOnUse" x1="-999.9087" y1="642.0482" x2="-235.4783" y2="642.0482" gradientTransform="matrix(-0.7456 -0.6664 -0.6664 0.7456 2332.8303 374.6136)">
					<stop  offset="0.0036" style="stop-color:#EBEFF2"/>
					<stop  offset="1" style="stop-color:#FFFFFF"/>
				</linearGradient>
				<path style="fill:url(#SVGID_00000074414010813237379720000012640101333732633473_);" d="M2239.143,1290.974
					c161.12-143.225,304.094-111.708,454.301-177.792c70.392,131.413,61.663,289.448-34.598,397.146
					c-126.688,141.74-356.976,142.604-514.362,1.931c-12.873-11.506-24.841-23.613-35.931-36.204
					C2134.123,1414.715,2168.629,1353.656,2239.143,1290.974z"/>
				
					<linearGradient id="SVGID_00000029740615569528411520000002236034499109400508_" gradientUnits="userSpaceOnUse" x1="-498.9019" y1="385.2052" x2="-686.7827" y2="771.6017" gradientTransform="matrix(-0.7456 -0.6664 -0.6664 0.7456 2332.8303 374.6136)">
					<stop  offset="0.0036" style="stop-color:#EBEFF2"/>
					<stop  offset="1" style="stop-color:#FFFFFF"/>
				</linearGradient>
				<path style="fill:url(#SVGID_00000029740615569528411520000002236034499109400508_);" d="M2112.663,1022.144
					c-116.125,129.921-93.315,339.772,50.948,468.716c144.262,128.944,355.348,128.152,471.474-1.769
					c116.125-129.921,93.314-339.772-50.948-468.716C2439.873,891.431,2228.787,892.222,2112.663,1022.144z"/>
				
					<linearGradient id="SVGID_00000060010379787318128880000004377649539161585553_" gradientUnits="userSpaceOnUse" x1="-950.6392" y1="1115.3843" x2="-381.4798" y2="284.8073" gradientTransform="matrix(-0.7456 -0.6664 -0.6664 0.7456 2332.8303 374.6136)">
					<stop  offset="0" style="stop-color:#444B8C"/>
					<stop  offset="0.9964" style="stop-color:#26264F"/>
				</linearGradient>
				<path style="fill:url(#SVGID_00000060010379787318128880000004377649539161585553_);" d="M2146.332,1052.237
					c-101.157,113.175-81.287,295.977,44.381,408.3c125.668,112.323,309.545,111.633,410.702-1.541
					c101.156-113.175,81.286-295.977-44.381-408.3C2431.366,938.373,2247.488,939.063,2146.332,1052.237z"/>
				
					<linearGradient id="SVGID_00000170240630394356461210000013102405671916583083_" gradientUnits="userSpaceOnUse" x1="-638.322" y1="1838.0002" x2="-614.6877" y2="1529.572" gradientTransform="matrix(-0.7456 -0.6664 -0.6664 0.7456 2332.8303 374.6136)">
					<stop  offset="0" style="stop-color:#FFC444"/>
					<stop  offset="0.9964" style="stop-color:#F36F56"/>
				</linearGradient>
				<path style="fill:url(#SVGID_00000170240630394356461210000013102405671916583083_);" d="M1521.075,1730.839
					c-34.567,38.673,43.522,164.867,174.416,281.862c130.894,116.995,265.026,180.487,299.593,141.814
					c34.567-38.673-43.523-164.867-174.417-281.862C1689.774,1755.658,1555.642,1692.166,1521.075,1730.839z"/>
				
					<linearGradient id="SVGID_00000171693434825789381140000010548057907156611470_" gradientUnits="userSpaceOnUse" x1="-879.6536" y1="1618.3008" x2="-355.6983" y2="1618.3008" gradientTransform="matrix(-0.7456 -0.6664 -0.6664 0.7456 2332.8303 374.6136)">
					<stop  offset="0" style="stop-color:#AA80F9"/>
					<stop  offset="0.9964" style="stop-color:#6165D7"/>
				</linearGradient>
				<path style="fill:url(#SVGID_00000171693434825789381140000010548057907156611470_);" d="M1738.801,1863.777l101.719,90.918
					c54.12,48.374,73.511,124.728,49.03,193.063l-23.231,64.844c-8.55,23.866-38.544,31.484-57.446,14.589l-337.323-301.503
					c-18.901-16.895-14.685-47.553,8.076-58.717l61.84-30.333C1606.636,1804.67,1684.68,1815.404,1738.801,1863.777z"/>
				
					<linearGradient id="SVGID_00000052785447118497133830000015092553532617769600_" gradientUnits="userSpaceOnUse" x1="-582.8488" y1="1607.7344" x2="-711.6572" y2="1995.342" gradientTransform="matrix(-0.7456 -0.6664 -0.6664 0.7456 2332.8303 374.6136)">
					<stop  offset="0" style="stop-color:#AA80F9"/>
					<stop  offset="0.9964" style="stop-color:#6165D7"/>
				</linearGradient>
				<path style="fill:url(#SVGID_00000052785447118497133830000015092553532617769600_);" d="M1456.641,1888.042
					c-32.62,36.495,28.508,144.352,136.532,240.905c108.024,96.553,222.038,145.24,254.658,108.746
					c32.619-36.495-28.508-144.351-136.533-240.904C1603.275,1900.234,1489.261,1851.547,1456.641,1888.042z"/>
				
					<linearGradient id="SVGID_00000143598918389506759650000015975563063821432230_" gradientUnits="userSpaceOnUse" x1="-591.1881" y1="1632.8291" x2="-689.0825" y2="1927.411" gradientTransform="matrix(-0.7456 -0.6664 -0.6664 0.7456 2332.8303 374.6136)">
					<stop  offset="0" style="stop-color:#444B8C"/>
					<stop  offset="0.9964" style="stop-color:#26264F"/>
				</linearGradient>
				<path style="fill:url(#SVGID_00000143598918389506759650000015975563063821432230_);" d="M1503.584,1930
					c-24.791,27.736,21.666,109.707,103.764,183.087c82.099,73.381,168.749,110.383,193.54,82.647
					c24.791-27.736-21.666-109.707-103.764-183.088C1615.026,1939.266,1528.375,1902.264,1503.584,1930z"/>
				<g style="opacity:0.3;">
					
						<linearGradient id="SVGID_00000178175907742923586980000015523134314509872528_" gradientUnits="userSpaceOnUse" x1="-986.0245" y1="1091.1324" x2="-416.873" y2="260.5671" gradientTransform="matrix(-0.7456 -0.6664 -0.6664 0.7456 2332.8303 374.6136)">
						<stop  offset="0" style="stop-color:#444B8C"/>
						<stop  offset="0.9964" style="stop-color:#26264F"/>
					</linearGradient>
					<path style="fill:url(#SVGID_00000178175907742923586980000015523134314509872528_);" d="M2239.143,1290.974
						c137.032-121.813,260.938-117.227,387.331-153.785c58.966,105.84,52.953,234.526-25.059,321.806
						c-101.157,113.175-285.034,113.866-410.702,1.542c-18.368-16.418-34.457-34.348-48.256-53.34
						C2165.015,1368.781,2195.021,1330.195,2239.143,1290.974z"/>
				</g>
			</g>
			
				<linearGradient id="SVGID_00000017508431677282603180000005462359914446978944_" gradientUnits="userSpaceOnUse" x1="-1069.4426" y1="3372.5933" x2="479.7838" y2="1742.0792" gradientTransform="matrix(0.5933 0.0332 -0.0387 0.6933 1360.853 675.0366)">
				<stop  offset="0" style="stop-color:#FFC444"/>
				<stop  offset="0.9964" style="stop-color:#F36F56"/>
			</linearGradient>
			<path style="fill:url(#SVGID_00000017508431677282603180000005462359914446978944_);" d="M903.541,2578.849
				c0,0,327.442-167.875,566.61-458.691c2.719-3.306,34.792-39.904,70.78-86.834c20.74-27.046,26.713-36.654,28.407-35.128
				c15.802,14.242-391.939,951.883-799.537,929.189c-142.432-7.93-284.376-99.931-280.115-164.734
				C494.014,2696.818,646.138,2710.816,903.541,2578.849z"/>
			
				<linearGradient id="SVGID_00000173881664672872353650000011604305588513480358_" gradientUnits="userSpaceOnUse" x1="1148.9926" y1="2294.1064" x2="486.8769" y2="3324.8242" gradientTransform="matrix(0.9929 0.1192 -0.1192 0.9929 447.5323 -477.8984)">
				<stop  offset="0" style="stop-color:#FFC444"/>
				<stop  offset="0.9964" style="stop-color:#F36F56"/>
			</linearGradient>
			<path style="fill:url(#SVGID_00000173881664672872353650000011604305588513480358_);" d="M1554.903,2011.885
				c18.321,33.906-168.239,177.509-335.251,272.563c-29.114,16.57-106.375,59.374-214.997,101.372
				c-178.897,69.168-285.649,117.163-328.589,73.979c-28.062-28.222-22.82-88.212-1.885-127.42
				c42.638-79.85,134.83-44.394,228.827-130.65c76.001-69.743,51.772-125.996,119.032-161.025
				c64.371-33.524,109.974,5.808,228.677,13.714C1434.91,2066.686,1541.115,1986.369,1554.903,2011.885z"/>
			
				<linearGradient id="SVGID_00000148653930780683862430000005701750857163708825_" gradientUnits="userSpaceOnUse" x1="1620.1876" y1="2584.6877" x2="958.0513" y2="3615.4377" gradientTransform="matrix(0.9929 0.1192 -0.1192 0.9929 447.5323 -477.8984)">
				<stop  offset="0" style="stop-color:#FFC444"/>
				<stop  offset="0.9964" style="stop-color:#F36F56"/>
			</linearGradient>
			<path style="fill:url(#SVGID_00000148653930780683862430000005701750857163708825_);" d="M1673.318,2097.879
				c-131.655,100.463-189.749,199.883-218.404,272.846c-34.01,86.6-24.667,131.133-79.454,203.593
				c-54,71.417-107.2,86.512-132.995,162.786c-5.752,17.01-30.975,91.595,1.885,127.42c55.629,60.647,266.776-1.71,387.561-135.649
				c23.734-26.319,115.604-128.196,97.894-242.63c-8.663-55.972-36.699-70.74-59.494-134.339
				C1646.609,2285.782,1641.454,2202.816,1673.318,2097.879z"/>
		</g>
		<g>
			
				<linearGradient id="SVGID_00000055691527097712627350000016151944426715490468_" gradientUnits="userSpaceOnUse" x1="-3071.9629" y1="2095.5637" x2="-3060.5947" y2="2161.8481" gradientTransform="matrix(1 0 0 1 5832.4766 0)">
				<stop  offset="0" style="stop-color:#FFC444"/>
				<stop  offset="0.9964" style="stop-color:#F36F56"/>
			</linearGradient>
			<path style="fill:url(#SVGID_00000055691527097712627350000016151944426715490468_);" d="M2740.528,2121.9
				c3.802-3.052,8.836-8.037,11.722-15.452c3.094-7.948,0.916-11.487,4.796-16.451c4.92-6.296,14.986-9.004,21.891-5.928
				c1.456,0.648,3.228,1.553,4.344,3.438c3.071,5.183-3.744,14.161-9.184,18.941c-4.094,3.597-5.785,3.332-10.124,6.395
				c-4.235,2.988-9.567,8.141-13.854,17.583L2740.528,2121.9z"/>
			
				<linearGradient id="SVGID_00000028305583043485282140000004458829424830035343_" gradientUnits="userSpaceOnUse" x1="4127.4497" y1="613.4305" x2="4138.8184" y2="679.7185" gradientTransform="matrix(-0.9207 0.3902 0.3902 0.9207 6500.3369 -113.3621)">
				<stop  offset="0" style="stop-color:#FFC444"/>
				<stop  offset="0.9964" style="stop-color:#F36F56"/>
			</linearGradient>
			<path style="fill:url(#SVGID_00000028305583043485282140000004458829424830035343_);" d="M2968.233,2078.405
				c-4.691-1.327-11.271-3.953-16.823-9.654c-5.949-6.111-5.325-10.219-10.834-13.276c-6.987-3.877-17.311-2.443-22.469,3.083
				c-1.087,1.165-2.366,2.69-2.658,4.86c-0.804,5.97,8.974,11.578,15.847,13.857c5.173,1.716,6.627,0.811,11.817,1.937
				c5.065,1.099,11.985,3.763,19.617,10.785L2968.233,2078.405z"/>
			
				<linearGradient id="SVGID_00000038388381526247763160000005296952580961194412_" gradientUnits="userSpaceOnUse" x1="3895.1484" y1="1188.3428" x2="3984.4404" y2="1708.9822" gradientTransform="matrix(-0.9612 0.2758 0.2758 0.9612 6388.0337 -63.5757)">
				<stop  offset="0" style="stop-color:#FF9085"/>
				<stop  offset="1" style="stop-color:#FB6FBB"/>
			</linearGradient>
			<path style="fill:url(#SVGID_00000038388381526247763160000005296952580961194412_);" d="M2946.473,2085.79
				c-3.024,14.397,12.541,27.206,23.769,39.782c22.523,25.227,46.099,70.241,37.443,108.872
				c-4.728,21.101-19.884,43.919-41.285,54.733c-23.034,11.639-36.833,1.05-60.794,14.873c-1.767,1.019-32.068,18.984-32.948,43.227
				c-1.085,29.908,42.886,61.726,80.527,64.16c68.841,4.454,151.789-87.094,147.925-177.936
				c-4.208-98.896-110.47-177.394-141.041-164.085C2955.255,2071.512,2948.175,2077.687,2946.473,2085.79z"/>
			
				<linearGradient id="SVGID_00000099644252271331625820000005370567512632235156_" gradientUnits="userSpaceOnUse" x1="2752.7512" y1="3080.9399" x2="2752.7512" y2="2836.1482" gradientTransform="matrix(-0.9994 0.0352 0.0352 0.9994 5567.312 -10.261)">
				<stop  offset="0" style="stop-color:#FFC444"/>
				<stop  offset="0.9964" style="stop-color:#F36F56"/>
			</linearGradient>
			<polygon style="fill:url(#SVGID_00000099644252271331625820000005370567512632235156_);" points="2915.833,3109.827 
				2913.367,3134.882 2925.036,3132.765 2932.879,3109.226 			"/>
			
				<linearGradient id="SVGID_00000018230708041261131920000007477123012003345551_" gradientUnits="userSpaceOnUse" x1="2729.9006" y1="2610.6201" x2="2709.9775" y2="3058.8948" gradientTransform="matrix(-0.9994 0.0352 0.0352 0.9994 5567.312 -10.261)">
				<stop  offset="0" style="stop-color:#311944"/>
				<stop  offset="1" style="stop-color:#893976"/>
			</linearGradient>
			<path style="fill:url(#SVGID_00000018230708041261131920000007477123012003345551_);" d="M2986.938,2646.871
				c-1.213,44.489-6.762,82.564-13.337,113.647c-7.073,33.438-11.193,39.216-13.4,62.338
				c-4.799,50.314,11.416,57.517,14.393,114.387c3.288,62.796-13.41,112.706-19.974,131.744
				c-5.739,16.644-11.746,30.085-16.264,39.42c-5.757,5.02-14.561,3.092-23.842,1.205c-3.42-56.958-7.683-110.561-11.103-167.519
				c-11.027-85.685-22.054-171.367-33.081-257.051C2909.2,2672.317,2948.069,2659.596,2986.938,2646.871z"/>
			
				<linearGradient id="SVGID_00000113348281346188327190000013487766318665862590_" gradientUnits="userSpaceOnUse" x1="2729.9006" y1="2610.6201" x2="2709.9775" y2="3058.8945" gradientTransform="matrix(-0.9994 0.0352 0.0352 0.9994 5567.312 -10.261)">
				<stop  offset="0" style="stop-color:#311944"/>
				<stop  offset="1" style="stop-color:#893976"/>
			</linearGradient>
			<path style="opacity:0.3;fill:url(#SVGID_00000113348281346188327190000013487766318665862590_);" d="M2914.515,3109.613
				c-3.42-56.958-7.683-110.561-11.103-167.519c-11.027-85.685-22.054-171.367-33.081-257.051
				c38.869-12.725,77.738-25.447,116.608-38.171c-0.08,2.946-0.229,5.787-0.345,8.678c-54.533,47.358-65.207,84.874-64.673,110.463
				c0.646,31.036,17.617,46.42,14.301,91.42c-2.371,32.175-12.043,37.843-12.039,66.877c0.006,37.386,16.052,58.407,23.867,80.01
				c7.552,20.881,10.24,50.455-4.351,92.52c-1.916,4.344-3.727,8.231-5.343,11.568
				C2932.599,3113.427,2923.796,3111.501,2914.515,3109.613z"/>
			
				<linearGradient id="SVGID_00000149351663055569041970000014683599304897567361_" gradientUnits="userSpaceOnUse" x1="2772.988" y1="3082.2036" x2="2732.0337" y2="2947.1643" gradientTransform="matrix(-0.9994 0.0352 0.0352 0.9994 5567.312 -10.261)">
				<stop  offset="0" style="stop-color:#FF9085"/>
				<stop  offset="1" style="stop-color:#FB6FBB"/>
			</linearGradient>
			<path style="fill:url(#SVGID_00000149351663055569041970000014683599304897567361_);" d="M2920.21,3143.428
				c5.523-6.847,10.596-6.345,11.518-10.989c0.725-3.648-1.595-8.054-4.986-9.674c-4.767-2.275-10.398,1.56-11.671,2.425
				c-8.644,5.886-6.065,14.747-14.247,18.788c-1.647,0.814-4.265,1.695-6.989,4.358c-1.156,1.131-4.02,3.932-3.294,5.804
				c0.838,2.165,6.048,1.978,11,1.799c5.943-0.213,8.915-0.318,11.736-2.164C2917.188,3151.217,2915.946,3148.711,2920.21,3143.428z
				"/>
			
				<linearGradient id="SVGID_00000075120086452086494890000016189520731773183421_" gradientUnits="userSpaceOnUse" x1="4289.1665" y1="-628.317" x2="4289.1665" y2="-845.2736" gradientTransform="matrix(-0.6521 0.7581 0.7581 0.6521 6225.8706 112.2658)">
				<stop  offset="0" style="stop-color:#FFC444"/>
				<stop  offset="0.9964" style="stop-color:#F36F56"/>
			</linearGradient>
			<polygon style="fill:url(#SVGID_00000075120086452086494890000016189520731773183421_);" points="2908.479,2929.08 
				2930.301,2937.621 2936.662,2927.612 2919.601,2916.147 			"/>
			
				<linearGradient id="SVGID_00000039101505336041969160000002385731366334312375_" gradientUnits="userSpaceOnUse" x1="4304.25" y1="-620.1143" x2="4263.2939" y2="-755.1594" gradientTransform="matrix(-0.6521 0.7581 0.7581 0.6521 6225.8706 112.2658)">
				<stop  offset="0" style="stop-color:#FF9085"/>
				<stop  offset="1" style="stop-color:#FB6FBB"/>
			</linearGradient>
			<path style="fill:url(#SVGID_00000039101505336041969160000002385731366334312375_);" d="M2941.796,2942.917
				c-1.283-8.702,2.527-12.089-0.26-15.916c-2.189-3.008-7-4.292-10.49-2.9c-4.906,1.958-5.909,8.698-6.136,10.219
				c-1.539,10.345,6.72,14.46,4.138,23.214c-0.52,1.762-1.648,4.284-1.538,8.091c0.047,1.616,0.162,5.62,2.029,6.357
				c2.159,0.852,5.556-3.102,8.784-6.862c3.876-4.51,5.815-6.765,6.372-10.09
				C2945.469,2950.422,2942.785,2949.635,2941.796,2942.917z"/>
			
				<linearGradient id="SVGID_00000167376045976997109020000014605286946558691975_" gradientUnits="userSpaceOnUse" x1="-2734.8264" y1="2783.7649" x2="-3152.6592" y2="2764.7722" gradientTransform="matrix(1 0 0 1 5832.4766 0)">
				<stop  offset="0" style="stop-color:#311944"/>
				<stop  offset="1" style="stop-color:#893976"/>
			</linearGradient>
			<path style="fill:url(#SVGID_00000167376045976997109020000014605286946558691975_);" d="M2814.06,2607.321
				c-40.652,82.895-54.457,152.018-59.678,197.152c-3.357,29.023-3.033,46.973,5.328,65.007
				c29.931,64.557,134.386,68.82,150.262,69.27c5.221-10.695,10.443-21.39,15.665-32.084c-9.61-17.824-26.381-42.574-55.095-60.63
				c-22.083-13.887-30.72-10.917-36.233-20.248c-22.123-37.445,97.296-118.542,79.456-172.529
				C2907.593,2634.582,2883.838,2615.644,2814.06,2607.321z"/>
			
				<linearGradient id="SVGID_00000135668572557019424900000006702326334861663651_" gradientUnits="userSpaceOnUse" x1="-2900.8464" y1="2127.0676" x2="-2796.9417" y2="2732.9104" gradientTransform="matrix(1 0 0 1 5832.4766 0)">
				<stop  offset="0" style="stop-color:#FF9085"/>
				<stop  offset="1" style="stop-color:#FB6FBB"/>
			</linearGradient>
			<path style="fill:url(#SVGID_00000135668572557019424900000006702326334861663651_);" d="M2902.154,2309.332
				c-43.93,7.545-77.375,15.398-92.307,38.405c-15.771,24.303,9.303,42.596,16.122,95.915
				c10.44,81.632-36.495,112.126-22.99,194.321c2.204,13.413,5.549,25.354,9.149,35.549c6.332,17.927,18.615,33.015,34.71,43.135
				c12.069,7.588,26.741,15.222,43.96,21.246c44.544,15.582,66.518,6.524,126.45,9.948c98.029,5.601,112.707,34.032,156.995,16.55
				c44.761-17.671,77.157-65.416,67.664-85.819c-5.686-12.218-23.621-4.589-49.343-19.589c-33.15-19.333-27.582-45.72-54.478-68.355
				c-38.633-32.513-75.796,0.321-108.839-27.95c-33.424-28.6-37.414-98.148-23.207-139.55c9.28-27.042,9.453-56.451,16.339-84.198
				c0.573-2.305,1.023-5.983-0.409-10.153c-5.479-15.947-34.661-19.009-56.719-21.116
				C2931.608,2304.455,2905.766,2308.71,2902.154,2309.332z"/>
			
				<linearGradient id="SVGID_00000128481287483108108170000006387027551970701194_" gradientUnits="userSpaceOnUse" x1="-181.2534" y1="2006.3505" x2="21.0538" y2="2422.3628" gradientTransform="matrix(0.9781 -0.2085 0.2085 0.9781 2526.7544 366.1276)">
				<stop  offset="0" style="stop-color:#FF9085"/>
				<stop  offset="1" style="stop-color:#FB6FBB"/>
			</linearGradient>
			<path style="opacity:0.3;fill:url(#SVGID_00000128481287483108108170000006387027551970701194_);" d="M3169.1,2733.444
				c-13.572-9.044-6.221-34.684-26.323-48.295c-18.657-12.633-33.208,3.889-60.705-4.54c-35.266-10.813-33.423-44.766-67.219-55.604
				c-24.303-7.792-31.635,7.721-66.689,8.391c-34.994,0.67-80.87-13.772-109.92-50.868c-12.343-15.762-19.24-32.578-22.993-48.125
				c-9.358,30.23-19.519,59.454-12.271,103.57c2.933,17.854,7.889,33.101,12.777,45.091c4.561,11.186,12.256,20.795,22.172,27.696
				c13.5,9.394,31.161,19.548,52.87,27.142c44.543,15.583,66.518,6.525,126.45,9.95c98.029,5.601,112.707,34.032,156.995,16.55
				c28.607-11.293,52.099-34.857,62.898-55.729C3198.398,2736.853,3178.95,2740.008,3169.1,2733.444z"/>
			
				<linearGradient id="SVGID_00000100383596252092940170000011803062147596680362_" gradientUnits="userSpaceOnUse" x1="2778.4553" y1="2179.0725" x2="2731.7332" y2="2254.6526" gradientTransform="matrix(-0.9994 0.0352 0.0352 0.9994 5567.312 -10.261)">
				<stop  offset="0" style="stop-color:#FFC444"/>
				<stop  offset="0.9964" style="stop-color:#F36F56"/>
			</linearGradient>
			<path style="fill:url(#SVGID_00000100383596252092940170000011803062147596680362_);" d="M2876.779,2233.304
				c0,0-12.106,22.725-12.869,38.671c-0.764,15.946,17.232,14.787,17.232,14.787l-0.676,10.059
				c-0.576,8.587-6.151,16.032-14.228,19.002l-7.105,2.612c0,0,46.349,9.923,71.66-7.958l-7.294-0.714
				c-10.328-1.01-18.512-9.161-19.566-19.485l-0.439-4.306C2903.494,2285.974,2911.533,2236.268,2876.779,2233.304z"/>
			
				<linearGradient id="SVGID_00000137813364809252834340000017494962145915890365_" gradientUnits="userSpaceOnUse" x1="-3075.626" y1="2197.9517" x2="-2986.3354" y2="2718.5833" gradientTransform="matrix(1 0 0 1 5832.4766 0)">
				<stop  offset="0" style="stop-color:#FF9085"/>
				<stop  offset="1" style="stop-color:#FB6FBB"/>
			</linearGradient>
			<path style="fill:url(#SVGID_00000137813364809252834340000017494962145915890365_);" d="M2762.641,2126.429
				c6.878,13.005-4.551,29.609-11.875,44.795c-14.692,30.46-24.94,80.23-5.966,114.976c10.365,18.979,31.225,36.732,54.779,41.224
				c25.352,4.835,35.695-9.149,62.538-2.471c1.98,0.492,36.061,9.403,43.592,32.463c9.292,28.449-24.199,71.16-59.708,83.881
				c-64.943,23.267-169.923-41.854-191.261-130.238c-23.231-96.221,57.261-200.981,90.317-196.619
				C2750.261,2115.127,2758.77,2119.11,2762.641,2126.429z"/>
			
				<linearGradient id="SVGID_00000018915441337948189270000015529083867282223517_" gradientUnits="userSpaceOnUse" x1="2518.9622" y1="2495.6409" x2="2707.8496" y2="2092.0349" gradientTransform="matrix(-0.9994 0.0352 0.0352 0.9994 5567.312 -10.261)">
				<stop  offset="0" style="stop-color:#444B8C"/>
				<stop  offset="0.9964" style="stop-color:#26264F"/>
			</linearGradient>
			<path style="fill:url(#SVGID_00000018915441337948189270000015529083867282223517_);" d="M2884.021,2255.903
				c2.396-0.198,4.374-3.237,6.015-2.334c1.722,0.945,1.531,5.375,0.035,8.484c-1.228,2.548-3.229,3.988-4.343,4.66
				c1.85,2.56,4.207,6.539,5.187,11.748c2.171,11.52-3.953,20.786-6.499,26.207c-11.48,24.442,6.379,63.083,25.98,82.597
				c15.929,15.862,23.362,9.484,32.871,22.439c18.511,25.214-7.038,52.93,2.535,86.867c14.557,51.604,96.041,66.955,99.418,67.55
				c1.331,0.235,2.225,0.383,3.61,0.603c36.553,5.807,91.956,14.608,130.973-15.394c29.192-22.446,42.581-61.514,40.369-95.925
				c-0.581-9.052-3.323-43.411-31.32-71.454c-4.445-4.451-30.758-30.747-66.316-31.065c-18.833-0.17-22.631,6.467-37.034,2.364
				c-19.719-5.618-31.865-23.545-39.401-34.665c-13.86-20.457-8.227-24.824-18.199-34.885c-19.539-19.71-42.462-4.232-63.331-21.627
				c-20.572-17.147-8.161-40.408-28.019-55.25c-20.485-15.306-59.67-9.962-68.022,8.266
				C2861.351,2230.751,2876.677,2256.509,2884.021,2255.903z"/>
		</g>
		<g>
			
				<linearGradient id="SVGID_00000118367581993428147080000011383033094827918484_" gradientUnits="userSpaceOnUse" x1="1917.4985" y1="2028.7295" x2="1964.8992" y2="2137.8264" gradientTransform="matrix(1 0 0 1 341.2505 0)">
				<stop  offset="0" style="stop-color:#FFC444"/>
				<stop  offset="0.9964" style="stop-color:#F36F56"/>
			</linearGradient>
			<path style="fill:url(#SVGID_00000118367581993428147080000011383033094827918484_);" d="M2296.548,2104.605
				c0,0-9.282-48.469-18.563-62.907c-9.282-14.438-26.597-23.719-26.597-23.719s-3.611,5.934,7.884,18.436
				c11.495,12.501,1.912,13.739,0,17.761c-1.912,4.022,2.213,18.46,10.463,23.616c8.25,5.157,11.344,33.267,11.344,33.267
				L2296.548,2104.605z"/>
			
				<linearGradient id="SVGID_00000155839201637449489580000010215632665892284857_" gradientUnits="userSpaceOnUse" x1="2038.719" y1="2107.1052" x2="2231.0061" y2="2549.6709" gradientTransform="matrix(1 0 0 1 341.2505 0)">
				<stop  offset="0.0036" style="stop-color:#E38DDD"/>
				<stop  offset="1" style="stop-color:#9571F6"/>
			</linearGradient>
			<path style="fill:url(#SVGID_00000155839201637449489580000010215632665892284857_);" d="M2269.735,2098.417
				c9.969-1.719,19.938-3.438,29.907-5.157c35.679,66.147,77.482,108.665,105.944,133.346
				c33.633,29.165,55.347,47.995,91.027,57.437c52.711,13.95,98.242-2.426,104.157,12.376c2.892,7.237-7.142,15.071-23.203,34.289
				c-46.773,55.965-42.352,86.054-68.063,94.36c-21.244,6.863-42.624-7.9-78.892-33.774
				c-32.992-23.538-74.358-53.049-109.313-109.313C2274.412,2206.515,2269.716,2132.264,2269.735,2098.417z"/>
			
				<linearGradient id="SVGID_00000159466912218871511020000018407129858062484355_" gradientUnits="userSpaceOnUse" x1="4936.1836" y1="2556.718" x2="5000.0464" y2="2301.2639" gradientTransform="matrix(1 0 0 1 -2267.8289 0)">
				<stop  offset="0.0036" style="stop-color:#E38DDD"/>
				<stop  offset="1" style="stop-color:#9571F6"/>
			</linearGradient>
			<path style="fill:url(#SVGID_00000159466912218871511020000018407129858062484355_);" d="M2709.048,2302.434
				c4.846,1.832,78.761,31.226,93.954,108.372c1.227,6.232,13.103,72.512-31.847,119.336
				c-50.402,52.504-147.456,51.202-185.979,7.31c-8.984-10.236-13.723-21.581-16.378-31.113l0,0l10.15-26.967
				c12.385-14.952,29.248-18.495,38.255-20.715c22.202-5.472,38.965,4.418,51.68-6.289c7.035-5.924,8.433-14.449,9.682-22.066
				c4.252-25.94-10.389-41.909-11.454-57.905c-0.798-11.959-4.983-38.162,10.625-55.249
				C2687.621,2306.327,2701.312,2303.381,2709.048,2302.434z"/>
			
				<linearGradient id="SVGID_00000029006029261087066530000010848428521717352870_" gradientUnits="userSpaceOnUse" x1="4637.7607" y1="3626.3713" x2="4668.0552" y2="3653.3184" gradientTransform="matrix(0.9902 -0.14 0.14 0.9902 -2370.6716 206.9384)">
				<stop  offset="0" style="stop-color:#444B8C"/>
				<stop  offset="0.9964" style="stop-color:#26264F"/>
			</linearGradient>
			<path style="fill:url(#SVGID_00000029006029261087066530000010848428521717352870_);" d="M2737.849,3162.191
				c0.862-4.75,16.199-9.048,23.793-2.687c3.771,3.158,6.368,9.561,4.186,12.453c-0.793,1.052,2.457,2.902-0.658,2.938
				C2754.839,3175.016,2736.991,3166.911,2737.849,3162.191z"/>
			
				<linearGradient id="SVGID_00000010275115483102671990000003423225652190043062_" gradientUnits="userSpaceOnUse" x1="3741.6768" y1="3653.3511" x2="3741.6768" y2="3600.5752" gradientTransform="matrix(0.9902 -0.14 0.14 0.9902 -1454.4706 77.4224)">
				<stop  offset="0" style="stop-color:#FFC444"/>
				<stop  offset="0.9964" style="stop-color:#F36F56"/>
			</linearGradient>
			<path style="fill:url(#SVGID_00000010275115483102671990000003423225652190043062_);" d="M2753.924,3163.919l15.774-2.229
				c-7.308-8.798-5.955-36.817-5.955-36.817l-16.775,3.744c0,0,1.912,7.69,5.163,19.035
				C2753.245,3151.536,2753.742,3157.613,2753.924,3163.919z"/>
			
				<linearGradient id="SVGID_00000045586267156821647510000009711528712072654520_" gradientUnits="userSpaceOnUse" x1="4640.8066" y1="3622.9478" x2="4671.1006" y2="3649.8948" gradientTransform="matrix(0.9902 -0.14 0.14 0.9902 -2370.6716 206.9384)">
				<stop  offset="0" style="stop-color:#444B8C"/>
				<stop  offset="0.9964" style="stop-color:#26264F"/>
			</linearGradient>
			<path style="fill:url(#SVGID_00000045586267156821647510000009711528712072654520_);" d="M2752.526,3161.977
				c0,0,18.99-4.376,21.044-0.609c2.055,3.768,3.649,13.853-8.399,13.528C2753.122,3174.57,2751.455,3165.17,2752.526,3161.977z"/>
			
				<linearGradient id="SVGID_00000081640755131097475120000008114435902607887008_" gradientUnits="userSpaceOnUse" x1="4782.7344" y1="3165.2351" x2="4813.0303" y2="3192.1833" gradientTransform="matrix(1 0 0 1 -2267.8289 0)">
				<stop  offset="0" style="stop-color:#444B8C"/>
				<stop  offset="0.9964" style="stop-color:#26264F"/>
			</linearGradient>
			<path style="fill:url(#SVGID_00000081640755131097475120000008114435902607887008_);" d="M2521.42,3180
				c1.518-4.582,17.306-6.691,23.936,0.669c3.291,3.655,4.966,10.358,2.401,12.916c-0.933,0.931,2.026,3.218-1.063,2.818
				C2536.449,3195.077,2519.912,3184.552,2521.42,3180z"/>
			
				<linearGradient id="SVGID_00000097495591468050101570000015281784011782880667_" gradientUnits="userSpaceOnUse" x1="3886.6064" y1="3192.2373" x2="3886.6064" y2="3139.4592" gradientTransform="matrix(1 0 0 1 -1342.5187 0)">
				<stop  offset="0" style="stop-color:#FFC444"/>
				<stop  offset="0.9964" style="stop-color:#F36F56"/>
			</linearGradient>
			<path style="fill:url(#SVGID_00000097495591468050101570000015281784011782880667_);" d="M2537.096,3183.961h15.93
				c-6.004-9.734-0.742-37.288-0.742-37.288l-17.134,1.359c0,0,0.816,7.883,2.448,19.57
				C2538.156,3171.604,2537.798,3177.691,2537.096,3183.961z"/>
			
				<linearGradient id="SVGID_00000137834529588255243790000008836229704295431351_" gradientUnits="userSpaceOnUse" x1="-10333.6836" y1="3216.4392" x2="-10531.2344" y2="2418.8286" gradientTransform="matrix(-1 0 0 1 -7792.0815 0)">
				<stop  offset="0" style="stop-color:#444B8C"/>
				<stop  offset="0.9964" style="stop-color:#26264F"/>
			</linearGradient>
			<path style="fill:url(#SVGID_00000137834529588255243790000008836229704295431351_);" d="M2495.812,2581.547
				c-7.379,24.369-17.918,63.7-24.702,113.046c-19.35,140.752,21.777,145.242,14.097,301.214
				c-2.452,49.787,43.132,164.59,47.15,167.125c1.944,0.189,4.054,0.316,6.303,0.248c3.965-0.119,9.555-0.727,16.056-2.677
				c7.22-1.243,33.255-71.759,27.22-113.683c-4.271-29.674-3.032-61.519-0.557-125.209c0.402-10.32,26.805-200.781,26.805-200.781
				l0,0c8.032,70.498,17.269,130.399,25.277,176.841c25.728,149.21,109.38,239.522,113.743,240.971
				c0.862,0.346,8.712,3.198,15.129-1.032c2.857-1.882,3.828-4.312,3.828-4.312c2.237-1.752-0.659-148.969-26.174-259.764
				c-37.035-160.816-20.908-198.445-32.642-270.275C2697.193,2541.104,2495.812,2581.547,2495.812,2581.547z"/>
			
				<linearGradient id="SVGID_00000155109758524109773500000013822145228183649668_" gradientUnits="userSpaceOnUse" x1="2094.0498" y1="2060.8569" x2="2305.8574" y2="2548.3511" gradientTransform="matrix(1 0 0 1 341.2505 0)">
				<stop  offset="0.0036" style="stop-color:#E38DDD"/>
				<stop  offset="1" style="stop-color:#9571F6"/>
			</linearGradient>
			<path style="fill:url(#SVGID_00000155109758524109773500000013822145228183649668_);" d="M2645.401,2289.881
				c-24.588-0.723-81.104-9.403-112.233,18.607c-0.542,0.486,5.836,3.893,2.696,7.573c-2.916,3.415-12.914,15.373-21.979,31.536
				c-6.566,11.707-12.493,25.353-18.471,45.691c-10.545,35.868-13.571,66.41-14.583,79.718
				c-5.689,74.834-0.048,109.359,5.072,132.838c22.231,11.42,79.516,31.852,147.771,21.7c31.17-4.637,56.117-15.009,73.67-24.268
				c-17.71-53.625-3.816-82.32,2.74-108.768c9.348-37.714,9.498-34.863,17.195-64.821c12.699-49.432,14.782-99.943,6.057-110.28
				C2709.808,2291.538,2667.417,2290.53,2645.401,2289.881z"/>
			
				<linearGradient id="SVGID_00000044179311189138857210000014912275539879206314_" gradientUnits="userSpaceOnUse" x1="4785.7798" y1="3161.8118" x2="4816.0757" y2="3188.7598" gradientTransform="matrix(1 0 0 1 -2267.8289 0)">
				<stop  offset="0" style="stop-color:#444B8C"/>
				<stop  offset="0.9964" style="stop-color:#26264F"/>
			</linearGradient>
			<path style="fill:url(#SVGID_00000044179311189138857210000014912275539879206314_);" d="M2535.983,3181.841
				c0,0,19.416-1.674,20.922,2.344c1.507,4.017,1.674,14.227-10.21,12.218C2534.811,3194.395,2534.476,3184.854,2535.983,3181.841z"
				/>
			<g>
				
					<linearGradient id="SVGID_00000164503988163289771850000018158799143061867395_" gradientUnits="userSpaceOnUse" x1="5608.6992" y1="1720.3488" x2="5765.6245" y2="1917.7809" gradientTransform="matrix(0.9663 0.2576 -0.2576 0.9663 -2403.0903 -923.8408)">
					<stop  offset="0" style="stop-color:#FFC444"/>
					<stop  offset="0.9964" style="stop-color:#F36F56"/>
				</linearGradient>
				<path style="fill:url(#SVGID_00000164503988163289771850000018158799143061867395_);" d="M2593.741,2243.806
					c-4.042-14.405,3.026-27.744,4.584-30.619c6.523-12.034,8.194-13.677,11.306-15.761l4.327-2.669c0,0,0.25-0.1,0.514-0.194
					c2.776-0.988,12.239-1.276,14.156-0.866c6.124,1.308,12.644,26.255,10.783,61.526c0.254,1.344,0.499,2.7,0.735,4.067
					c0.965,5.57,1.731,11.03,2.323,16.368c0.567,5.106,3.962,9.457,8.768,11.271c32.543,12.284,32.478,2.474,35.845,13.044
					c1.834,5.756-35.122,15.058-53.303,12.955c-40.904,0.304-74.178-4.052-70.603-10.493c1.588-2.859,33.281-11.141,42.194-19.349
					c8.162-7.516,7.497-15.275,8.168-20.831C2611.065,2260.97,2596.718,2254.418,2593.741,2243.806z"/>
				<path style="fill:#26264F;" d="M2601.265,2184.738c0.037,10.927,5.185,22.597,7.808,24.471c0.338,0.243,2.245,1.749,3.958,4.323
					c0.233,0.35,0.439,0.761,0.623,1.292c2.393,6.885-8.555,14.989-6.441,18.073c1.533,2.236,8.974-0.755,9.859,1.177
					c0.833,1.817-5.351,5.582-4.404,7.759c0.714,1.644,4.52,0.14,6.92,2.657c1.197,1.254,0.845,2.248,2.113,6.081
					c0.717,2.168,1.719,4.541,2.497,5.86c3.777,6.416,14.472,8.759,16.53,6.192c0.573-0.715,0.081-1.317,0.666-3.718
					c0,0,0.542-2.225,2.091-4.798c2.212-3.676,7.553-6.305,12.942-10.186c9.98-7.186,12.692-13.312,13.506-15.382
					c0.29-0.737,0.47-1.294,0.599-1.695c2.595-8.054,2.607-19.885-1.014-27.16c-6.066-12.188-19.749-6.401-30.949-18.477
					c-12.922-13.932-5.226-32.976-12.238-35.079C2618.6,2143.81,2601.198,2164.533,2601.265,2184.738z"/>
				
					<linearGradient id="SVGID_00000132069281699476659630000010095851461604007555_" gradientUnits="userSpaceOnUse" x1="5619.3169" y1="1710.363" x2="5783.3726" y2="1916.7659" gradientTransform="matrix(0.9663 0.2576 -0.2576 0.9663 -2403.0903 -923.8408)">
					<stop  offset="0" style="stop-color:#FFC444"/>
					<stop  offset="0.9964" style="stop-color:#F36F56"/>
				</linearGradient>
				<path style="fill:url(#SVGID_00000132069281699476659630000010095851461604007555_);" d="M2611.14,2230.329
					c2.678-3.68,7.384-0.222,7.411,4.539c0.028,4.761-4.586,9.711-9.061,8.771
					C2605.014,2242.698,2607.536,2235.282,2611.14,2230.329z"/>
			</g>
			<path style="fill:#9B305E;" d="M2699.513,2569.608c-0.492,0-0.916-0.371-0.97-0.869c-2.944-26.486,2.52-45.655,7.343-62.568
				c1.176-4.119,2.284-8.013,3.247-11.9c5.315-21.443,7.643-29.722,10.109-38.487c1.596-5.686,3.25-11.567,5.807-21.386
				c0.138-0.522,0.68-0.829,1.192-0.701c0.522,0.138,0.835,0.67,0.7,1.192c-2.563,9.839-4.22,15.727-5.821,21.423
				c-2.459,8.748-4.783,17.013-10.088,38.43c-0.974,3.921-2.088,7.828-3.267,11.964c-4.773,16.741-10.183,35.712-7.282,61.816
				c0.061,0.536-0.327,1.021-0.862,1.078C2699.584,2569.608,2699.547,2569.608,2699.513,2569.608z"/>
			<path style="fill:#26264F;" d="M2613.312,2222.364l-6.213,8.082c0,0-6.698,9.902-10.609,4.478
				c-3.195-4.432-4.023-4.333-4.218-4.148c-0.037,0.035-0.047,0.088-0.056,0.086c-0.055-0.015,0.469-2.206,0.94-4.133
				c-1.654,2.374-3.933,6.226-5.314,11.408c-1.341,5.033-2.778,10.422,0.062,15.6c0.164,0.299,3.292,5.809,9.134,7.142
				c0,0,2.297,0.524,12.003-1.182c0,0-10.609-7.698-10.772-9.526c-0.439-4.973,6.457-7.661,11.578-17.855
				C2611.822,2228.383,2612.795,2224.817,2613.312,2222.364z"/>
		</g>
		<g>
			
				<linearGradient id="SVGID_00000093155479627278188590000016111131671683712652_" gradientUnits="userSpaceOnUse" x1="1276.9119" y1="1783.2218" x2="1326.136" y2="1783.2218" gradientTransform="matrix(0.971 0.2391 -0.2391 0.971 706.8227 -584.2353)">
				<stop  offset="0" style="stop-color:#AB316D"/>
				<stop  offset="1" style="stop-color:#792D3D"/>
			</linearGradient>
			<path style="fill:url(#SVGID_00000093155479627278188590000016111131671683712652_);" d="M1535.893,1433.261
				c0,0-16.828,5.186-12.408,12.495c4.42,7.309,30.897,38.71,36.762,40.155c5.864,1.444,5.777-23.458,0.635-27.834
				C1555.74,1453.7,1542.479,1431.773,1535.893,1433.261z"/>
			
				<linearGradient id="SVGID_00000043426336677168697330000018312436576355382685_" gradientUnits="userSpaceOnUse" x1="1373.3433" y1="1764.4897" x2="1004.9247" y2="1343.7272" gradientTransform="matrix(0.971 0.2391 -0.2391 0.971 706.8227 -584.2353)">
				<stop  offset="0" style="stop-color:#444B8C"/>
				<stop  offset="0.9964" style="stop-color:#26264F"/>
			</linearGradient>
			<path style="fill:url(#SVGID_00000043426336677168697330000018312436576355382685_);" d="M1478.37,1111.195
				c19.12,9.152,86.486,44.274,116.15,121.909c7.131,18.664,22.255,59.954,9.91,111.294c-13.629,56.681-51.959,89.101-64.839,99.104
				c-4.15,0.015-8.301,0.029-12.451,0.043c-12.216-15.939-15.027-29.234-15.514-38.032c-1.373-24.799,14.49-36.114,20.264-69.651
				c1.465-8.51,4.259-24.738,0.591-40.286c-10.137-42.978-61.973-48.202-131.489-110.136
				c-25.106-22.368-43.867-39.441-39.738-53.328C1368.536,1107.628,1442.167,1109.216,1478.37,1111.195z"/>
			<g style="opacity:0.3;">
				
					<linearGradient id="SVGID_00000038407123548758172660000010116377834368110005_" gradientUnits="userSpaceOnUse" x1="1360.6836" y1="1278.076" x2="1586.8376" y2="1278.076">
					<stop  offset="0" style="stop-color:#444B8C"/>
					<stop  offset="0.9964" style="stop-color:#26264F"/>
				</linearGradient>
				<path style="fill:url(#SVGID_00000038407123548758172660000010116377834368110005_);" d="M1546.299,1372.067
					c19.04-43.773,48.585-67.154,38.493-93.153c-8.208-21.145-32.344-17.512-59.498-48.864
					c-19.392-22.391-20.822-40.107-29.496-57.026c-11.059-21.57-35.788-45.452-94.141-60.417
					c-20.557,2.813-37.14,8.54-40.402,19.506c-4.129,13.887,14.631,30.961,39.738,53.328
					c69.515,61.934,121.351,67.159,131.489,110.136c3.668,15.547,0.874,31.776-0.591,40.286
					c-5.774,33.537-21.638,44.852-20.264,69.651c0.487,8.798,3.298,22.093,15.514,38.032c0.936-0.003,1.872-0.007,2.807-0.01
					C1531.595,1413.337,1538.552,1389.878,1546.299,1372.067z"/>
			</g>
			
				<linearGradient id="SVGID_00000126299687039654222450000016260434162630733210_" gradientUnits="userSpaceOnUse" x1="1090.1968" y1="2016.025" x2="1139.8317" y2="2016.025" gradientTransform="matrix(0.971 0.2391 -0.2391 0.971 706.8227 -584.2353)">
				<stop  offset="0" style="stop-color:#AB316D"/>
				<stop  offset="1" style="stop-color:#792D3D"/>
			</linearGradient>
			<path style="fill:url(#SVGID_00000126299687039654222450000016260434162630733210_);" d="M1303.586,1606.193
				c-1.176-2.938-17.595,1.4-15.34,11.772c1.925,8.853,6.673,23.415,13.347,46.829c1.743,6.114,11.816,12.092,16.185,12.912
				c4.851,0.911,8.758-3.979,6.616-8.426c-2.988-6.206-10.469-22.509-9.715-32.364
				C1316.081,1618.601,1314.549,1599.563,1303.586,1606.193z"/>
			
				<linearGradient id="SVGID_00000085932767099048123310000015260725840356759727_" gradientUnits="userSpaceOnUse" x1="1076.6067" y1="1916.8037" x2="1130.2094" y2="2025.5187" gradientTransform="matrix(0.971 0.2391 -0.2391 0.971 706.8227 -584.2353)">
				<stop  offset="0.0036" style="stop-color:#F36F56"/>
				<stop  offset="1" style="stop-color:#FFC444"/>
			</linearGradient>
			<path style="fill:url(#SVGID_00000085932767099048123310000015260725840356759727_);" d="M1293.258,1584.989l7.439,32.933
				c0,0,4.421,7.309,11.729,2.889l5.012-32.977L1293.258,1584.989z"/>
			
				<linearGradient id="SVGID_00000036224539539664446710000001019315175040122245_" gradientUnits="userSpaceOnUse" x1="1240.8646" y1="1880.4717" x2="872.4558" y2="1459.7202" gradientTransform="matrix(0.971 0.2391 -0.2391 0.971 706.8227 -584.2353)">
				<stop  offset="0" style="stop-color:#444B8C"/>
				<stop  offset="0.9964" style="stop-color:#26264F"/>
			</linearGradient>
			<path style="fill:url(#SVGID_00000036224539539664446710000001019315175040122245_);" d="M1452.79,1126.665
				c-29.204,75.003-57.802,158.509-83.355,250.049c-22.347,80.056-39.485,155.94-52.675,226.504
				c-6.842-1.685-13.683-3.37-20.525-5.055c-11.044-11.637-28.601-33.423-36.849-65.057c-2.299-8.819-8.352-35.575,3.35-89.368
				c9.817-45.126,20.36-55.175,31.906-91.665c22.6-71.423,3.664-100.73,27.816-213.966c7.132-33.436,12.579-48.677,26.173-55.756
				C1384.523,1063.661,1444.513,1118.897,1452.79,1126.665z"/>
			
				<linearGradient id="SVGID_00000168079277959295080530000017400765338309950388_" gradientUnits="userSpaceOnUse" x1="1259.429" y1="1180.1207" x2="1373.1764" y2="1493.1782" gradientTransform="matrix(0.971 0.2391 -0.2391 0.971 706.8227 -584.2353)">
				<stop  offset="0.0036" style="stop-color:#F36F56"/>
				<stop  offset="1" style="stop-color:#FFC444"/>
			</linearGradient>
			<path style="fill:url(#SVGID_00000168079277959295080530000017400765338309950388_);" d="M1654.043,1079.819
				c0,0,3.655-2.21,16.828-5.186c13.173-2.976,20.526,5.055,19.847,20.439c-0.678,15.383-5.012,32.977-9.432,25.668
				c-4.42-7.309-11.094-30.723-21.335-27.025C1649.709,1097.412,1654.043,1079.819,1654.043,1079.819z"/>
			
				<linearGradient id="SVGID_00000124127746581584959540000012498070811272526763_" gradientUnits="userSpaceOnUse" x1="650.5455" y1="1371.974" x2="623.3661" y2="1195.8118" gradientTransform="matrix(0.971 0.2391 -0.2391 0.971 706.8227 -584.2353)">
				<stop  offset="0.0036" style="stop-color:#F36F56"/>
				<stop  offset="1" style="stop-color:#FFC444"/>
			</linearGradient>
			<path style="fill:url(#SVGID_00000124127746581584959540000012498070811272526763_);" d="M1051.431,710.586
				c0,0-1.488-6.587-1.532-19.038c-0.043-12.451-4.464-19.76-12.538-24.858c-8.075-5.099-18.316-1.401-25.668-9.432
				c-4.56-4.98-7.265,16.871,5.952,26.347c13.217,9.475,19.891,32.89,19.891,32.89L1051.431,710.586z"/>
			
				<linearGradient id="SVGID_00000163070001860756280180000014837922831074243494_" gradientUnits="userSpaceOnUse" x1="1364.4116" y1="1109.9805" x2="1134.9187" y2="1363.6305" gradientTransform="matrix(0.971 0.2391 -0.2391 0.971 706.8227 -584.2353)">
				<stop  offset="0" style="stop-color:#FFC444"/>
				<stop  offset="0.9964" style="stop-color:#F36F56"/>
			</linearGradient>
			<path style="fill:url(#SVGID_00000163070001860756280180000014837922831074243494_);" d="M1416.645,844.076
				c5.557-1.169,20.458,4.039,49.891,24.728c56.243,39.534,64.77,84.991,106.674,135.126c17.116,20.478,44.518,47.38,88.141,71.47
				c0.766,9.519,1.532,19.038,2.297,28.557c-49.299,4.483-82.974-5.925-104.794-16.48c-65.548-31.705-81.583-92.524-151.249-105.673
				c-13.653-2.577-23.628-2.24-31.532-10.876C1351.046,943.581,1375.542,852.717,1416.645,844.076z"/>
			
				<linearGradient id="SVGID_00000031207733165634531390000005239739664043235262_" gradientUnits="userSpaceOnUse" x1="1027.271" y1="1049.1376" x2="767.5651" y2="1647.0652" gradientTransform="matrix(0.971 0.2391 -0.2391 0.971 706.8227 -584.2353)">
				<stop  offset="0" style="stop-color:#FFC444"/>
				<stop  offset="0.9964" style="stop-color:#F36F56"/>
			</linearGradient>
			<path style="fill:url(#SVGID_00000031207733165634531390000005239739664043235262_);" d="M1518.699,1124.238
				c2.3-14.585-30.448-20.758-42.669-54.05c-8.911-24.273,1.717-39.46,5.603-73.262c3.756-32.669,4.691-74.689-18.707-113.461
				c-2.795-4.631-7.068-11.712-13.982-18.994c-34.392-36.221-85.413-26.11-156.853-32.411c-44.944-3.964-108.64-9.669-162.76-46.306
				c-37.399-25.318-59.677-58.562-72.801-83.242c-9.76,1.743-19.519,3.486-29.279,5.229c0.434,61.294,18.758,98.24,35.578,120.726
				c52.311,69.928,129.259,52.355,173.307,129.766c25.604,44.997,23.249,92.489,23.04,95.867
				c-0.757,12.26-2.08,33.669-13.722,55.712c-30.199,57.183-98.628,59.534-97.859,81.641c0.622,17.881,46.178,39.068,93.153,38.493
				c69.21-0.846,79.99-48.179,174.054-75.316C1470.948,1138.432,1516.027,1141.183,1518.699,1124.238z"/>
			
				<linearGradient id="SVGID_00000109749138707372231390000001270436562584042377_" gradientUnits="userSpaceOnUse" x1="935.2388" y1="1112.812" x2="954.3655" y2="1297.0317" gradientTransform="matrix(0.971 0.2391 -0.2391 0.971 706.8227 -584.2353)">
				<stop  offset="0.0036" style="stop-color:#F36F56"/>
				<stop  offset="1" style="stop-color:#FFC444"/>
			</linearGradient>
			<path style="fill:url(#SVGID_00000109749138707372231390000001270436562584042377_);" d="M1322.77,808.515
				c0,0,5.908,13.896-7.265,16.871c-13.173,2.976-36.201,3.872-36.201,3.872l92,34.751l15.297-24.224c0,0-32.977-5.012-35.187-8.666
				c-2.21-3.655-11.05-18.272-11.05-18.272L1322.77,808.515z"/>
			
				<linearGradient id="SVGID_00000109012857435710368360000012008216130543677861_" gradientUnits="userSpaceOnUse" x1="-1262.2291" y1="852.3499" x2="-1268.7513" y2="774.0826" gradientTransform="matrix(-0.9007 -0.4344 -0.4344 0.9007 528.7008 -477.1019)">
				<stop  offset="0" style="stop-color:#444B8C"/>
				<stop  offset="0.9964" style="stop-color:#26264F"/>
			</linearGradient>
			<path style="fill:url(#SVGID_00000109012857435710368360000012008216130543677861_);" d="M1344.385,791.867
				c9.894-6.738,11.822-5.606,15.705-9.901c8.848-9.785,9.849-27.847,4.139-31.247c-3.681-2.192-7.199,3.468-20.141,8.187
				c-15.854,5.78-20.953,1.07-31.995,7.584c-2.584,1.523-14.209,8.383-14.683,18.017c-0.604,12.295,17.198,24.092,29.107,20.905
				C1332.165,803.901,1332.197,800.168,1344.385,791.867z"/>
			<g>
				
					<linearGradient id="SVGID_00000093876778330751541030000017597380115159591098_" gradientUnits="userSpaceOnUse" x1="3969.6711" y1="1305.0939" x2="4031.1816" y2="1369.929" gradientTransform="matrix(0.9709 0.2393 -0.2393 0.9709 -2239.6018 -1476.916)">
					<stop  offset="0.0036" style="stop-color:#F36F56"/>
					<stop  offset="1" style="stop-color:#FFC444"/>
				</linearGradient>
				<path style="fill:url(#SVGID_00000093876778330751541030000017597380115159591098_);" d="M1322.62,810.317
					c0,0,9.019,11.768,24.189,9.141c13.583-2.352,12.31-33.239,2.878-38.816c-3.146-1.86-9.08-2.138-13.685-0.301
					c-2.72,1.085-3.544,2.352-8.023,4.039c-4.13,1.555-5.381,1.212-6.548,2.429c-1.46,1.521-2.281,4.956,1.355,13.638
					c-2.891-2.364-6.133-3.043-8.24-1.759c-0.336,0.205-1.207,0.944-1.632,1.969C1311.377,804.366,1315.054,808.498,1322.62,810.317
					z"/>
			</g>
			<g style="opacity:0.3;">
				
					<linearGradient id="SVGID_00000067923739214526488090000010627760344223441851_" gradientUnits="userSpaceOnUse" x1="990.4297" y1="1033.1273" x2="730.7209" y2="1631.0613" gradientTransform="matrix(0.971 0.2391 -0.2391 0.971 706.8227 -584.2353)">
					<stop  offset="0" style="stop-color:#FFC444"/>
					<stop  offset="0.9964" style="stop-color:#F36F56"/>
				</linearGradient>
				<path style="fill:url(#SVGID_00000067923739214526488090000010627760344223441851_);" d="M1349.866,1121.532
					c1.706-20.826-40.823-27.141-44.88-57.705c-4.273-32.192,40.164-45.86,45.845-85.122c6.953-48.053-50.159-92.905-56.739-97.947
					c-68.812-52.728-130.568-12.62-206.744-57.139c-16.119-9.42-32.757-22.588-48.548-41.261
					c6.751,19.853,15.578,34.81,24.029,46.108c52.311,69.928,129.259,52.355,173.307,129.766
					c25.604,44.997,23.249,92.489,23.04,95.867c-0.757,12.26-2.08,33.669-13.722,55.712c-30.199,57.183-98.628,59.534-97.859,81.641
					c0.531,15.287,33.91,32.977,72.935,37.433c4.618-14.162,11.734-28.087,22.636-40.331
					C1282.397,1144.496,1347.759,1147.238,1349.866,1121.532z"/>
			</g>
			<g>
				<g>
					
						<linearGradient id="SVGID_00000169534074623159765000000014276018277311913914_" gradientUnits="userSpaceOnUse" x1="-27.8588" y1="1761.4879" x2="497.2125" y2="2207.1873" gradientTransform="matrix(0.9729 -0.2315 0.2315 0.9729 58.084 -1223.6757)">
						<stop  offset="0" style="stop-color:#FF9085"/>
						<stop  offset="1" style="stop-color:#FB6FBB"/>
					</linearGradient>
					<path style="fill:url(#SVGID_00000169534074623159765000000014276018277311913914_);" d="M1007.991,614.32
						c-199.94-100.226-288.292,291.898-484.71,207.215c-8.483-3.629-17.029-13.815-18.755-21.426
						c-14.66-64.682-29.32-129.363-43.979-194.044c-1.731-7.644,4.301-8.545,13.137-3.361
						C678.148,722.89,773.67,362.4,979.903,490.389c6.192,3.843,12.079,10.854,13.029,15.049
						c8.098,35.731,16.196,71.46,24.295,107.191C1018.179,616.839,1013.99,617.311,1007.991,614.32z"/>
					<g style="opacity:0.3;">
						<path style="fill:#FFFFFF;" d="M875.971,535.308c-61.526,12.73-84.825,104.206-138.002,127.638
							c-34.203,13.899-39.172-14.39-82.757-23.129c-27.362-6.474-57.839-6.852-90.22-12.404
							c-28.218,1.547-58.348-5.336-91.308-24.71c-8.837-5.187-14.868-4.281-13.137,3.361
							c14.66,64.681,29.319,129.363,43.979,194.044c1.726,7.612,10.271,17.798,18.755,21.427
							c193.341,83.356,281.976-295.278,475.398-211.566C945.263,543.482,904.767,529.529,875.971,535.308z"/>
					</g>
				</g>
				
					<linearGradient id="SVGID_00000159443023090133794200000003214673631825591224_" gradientUnits="userSpaceOnUse" x1="526.52" y1="1067.2496" x2="628.7264" y2="1067.2496" gradientTransform="matrix(0.971 0.2391 -0.2391 0.971 706.8227 -584.2353)">
					<stop  offset="0" style="stop-color:#444B8C"/>
					<stop  offset="0.9964" style="stop-color:#26264F"/>
				</linearGradient>
				<path style="fill:url(#SVGID_00000159443023090133794200000003214673631825591224_);" d="M1035.662,693.64
					c-2.318,0-4.413-1.586-4.968-3.938l-46.298-196.727c-0.643-2.745,1.058-5.494,3.803-6.141c2.732-0.63,5.494,1.061,6.141,3.803
					l46.298,196.726c0.643,2.745-1.058,5.494-3.803,6.141C1036.443,693.596,1036.049,693.64,1035.662,693.64z"/>
			</g>
		</g>
	</g>
</g>
</svg>
